0
SECTION
2
HEADER
9
$ACADVER
1
AC1015
9
$HANDSEED
5
20000
0
ENDSEC
0
SECTION
2
CLASSES
0
ENDSEC
0
SECTION
2
TABLES
0
TABLE
2
VPORT
5
8
330
0
100
AcDbSymbolTable
70
1
0
VPORT
5
31
330
2
100
AcDbSymbolTableRecord
100
AcDbViewportTableRecord
2
*ACTIVE
70
0
10
0
20
0
11
1
21
1
12
209.475294253
22
86.0026335861
13
0
23
0
14
10
24
10
15
10
25
10
16
0
26
0
36
1
17
0
27
0
37
0
40
319.744231092
41
2.12946428571
42
50
43
0
44
0
50
0
51
0
71
0
72
100
73
1
74
3
75
0
76
0
77
0
78
0
281
0
65
1
110
0
120
0
130
0
111
1
121
0
131
0
112
0
122
1
132
0
79
0
146
0
348
10020
60
7
61
5
292
1
282
1
141
0
142
0
63
250
421
3358443
0
ENDTAB
0
TABLE
2
LTYPE
5
5
330
0
100
AcDbSymbolTable
70
4
0
LTYPE
5
14
330
5
100
AcDbSymbolTableRecord
100
AcDbLinetypeTableRecord
2
ByBlock
70
0
3

72
65
73
0
40
0
0
LTYPE
5
15
330
5
100
AcDbSymbolTableRecord
100
AcDbLinetypeTableRecord
2
ByLayer
70
0
3

72
65
73
0
40
0
0
LTYPE
5
16
330
5
100
AcDbSymbolTableRecord
100
AcDbLinetypeTableRecord
2
Continuous
70
0
3
Solid line
72
65
73
0
40
0
0
ENDTAB
0
TABLE
2
LAYER
5
2
330
0
100
AcDbSymbolTable
70
1
0
LAYER
5
10
330
2
100
AcDbSymbolTableRecord
100
AcDbLayerTableRecord
2
0
70
0
62
7
6
CONTINUOUS
370
-3
390
F
0
LAYER
5
d1
100
AcDbSymbolTableRecord
100
AcDbLayerTableRecord
2
_ABF_SHEET_ID
70
0
62
100
6
Continuous
390
13
0
LAYER
5
d2
100
AcDbSymbolTableRecord
100
AcDbLayerTableRecord
2
_ABF_SHEET_MATERIAL
70
0
62
1
6
Continuous
390
13
0
LAYER
5
d3
100
AcDbSymbolTableRecord
100
AcDbLayerTableRecord
2
_ABF_SHEET_BORDER
70
0
62
30
6
Continuous
390
13
0
LAYER
5
d4
100
AcDbSymbolTableRecord
100
AcDbLayerTableRecord
2
_ABF_CUTTING_LINES
70
0
62
54
6
Continuous
390
13
0
ENDTAB
0
TABLE
2
STYLE
5
3
330
0
100
AcDbSymbolTable
70
3
0
STYLE
5
45
330
2
100
AcDbSymbolTableRecord
100
AcDbTextStyleTableRecord
2
Standard
70
0
40
0
41
1
50
0
71
0
42
1
3
txt
4

0
ENDTAB
0
TABLE
2
VIEW
5
6
330
0
100
AcDbSymbolTable
70
0
0
ENDTAB
0
TABLE
2
UCS
5
7
330
0
100
AcDbSymbolTable
70
0
0
ENDTAB
0
TABLE
2
APPID
5
9
330
0
100
AcDbSymbolTable
70
1
0
APPID
5
12
330
9
100
AcDbSymbolTableRecord
100
AcDbRegAppTableRecord
2
ACAD
70
0
0
ENDTAB
0
TABLE
2
DIMSTYLE
5
A
330
0
100
AcDbSymbolTable
70
1
100
AcDbDimStyleTable
71
1
0
DIMSTYLE
105
46
330
A
100
AcDbSymbolTableRecord
100
AcDbDimStyleTableRecord
2
Standard
70
0
40
1
41
0.18
42
0.0625
43
0.38
44
0.18
45
0
46
0
47
0
48
0
140
0.18
141
0.09
142
0
143
25.4
144
1
145
0
146
1
147
0.09
148
0
71
0
72
0
73
0
74
1
75
0
76
0
77
0
78
0
79
0
170
0
171
2
172
0
173
0
174
0
175
0
176
0
177
0
178
0
179
0
271
4
272
4
273
2
274
2
275
0
276
0
277
2
278
46
279
0
280
0
281
0
282
0
283
1
284
0
285
0
286
0
288
0
289
3
340
Standard
341

371
-2
372
-2
0
ENDTAB
0
TABLE
2
BLOCK_RECORD
5
1
330
0
100
AcDbSymbolTable
70
2
0
BLOCK_RECORD
5
1F
330
1
100
AcDbSymbolTableRecord
100
AcDbBlockTableRecord
2
*Model_Space
70
0
280
1
281
0
0
BLOCK_RECORD
5
1E
330
1
100
AcDbSymbolTableRecord
100
AcDbBlockTableRecord
2
*Paper_Space
70
0
280
1
281
0
0
ENDTAB
0
ENDSEC
0
SECTION
2
BLOCKS
0
BLOCK
5
20
330
1F
100
AcDbEntity
8
0
100
AcDbBlockBegin
2
*Model_Space
70
0
10
0
20
0
30
0
3
*Model_Space
1

0
ENDBLK
5
21
330
1F
100
AcDbEntity
8
0
100
AcDbBlockEnd
0
BLOCK
5
1C
330
1B
100
AcDbEntity
8
0
100
AcDbBlockBegin
2
*Paper_Space
70
0
10
0
20
0
30
0
3
*Paper_Space
1

0
ENDBLK
5
1D
330
1E
100
AcDbEntity
8
0
100
AcDbBlockEnd
0
ENDSEC
0
SECTION
2
ENTITIES
0
LWPOLYLINE
5
65
100
AcDbEntity
8
_ABF_SHEET_BORDER
100
AcDbPolyline
90
5
66
1
70
1
10
0.0
20
0.0
10
1220.0
20
0.0
10
1220.0
20
2440.0
10
0.0
20
2440.0
10
0.0
20
0.0
0
LWPOLYLINE
5
66
100
AcDbEntity
8
_ABF_CUTTING_LINES
100
AcDbPolyline
90
5
66
1
70
1
10
834.4999999999402
20
2436.5
10
834.4999999999402
20
1757.5000000000002
10
1216.49999999994
20
1757.5000000000002
10
1216.49999999994
20
2436.5
10
834.4999999999402
20
2436.5
0
LWPOLYLINE
5
67
100
AcDbEntity
8
_ABF_CUTTING_LINES
100
AcDbPolyline
90
5
66
1
70
1
10
834.499999999951
20
1750.9999999999995
10
834.4999999999517
20
1071.9999999999998
10
1216.4999999999507
20
1072.0000000000002
10
1216.4999999999507
20
1751.0
10
834.499999999951
20
1750.9999999999995
0
LWPOLYLINE
5
68
100
AcDbEntity
8
_ABF_SHEET_ID
100
AcDbPolyline
90
2
66
1
70
0
10
465.1029863393306
20
1429.2425096845625
10
465.1029863393306
20
1014.2599999999999
0
LWPOLYLINE
5
69
100
AcDbEntity
8
_ABF_SHEET_ID
100
AcDbPolyline
90
2
66
1
70
0
10
416.81603773593895
20
1356.5245827531814
10
351.13814938426015
20
1292.7973861074447
0
LWPOLYLINE
5
6a
100
AcDbEntity
8
_ABF_SHEET_ID
100
AcDbPolyline
90
2
66
1
70
0
10
465.1029863393306
20
1429.2425096845625
10
416.81603773593895
20
1356.5245827531814
0
LWPOLYLINE
5
6b
100
AcDbEntity
8
_ABF_SHEET_ID
100
AcDbPolyline
90
2
66
1
70
0
10
351.13814938426015
20
1014.2599999999999
10
465.1029863393306
20
1014.2599999999999
0
LWPOLYLINE
5
6c
100
AcDbEntity
8
_ABF_SHEET_ID
100
AcDbPolyline
90
2
66
1
70
0
10
465.1029863393306
20
1014.2599999999999
10
579.401896289587
20
1014.2599999999999
0
LWPOLYLINE
5
6d
100
AcDbEntity
8
_ABF_SHEET_ID
100
AcDbPolyline
90
2
66
1
70
0
10
832.1574367606639
20
1398.0986167049407
10
868.8618506157397
20
1286.827428922653
0
LWPOLYLINE
5
6e
100
AcDbEntity
8
_ABF_SHEET_ID
100
AcDbPolyline
90
2
66
1
70
0
10
759.319263716936
20
1014.2599999999999
10
841.3945046627521
20
1048.3900910651682
0
LWPOLYLINE
5
6f
100
AcDbEntity
8
_ABF_SHEET_ID
100
AcDbPolyline
90
2
66
1
70
0
10
681.5501620912551
20
1048.261621890068
10
759.319263716936
20
1014.2599999999999
0
LWPOLYLINE
5
70
100
AcDbEntity
8
_ABF_SHEET_ID
100
AcDbPolyline
90
2
66
1
70
0
10
868.8618506157397
20
1286.827428922653
10
868.8618506157397
20
1157.4826032376288
0
LWPOLYLINE
5
71
100
AcDbEntity
8
_ABF_SHEET_ID
100
AcDbPolyline
90
2
66
1
70
0
10
868.8618506157397
20
1157.4826032376288
10
841.3945046627521
20
1048.3900910651682
0
LWPOLYLINE
5
72
100
AcDbEntity
8
_ABF_SHEET_ID
100
AcDbPolyline
90
2
66
1
70
0
10
684.7206058347224
20
1398.0986167049407
10
647.9818962895865
20
1286.827428922653
0
LWPOLYLINE
5
73
100
AcDbEntity
8
_ABF_SHEET_ID
100
AcDbPolyline
90
2
66
1
70
0
10
647.9818962895864
20
1157.4826032376288
10
681.5501620912551
20
1048.261621890068
0
LWPOLYLINE
5
74
100
AcDbEntity
8
_ABF_SHEET_ID
100
AcDbPolyline
90
2
66
1
70
0
10
647.9818962895865
20
1286.827428922653
10
647.9818962895864
20
1157.4826032376288
0
LWPOLYLINE
5
75
100
AcDbEntity
8
_ABF_SHEET_ID
100
AcDbPolyline
90
2
66
1
70
0
10
832.1574367606639
20
1398.0986167049407
10
758.5732745492458
20
1429.2425096845625
0
LWPOLYLINE
5
76
100
AcDbEntity
8
_ABF_SHEET_ID
100
AcDbPolyline
90
2
66
1
70
0
10
758.5732745492458
20
1429.2425096845625
10
684.7206058347224
20
1398.0986167049407
0
LWPOLYLINE
5
77
100
AcDbEntity
8
_ABF_SHEET_MATERIAL
100
AcDbPolyline
90
2
66
1
70
0
10
132.6472950847843
20
2232.3396956374186
10
144.12986784440685
20
2197.529726601963
0
LWPOLYLINE
5
78
100
AcDbEntity
8
_ABF_SHEET_MATERIAL
100
AcDbPolyline
90
2
66
1
70
0
10
109.86067261057951
20
2112.2599999999998
10
135.53701032966168
20
2122.937224147911
0
LWPOLYLINE
5
79
100
AcDbEntity
8
_ABF_SHEET_MATERIAL
100
AcDbPolyline
90
2
66
1
70
0
10
85.53146328460437
20
2122.897033977424
10
109.86067261057951
20
2112.2599999999998
0
LWPOLYLINE
5
7a
100
AcDbEntity
8
_ABF_SHEET_MATERIAL
100
AcDbPolyline
90
2
66
1
70
0
10
144.12986784440685
20
2197.529726601963
10
144.12986784440685
20
2157.0656184466543
0
LWPOLYLINE
5
7b
100
AcDbEntity
8
_ABF_SHEET_MATERIAL
100
AcDbPolyline
90
2
66
1
70
0
10
144.12986784440685
20
2157.0656184466543
10
135.53701032966168
20
2122.937224147911
0
LWPOLYLINE
5
7c
100
AcDbEntity
8
_ABF_SHEET_MATERIAL
100
AcDbPolyline
90
2
66
1
70
0
10
86.52330178959713
20
2232.3396956374186
10
75.02999999999982
20
2197.529726601963
0
LWPOLYLINE
5
7d
100
AcDbEntity
8
_ABF_SHEET_MATERIAL
100
AcDbPolyline
90
2
66
1
70
0
10
75.0299999999998
20
2157.0656184466543
10
85.53146328460437
20
2122.897033977424
0
LWPOLYLINE
5
7e
100
AcDbEntity
8
_ABF_SHEET_MATERIAL
100
AcDbPolyline
90
2
66
1
70
0
10
75.02999999999982
20
2197.529726601963
10
75.0299999999998
20
2157.0656184466543
0
LWPOLYLINE
5
7f
100
AcDbEntity
8
_ABF_SHEET_MATERIAL
100
AcDbPolyline
90
2
66
1
70
0
10
132.6472950847843
20
2232.3396956374186
10
109.62729809247074
20
2242.0827205108963
0
LWPOLYLINE
5
80
100
AcDbEntity
8
_ABF_SHEET_MATERIAL
100
AcDbPolyline
90
2
66
1
70
0
10
109.62729809247074
20
2242.0827205108963
10
86.52330178959713
20
2232.3396956374186
0
LWPOLYLINE
5
81
100
AcDbEntity
8
_ABF_SHEET_MATERIAL
100
AcDbPolyline
90
2
66
1
70
0
10
178.8308268236035
20
2120.9729229050095
10
169.90455814860968
20
2134.911567559147
0
LWPOLYLINE
5
82
100
AcDbEntity
8
_ABF_SHEET_MATERIAL
100
AcDbPolyline
90
2
66
1
70
0
10
236.99417390682436
20
2157.8584967456163
10
225.44234199780672
20
2123.4038591588796
0
LWPOLYLINE
5
83
100
AcDbEntity
8
_ABF_SHEET_MATERIAL
100
AcDbPolyline
90
2
66
1
70
0
10
165.5843676482776
20
2201.422245957558
10
175.9509891491308
20
2230.17270439062
0
LWPOLYLINE
5
84
100
AcDbEntity
8
_ABF_SHEET_MATERIAL
100
AcDbPolyline
90
2
66
1
70
0
10
225.84660519755317
20
2175.5857016979253
10
236.99417390682436
20
2201.422245957558
0
LWPOLYLINE
5
85
100
AcDbEntity
8
_ABF_SHEET_MATERIAL
100
AcDbPolyline
90
2
66
1
70
0
10
201.00167991766742
20
2242.0827205108963
10
227.49206413708364
20
2230.17270439062
0
LWPOLYLINE
5
86
100
AcDbEntity
8
_ABF_SHEET_MATERIAL
100
AcDbPolyline
90
2
66
1
70
0
10
176.23853205447037
20
2172.7742226930773
10
201.00167991766742
20
2162.794950291478
0
LWPOLYLINE
5
87
100
AcDbEntity
8
_ABF_SHEET_MATERIAL
100
AcDbPolyline
90
2
66
1
70
0
10
175.9509891491308
20
2230.17270439062
10
201.00167991766742
20
2242.0827205108963
0
LWPOLYLINE
5
88
100
AcDbEntity
8
_ABF_SHEET_MATERIAL
100
AcDbPolyline
90
2
66
1
70
0
10
165.5843676482776
20
2201.422245957558
10
176.23853205447037
20
2172.7742226930773
0
LWPOLYLINE
5
89
100
AcDbEntity
8
_ABF_SHEET_MATERIAL
100
AcDbPolyline
90
2
66
1
70
0
10
201.00167991766742
20
2112.2599999999998
10
178.8308268236035
20
2120.9729229050095
0
LWPOLYLINE
5
8a
100
AcDbEntity
8
_ABF_SHEET_MATERIAL
100
AcDbPolyline
90
2
66
1
70
0
10
225.44234199780672
20
2123.4038591588796
10
201.00167991766742
20
2112.2599999999998
0
LWPOLYLINE
5
8b
100
AcDbEntity
8
_ABF_SHEET_MATERIAL
100
AcDbPolyline
90
2
66
1
70
0
10
236.99417390682436
20
2201.422245957558
10
236.99417390682436
20
2157.8584967456163
0
LWPOLYLINE
5
8c
100
AcDbEntity
8
_ABF_SHEET_MATERIAL
100
AcDbPolyline
90
2
66
1
70
0
10
227.49206413708364
20
2230.17270439062
10
236.99417390682436
20
2201.422245957558
0
LWPOLYLINE
5
8d
100
AcDbEntity
8
_ABF_SHEET_MATERIAL
100
AcDbPolyline
90
2
66
1
70
0
10
201.00167991766742
20
2162.794950291478
10
225.84660519755317
20
2175.5857016979253
0
LWPOLYLINE
5
8e
100
AcDbEntity
8
_ABF_SHEET_MATERIAL
100
AcDbPolyline
90
2
66
1
70
0
10
313.1344073498628
20
2197.712201101428
10
319.88776692091614
20
2174.922905960638
0
LWPOLYLINE
5
8f
100
AcDbEntity
8
_ABF_SHEET_MATERIAL
100
AcDbPolyline
90
2
66
1
70
0
10
258.44867371069506
20
2204.773377693362
10
258.44867371069506
20
2179.708748137373
0
LWPOLYLINE
5
90
100
AcDbEntity
8
_ABF_SHEET_MATERIAL
100
AcDbPolyline
90
2
66
1
70
0
10
319.88776692091614
20
2112.2599999999998
10
319.88776692091614
20
2174.922905960638
0
LWPOLYLINE
5
91
100
AcDbEntity
8
_ABF_SHEET_MATERIAL
100
AcDbPolyline
90
2
66
1
70
0
10
296.27246435086556
20
2204.5459324882027
10
279.41182145283875
20
2200.6741635966187
0
LWPOLYLINE
5
92
100
AcDbEntity
8
_ABF_SHEET_MATERIAL
100
AcDbPolyline
90
2
66
1
70
0
10
380.5816507802111
20
2112.2599999999998
10
380.5816507802111
20
2174.922905960638
0
LWPOLYLINE
5
93
100
AcDbEntity
8
_ABF_SHEET_MATERIAL
100
AcDbPolyline
90
2
66
1
70
0
10
258.44867371069506
20
2179.708748137373
10
279.41182145283875
20
2200.6741635966187
0
LWPOLYLINE
5
94
100
AcDbEntity
8
_ABF_SHEET_MATERIAL
100
AcDbPolyline
90
2
66
1
70
0
10
258.44867371069506
20
2179.708748137373
10
258.44867371069506
20
2112.2599999999998
0
LWPOLYLINE
5
95
100
AcDbEntity
8
_ABF_SHEET_MATERIAL
100
AcDbPolyline
90
2
66
1
70
0
10
353.92287151544446
20
2204.545949538707
10
374.42956446347966
20
2197.712201101428
0
LWPOLYLINE
5
96
100
AcDbEntity
8
_ABF_SHEET_MATERIAL
100
AcDbPolyline
90
2
66
1
70
0
10
374.42956446347966
20
2197.712201101428
10
380.5816507802111
20
2174.922905960638
0
LWPOLYLINE
5
97
100
AcDbEntity
8
_ABF_SHEET_MATERIAL
100
AcDbPolyline
90
2
66
1
70
0
10
336.1505253523961
20
2197.9120244892506
10
353.92287151544446
20
2204.545949538707
0
LWPOLYLINE
5
98
100
AcDbEntity
8
_ABF_SHEET_MATERIAL
100
AcDbPolyline
90
2
66
1
70
0
10
313.1344073498628
20
2197.712201101428
10
296.27246435086556
20
2204.5459324882027
0
LWPOLYLINE
5
99
100
AcDbEntity
8
_ABF_SHEET_MATERIAL
100
AcDbPolyline
90
2
66
1
70
0
10
319.88776692091614
20
2174.922905960638
10
336.1505253523961
20
2197.9120244892506
0
LWPOLYLINE
5
9a
100
AcDbEntity
8
_ABF_SHEET_MATERIAL
100
AcDbPolyline
90
2
66
1
70
0
10
456.7218842232495
20
2197.712201101428
10
463.47524379430286
20
2174.922905960638
0
LWPOLYLINE
5
9b
100
AcDbEntity
8
_ABF_SHEET_MATERIAL
100
AcDbPolyline
90
2
66
1
70
0
10
402.03615058408184
20
2204.773377693362
10
402.03615058408184
20
2179.708748137373
0
LWPOLYLINE
5
9c
100
AcDbEntity
8
_ABF_SHEET_MATERIAL
100
AcDbPolyline
90
2
66
1
70
0
10
463.47524379430286
20
2112.2599999999998
10
463.47524379430286
20
2174.922905960638
0
LWPOLYLINE
5
9d
100
AcDbEntity
8
_ABF_SHEET_MATERIAL
100
AcDbPolyline
90
2
66
1
70
0
10
439.85994122425234
20
2204.5459324882027
10
422.99929832622547
20
2200.6741635966187
0
LWPOLYLINE
5
9e
100
AcDbEntity
8
_ABF_SHEET_MATERIAL
100
AcDbPolyline
90
2
66
1
70
0
10
524.1691276535978
20
2112.2599999999998
10
524.1691276535978
20
2174.922905960638
0
LWPOLYLINE
5
9f
100
AcDbEntity
8
_ABF_SHEET_MATERIAL
100
AcDbPolyline
90
2
66
1
70
0
10
402.03615058408184
20
2179.708748137373
10
422.99929832622547
20
2200.6741635966187
0
LWPOLYLINE
5
a0
100
AcDbEntity
8
_ABF_SHEET_MATERIAL
100
AcDbPolyline
90
2
66
1
70
0
10
402.03615058408184
20
2179.708748137373
10
402.03615058408184
20
2112.2599999999998
0
LWPOLYLINE
5
a1
100
AcDbEntity
8
_ABF_SHEET_MATERIAL
100
AcDbPolyline
90
2
66
1
70
0
10
497.5103483888312
20
2204.545949538707
10
518.0170413368663
20
2197.712201101428
0
LWPOLYLINE
5
a2
100
AcDbEntity
8
_ABF_SHEET_MATERIAL
100
AcDbPolyline
90
2
66
1
70
0
10
518.0170413368663
20
2197.712201101428
10
524.1691276535978
20
2174.922905960638
0
LWPOLYLINE
5
a3
100
AcDbEntity
8
_ABF_SHEET_MATERIAL
100
AcDbPolyline
90
2
66
1
70
0
10
479.7380022257828
20
2197.9120244892506
10
497.5103483888312
20
2204.545949538707
0
LWPOLYLINE
5
a4
100
AcDbEntity
8
_ABF_SHEET_MATERIAL
100
AcDbPolyline
90
2
66
1
70
0
10
456.7218842232495
20
2197.712201101428
10
439.85994122425234
20
2204.5459324882027
0
LWPOLYLINE
5
a5
100
AcDbEntity
8
_ABF_SHEET_MATERIAL
100
AcDbPolyline
90
2
66
1
70
0
10
463.47524379430286
20
2174.922905960638
10
479.7380022257828
20
2197.9120244892506
0
LWPOLYLINE
5
a6
100
AcDbEntity
8
_ABF_SHEET_MATERIAL
100
AcDbPolyline
90
2
66
1
70
0
10
545.6236274574685
20
2160.921304449842
10
642.354703203542
20
2160.921304449842
0
LWPOLYLINE
5
a7
100
AcDbEntity
8
_ABF_SHEET_MATERIAL
100
AcDbPolyline
90
2
66
1
70
0
10
699.4618506029321
20
2242.0827205108963
10
699.4618506029321
20
2112.2599999999998
0
LWPOLYLINE
5
a8
100
AcDbEntity
8
_ABF_SHEET_MATERIAL
100
AcDbPolyline
90
2
66
1
70
0
10
684.3558090552363
20
2219.3337157123074
10
663.8092030074127
20
2199.397362140753
0
LWPOLYLINE
5
a9
100
AcDbEntity
8
_ABF_SHEET_MATERIAL
100
AcDbPolyline
90
2
66
1
70
0
10
699.4618506029321
20
2242.0827205108963
10
684.3558090552363
20
2219.3337157123074
0
LWPOLYLINE
5
aa
100
AcDbEntity
8
_ABF_SHEET_MATERIAL
100
AcDbPolyline
90
2
66
1
70
0
10
663.8092030074127
20
2112.2599999999998
10
699.4618506029321
20
2112.2599999999998
0
LWPOLYLINE
5
ab
100
AcDbEntity
8
_ABF_SHEET_MATERIAL
100
AcDbPolyline
90
2
66
1
70
0
10
699.4618506029321
20
2112.2599999999998
10
735.2190092659596
20
2112.2599999999998
0
LWPOLYLINE
5
ac
100
AcDbEntity
8
_ABF_SHEET_MATERIAL
100
AcDbPolyline
90
2
66
1
70
0
10
814.2908041546146
20
2232.3396956374186
10
825.7733769142372
20
2197.529726601963
0
LWPOLYLINE
5
ad
100
AcDbEntity
8
_ABF_SHEET_MATERIAL
100
AcDbPolyline
90
2
66
1
70
0
10
791.5041816804098
20
2112.2599999999998
10
817.180519399492
20
2122.937224147911
0
LWPOLYLINE
5
ae
100
AcDbEntity
8
_ABF_SHEET_MATERIAL
100
AcDbPolyline
90
2
66
1
70
0
10
767.1749723544348
20
2122.897033977424
10
791.5041816804098
20
2112.2599999999998
0
LWPOLYLINE
5
af
100
AcDbEntity
8
_ABF_SHEET_MATERIAL
100
AcDbPolyline
90
2
66
1
70
0
10
825.7733769142372
20
2197.529726601963
10
825.7733769142372
20
2157.0656184466543
0
LWPOLYLINE
5
b0
100
AcDbEntity
8
_ABF_SHEET_MATERIAL
100
AcDbPolyline
90
2
66
1
70
0
10
825.7733769142372
20
2157.0656184466543
10
817.180519399492
20
2122.937224147911
0
LWPOLYLINE
5
b1
100
AcDbEntity
8
_ABF_SHEET_MATERIAL
100
AcDbPolyline
90
2
66
1
70
0
10
768.1668108594274
20
2232.3396956374186
10
756.6735090698301
20
2197.529726601963
0
LWPOLYLINE
5
b2
100
AcDbEntity
8
_ABF_SHEET_MATERIAL
100
AcDbPolyline
90
2
66
1
70
0
10
756.6735090698301
20
2157.0656184466543
10
767.1749723544348
20
2122.897033977424
0
LWPOLYLINE
5
b3
100
AcDbEntity
8
_ABF_SHEET_MATERIAL
100
AcDbPolyline
90
2
66
1
70
0
10
756.6735090698301
20
2197.529726601963
10
756.6735090698301
20
2157.0656184466543
0
LWPOLYLINE
5
b4
100
AcDbEntity
8
_ABF_SHEET_MATERIAL
100
AcDbPolyline
90
2
66
1
70
0
10
814.2908041546146
20
2232.3396956374186
10
791.2708071623011
20
2242.0827205108963
0
LWPOLYLINE
5
b5
100
AcDbEntity
8
_ABF_SHEET_MATERIAL
100
AcDbPolyline
90
2
66
1
70
0
10
791.2708071623011
20
2242.0827205108963
10
768.1668108594274
20
2232.3396956374186
0
LWPOLYLINE
5
b6
100
AcDbEntity
8
_ABF_SHEET_MATERIAL
100
AcDbPolyline
90
2
66
1
70
0
10
882.8805243136275
20
2242.0827205108963
10
882.8805243136275
20
2112.2599999999998
0
LWPOLYLINE
5
b7
100
AcDbEntity
8
_ABF_SHEET_MATERIAL
100
AcDbPolyline
90
2
66
1
70
0
10
867.7744827659316
20
2219.3337157123074
10
847.227876718108
20
2199.397362140753
0
LWPOLYLINE
5
b8
100
AcDbEntity
8
_ABF_SHEET_MATERIAL
100
AcDbPolyline
90
2
66
1
70
0
10
882.8805243136275
20
2242.0827205108963
10
867.7744827659316
20
2219.3337157123074
0
LWPOLYLINE
5
b9
100
AcDbEntity
8
_ABF_SHEET_MATERIAL
100
AcDbPolyline
90
2
66
1
70
0
10
847.227876718108
20
2112.2599999999998
10
882.8805243136275
20
2112.2599999999998
0
LWPOLYLINE
5
ba
100
AcDbEntity
8
_ABF_SHEET_MATERIAL
100
AcDbPolyline
90
2
66
1
70
0
10
882.8805243136275
20
2112.2599999999998
10
918.6376829766546
20
2112.2599999999998
0
LWPOLYLINE
5
bb
100
AcDbEntity
8
_ABF_SHEET_MATERIAL
100
AcDbPolyline
90
2
66
1
70
0
10
964.1365847414812
20
2116.8437175036293
10
947.0496363579576
20
2130.1657429165407
0
LWPOLYLINE
5
bc
100
AcDbEntity
8
_ABF_SHEET_MATERIAL
100
AcDbPolyline
90
2
66
1
70
0
10
1013.3043637717792
20
2170.524135812459
10
1027.00967014013
20
2159.880669532201
0
LWPOLYLINE
5
bd
100
AcDbEntity
8
_ABF_SHEET_MATERIAL
100
AcDbPolyline
90
2
66
1
70
0
10
949.9505191504728
20
2229.1517713309627
10
944.6291280860912
20
2212.277875928291
0
LWPOLYLINE
5
be
100
AcDbEntity
8
_ABF_SHEET_MATERIAL
100
AcDbPolyline
90
2
66
1
70
0
10
983.8318207345577
20
2243.06798391508
10
961.7171565125111
20
2238.87280957885
0
LWPOLYLINE
5
bf
100
AcDbEntity
8
_ABF_SHEET_MATERIAL
100
AcDbPolyline
90
2
66
1
70
0
10
944.6291280860912
20
2212.277875928291
10
948.9819700361813
20
2196.412662797773
0
LWPOLYLINE
5
c0
100
AcDbEntity
8
_ABF_SHEET_MATERIAL
100
AcDbPolyline
90
2
66
1
70
0
10
1003.7824200026456
20
2238.87280957885
10
983.8318207345577
20
2243.06798391508
0
LWPOLYLINE
5
c1
100
AcDbEntity
8
_ABF_SHEET_MATERIAL
100
AcDbPolyline
90
2
66
1
70
0
10
961.7171565125111
20
2238.87280957885
10
949.9505191504728
20
2229.1517713309627
0
LWPOLYLINE
5
c2
100
AcDbEntity
8
_ABF_SHEET_MATERIAL
100
AcDbPolyline
90
2
66
1
70
0
10
988.1562208446094
20
2112.2599999999998
10
964.1365847414812
20
2116.8437175036293
0
LWPOLYLINE
5
c3
100
AcDbEntity
8
_ABF_SHEET_MATERIAL
100
AcDbPolyline
90
2
66
1
70
0
10
1025.7801241575653
20
2214.061648560557
10
1018.7852740282475
20
2229.1517713309627
0
LWPOLYLINE
5
c4
100
AcDbEntity
8
_ABF_SHEET_MATERIAL
100
AcDbPolyline
90
2
66
1
70
0
10
1018.7852740282475
20
2229.1517713309627
10
1003.7824200026456
20
2238.87280957885
0
LWPOLYLINE
5
c5
100
AcDbEntity
8
_ABF_SHEET_MATERIAL
100
AcDbPolyline
90
2
66
1
70
0
10
963.011733119348
20
2187.934793885569
10
1013.3043637717792
20
2170.524135812459
0
LWPOLYLINE
5
c6
100
AcDbEntity
8
_ABF_SHEET_MATERIAL
100
AcDbPolyline
90
2
66
1
70
0
10
1027.00967014013
20
2159.880669532201
10
1031.199209284613
20
2144.4908670942013
0
LWPOLYLINE
5
c7
100
AcDbEntity
8
_ABF_SHEET_MATERIAL
100
AcDbPolyline
90
2
66
1
70
0
10
948.9819700361813
20
2196.412662797773
10
963.011733119348
20
2187.934793885569
0
LWPOLYLINE
5
c8
100
AcDbEntity
8
_ABF_SHEET_MATERIAL
100
AcDbPolyline
90
2
66
1
70
0
10
1031.199209284613
20
2144.4908670942013
10
1026.2015018012323
20
2130.1657429165407
0
LWPOLYLINE
5
c9
100
AcDbEntity
8
_ABF_SHEET_MATERIAL
100
AcDbPolyline
90
2
66
1
70
0
10
1026.2015018012323
20
2130.1657429165407
10
1013.1454189685637
20
2118.65484500627
0
LWPOLYLINE
5
ca
100
AcDbEntity
8
_ABF_SHEET_MATERIAL
100
AcDbPolyline
90
2
66
1
70
0
10
1013.1454189685637
20
2118.65484500627
10
988.1562208446094
20
2112.2599999999998
0
LWPOLYLINE
5
cb
100
AcDbEntity
8
_ABF_SHEET_MATERIAL
100
AcDbPolyline
90
2
66
1
70
0
10
947.0496363579576
20
2130.1657429165407
10
940.0921827805255
20
2147.604866806961
0
LWPOLYLINE
5
cc
100
AcDbEntity
8
_ABF_SHEET_MATERIAL
100
AcDbPolyline
90
2
66
1
70
0
10
1052.653709088484
20
2240.1029182280645
10
1052.653709088484
20
2180.621862331644
0
LWPOLYLINE
5
cd
100
AcDbEntity
8
_ABF_SHEET_MATERIAL
100
AcDbPolyline
90
2
66
1
70
0
10
1144.9699999999998
20
2240.1029182280645
10
1144.9699999999998
20
2180.621862331644
0
LWPOLYLINE
5
ce
100
AcDbEntity
8
_ABF_SHEET_MATERIAL
100
AcDbPolyline
90
2
66
1
70
0
10
1052.653709088484
20
2180.621862331644
10
1052.653709088484
20
2112.2599999999998
0
LWPOLYLINE
5
cf
100
AcDbEntity
8
_ABF_SHEET_MATERIAL
100
AcDbPolyline
90
2
66
1
70
0
10
1052.653709088484
20
2180.621862331644
10
1144.9699999999998
20
2180.621862331644
0
LWPOLYLINE
5
d0
100
AcDbEntity
8
_ABF_SHEET_MATERIAL
100
AcDbPolyline
90
2
66
1
70
0
10
1144.9699999999998
20
2180.621862331644
10
1144.9699999999998
20
2112.2599999999998
0
ENDSEC
0
SECTION
2
OBJECTS
0
DICTIONARY
5
C
330
0
100
AcDbDictionary
281
1
3
ACAD_GROUP
350
D
0
DICTIONARY
5
D
330
C
100
AcDbDictionary
281
1
0
ENDSEC
0
EOF
