0
SECTION
2
HEADER
9
$ACADVER
1
AC1015
9
$HANDSEED
5
20000
0
ENDSEC
0
SECTION
2
CLASSES
0
ENDSEC
0
SECTION
2
TABLES
0
TABLE
2
VPORT
5
8
330
0
100
AcDbSymbolTable
70
1
0
VPORT
5
31
330
2
100
AcDbSymbolTableRecord
100
AcDbViewportTableRecord
2
*ACTIVE
70
0
10
0
20
0
11
1
21
1
12
209.475294253
22
86.0026335861
13
0
23
0
14
10
24
10
15
10
25
10
16
0
26
0
36
1
17
0
27
0
37
0
40
319.744231092
41
2.12946428571
42
50
43
0
44
0
50
0
51
0
71
0
72
100
73
1
74
3
75
0
76
0
77
0
78
0
281
0
65
1
110
0
120
0
130
0
111
1
121
0
131
0
112
0
122
1
132
0
79
0
146
0
348
10020
60
7
61
5
292
1
282
1
141
0
142
0
63
250
421
3358443
0
ENDTAB
0
TABLE
2
LTYPE
5
5
330
0
100
AcDbSymbolTable
70
4
0
LTYPE
5
14
330
5
100
AcDbSymbolTableRecord
100
AcDbLinetypeTableRecord
2
ByBlock
70
0
3

72
65
73
0
40
0
0
LTYPE
5
15
330
5
100
AcDbSymbolTableRecord
100
AcDbLinetypeTableRecord
2
ByLayer
70
0
3

72
65
73
0
40
0
0
LTYPE
5
16
330
5
100
AcDbSymbolTableRecord
100
AcDbLinetypeTableRecord
2
Continuous
70
0
3
Solid line
72
65
73
0
40
0
0
ENDTAB
0
TABLE
2
LAYER
5
2
330
0
100
AcDbSymbolTable
70
1
0
LAYER
5
10
330
2
100
AcDbSymbolTableRecord
100
AcDbLayerTableRecord
2
0
70
0
62
7
6
CONTINUOUS
370
-3
390
F
0
LAYER
5
b4
100
AcDbSymbolTableRecord
100
AcDbLayerTableRecord
2
_ABF_SHEET_ID
70
0
62
100
6
Continuous
390
13
0
LAYER
5
b5
100
AcDbSymbolTableRecord
100
AcDbLayerTableRecord
2
_ABF_SHEET_MATERIAL
70
0
62
1
6
Continuous
390
13
0
LAYER
5
b6
100
AcDbSymbolTableRecord
100
AcDbLayerTableRecord
2
_ABF_SHEET_BORDER
70
0
62
30
6
Continuous
390
13
0
LAYER
5
b7
100
AcDbSymbolTableRecord
100
AcDbLayerTableRecord
2
_ABF_CUTTING_LINES
70
0
62
54
6
Continuous
390
13
0
ENDTAB
0
TABLE
2
STYLE
5
3
330
0
100
AcDbSymbolTable
70
3
0
STYLE
5
45
330
2
100
AcDbSymbolTableRecord
100
AcDbTextStyleTableRecord
2
Standard
70
0
40
0
41
1
50
0
71
0
42
1
3
txt
4

0
ENDTAB
0
TABLE
2
VIEW
5
6
330
0
100
AcDbSymbolTable
70
0
0
ENDTAB
0
TABLE
2
UCS
5
7
330
0
100
AcDbSymbolTable
70
0
0
ENDTAB
0
TABLE
2
APPID
5
9
330
0
100
AcDbSymbolTable
70
1
0
APPID
5
12
330
9
100
AcDbSymbolTableRecord
100
AcDbRegAppTableRecord
2
ACAD
70
0
0
ENDTAB
0
TABLE
2
DIMSTYLE
5
A
330
0
100
AcDbSymbolTable
70
1
100
AcDbDimStyleTable
71
1
0
DIMSTYLE
105
46
330
A
100
AcDbSymbolTableRecord
100
AcDbDimStyleTableRecord
2
Standard
70
0
40
1
41
0.18
42
0.0625
43
0.38
44
0.18
45
0
46
0
47
0
48
0
140
0.18
141
0.09
142
0
143
25.4
144
1
145
0
146
1
147
0.09
148
0
71
0
72
0
73
0
74
1
75
0
76
0
77
0
78
0
79
0
170
0
171
2
172
0
173
0
174
0
175
0
176
0
177
0
178
0
179
0
271
4
272
4
273
2
274
2
275
0
276
0
277
2
278
46
279
0
280
0
281
0
282
0
283
1
284
0
285
0
286
0
288
0
289
3
340
Standard
341

371
-2
372
-2
0
ENDTAB
0
TABLE
2
BLOCK_RECORD
5
1
330
0
100
AcDbSymbolTable
70
2
0
BLOCK_RECORD
5
1F
330
1
100
AcDbSymbolTableRecord
100
AcDbBlockTableRecord
2
*Model_Space
70
0
280
1
281
0
0
BLOCK_RECORD
5
1E
330
1
100
AcDbSymbolTableRecord
100
AcDbBlockTableRecord
2
*Paper_Space
70
0
280
1
281
0
0
ENDTAB
0
ENDSEC
0
SECTION
2
BLOCKS
0
BLOCK
5
20
330
1F
100
AcDbEntity
8
0
100
AcDbBlockBegin
2
*Model_Space
70
0
10
0
20
0
30
0
3
*Model_Space
1

0
ENDBLK
5
21
330
1F
100
AcDbEntity
8
0
100
AcDbBlockEnd
0
BLOCK
5
1C
330
1B
100
AcDbEntity
8
0
100
AcDbBlockBegin
2
*Paper_Space
70
0
10
0
20
0
30
0
3
*Paper_Space
1

0
ENDBLK
5
1D
330
1E
100
AcDbEntity
8
0
100
AcDbBlockEnd
0
ENDSEC
0
SECTION
2
ENTITIES
0
LWPOLYLINE
5
65
100
AcDbEntity
8
_ABF_SHEET_BORDER
100
AcDbPolyline
90
5
66
1
70
1
10
0.0
20
0.0
10
1220.0
20
0.0
10
1220.0
20
2440.0
10
0.0
20
2440.0
10
0.0
20
0.0
0
LWPOLYLINE
5
66
100
AcDbEntity
8
_ABF_CUTTING_LINES
100
AcDbPolyline
90
5
66
1
70
1
10
1216.500000000003
20
2436.5
10
591.5000000000026
20
2436.4999999999995
10
591.5000000000039
20
236.4999999999971
10
1216.5000000000043
20
236.49999999999784
10
1216.500000000003
20
2436.5
0
LWPOLYLINE
5
67
100
AcDbEntity
8
_ABF_CUTTING_LINES
100
AcDbPolyline
90
5
66
1
70
1
10
545.0000000000025
20
236.4999999999971
10
585.0000000000044
20
236.4999999999971
10
585.0000000000024
20
2436.499999999999
10
545.0000000000005
20
2436.499999999999
10
545.0000000000025
20
236.4999999999971
0
LWPOLYLINE
5
68
100
AcDbEntity
8
_ABF_CUTTING_LINES
100
AcDbPolyline
90
5
66
1
70
1
10
498.5000000000034
20
1036.499999999995
10
538.5000000000055
20
1036.499999999995
10
538.5000000000041
20
2436.4999999999995
10
498.50000000000193
20
2436.4999999999995
10
498.5000000000034
20
1036.499999999995
0
LWPOLYLINE
5
69
100
AcDbEntity
8
_ABF_SHEET_ID
100
AcDbPolyline
90
2
66
1
70
0
10
523.0761598855257
20
1043.11371209383
10
492.4450569629669
20
1103.5626250123976
0
LWPOLYLINE
5
6a
100
AcDbEntity
8
_ABF_SHEET_ID
100
AcDbPolyline
90
2
66
1
70
0
10
607.0098436713218
20
1280.1029120540618
10
698.2507951378822
20
1240.2580648875235
0
LWPOLYLINE
5
6b
100
AcDbEntity
8
_ABF_SHEET_ID
100
AcDbPolyline
90
2
66
1
70
0
10
601.6757806301116
20
1014.2599999999999
10
698.2507951378822
20
1062.3449010705947
0
LWPOLYLINE
5
6c
100
AcDbEntity
8
_ABF_SHEET_ID
100
AcDbPolyline
90
2
66
1
70
0
10
601.6757806301116
20
1014.2599999999999
10
523.0761598855257
20
1043.11371209383
0
LWPOLYLINE
5
6d
100
AcDbEntity
8
_ABF_SHEET_ID
100
AcDbPolyline
90
2
66
1
70
0
10
711.5714891433715
20
1429.1640261030195
10
531.7334882378578
20
1429.1640261030195
0
LWPOLYLINE
5
6e
100
AcDbEntity
8
_ABF_SHEET_ID
100
AcDbPolyline
90
2
66
1
70
0
10
497.77421648353334
20
1240.2580648875235
10
607.0098436713218
20
1280.1029120540618
0
LWPOLYLINE
5
6f
100
AcDbEntity
8
_ABF_SHEET_ID
100
AcDbPolyline
90
2
66
1
70
0
10
727.554943037033
20
1153.0234004950523
10
698.2507951378822
20
1062.3449010705947
0
LWPOLYLINE
5
70
100
AcDbEntity
8
_ABF_SHEET_ID
100
AcDbPolyline
90
2
66
1
70
0
10
698.2507951378822
20
1240.2580648875235
10
727.554943037033
20
1153.0234004950523
0
LWPOLYLINE
5
71
100
AcDbEntity
8
_ABF_SHEET_ID
100
AcDbPolyline
90
2
66
1
70
0
10
531.7334882378578
20
1429.1640261030195
10
497.77421648353334
20
1240.2580648875235
0
LWPOLYLINE
5
72
100
AcDbEntity
8
_ABF_SHEET_MATERIAL
100
AcDbPolyline
90
2
66
1
70
0
10
251.23732713031777
20
2205.190676937103
10
241.57489608097083
20
2156.4942761278153
0
LWPOLYLINE
5
73
100
AcDbEntity
8
_ABF_SHEET_MATERIAL
100
AcDbPolyline
90
2
66
1
70
0
10
87.65219348239906
20
2197.734567127228
10
114.25216263103492
20
2197.734567127228
0
LWPOLYLINE
5
74
100
AcDbEntity
8
_ABF_SHEET_MATERIAL
100
AcDbPolyline
90
2
66
1
70
0
10
219.5126768426896
20
2127.8976628637315
10
180.82016213703162
20
2112.2599999999998
0
LWPOLYLINE
5
75
100
AcDbEntity
8
_ABF_SHEET_MATERIAL
100
AcDbPolyline
90
2
66
1
70
0
10
114.25216263103492
20
2197.734567127228
10
169.5801929311753
20
2197.734567127228
0
LWPOLYLINE
5
76
100
AcDbEntity
8
_ABF_SHEET_MATERIAL
100
AcDbPolyline
90
2
66
1
70
0
10
114.25216263103492
20
2112.2599999999998
10
180.82016213703162
20
2112.2599999999998
0
LWPOLYLINE
5
77
100
AcDbEntity
8
_ABF_SHEET_MATERIAL
100
AcDbPolyline
90
2
66
1
70
0
10
241.57489608097083
20
2156.4942761278153
10
219.5126768426896
20
2127.8976628637315
0
LWPOLYLINE
5
78
100
AcDbEntity
8
_ABF_SHEET_MATERIAL
100
AcDbPolyline
90
2
66
1
70
0
10
114.25216263103492
20
2287.8359957313537
10
114.25216263103492
20
2197.734567127228
0
LWPOLYLINE
5
79
100
AcDbEntity
8
_ABF_SHEET_MATERIAL
100
AcDbPolyline
90
2
66
1
70
0
10
205.38816350269323
20
2281.579994354248
10
237.38289178180702
20
2258.589634094238
0
LWPOLYLINE
5
7a
100
AcDbEntity
8
_ABF_SHEET_MATERIAL
100
AcDbPolyline
90
2
66
1
70
0
10
114.25216263103492
20
2287.8359957313537
10
172.78016112613685
20
2287.8359957313537
0
LWPOLYLINE
5
7b
100
AcDbEntity
8
_ABF_SHEET_MATERIAL
100
AcDbPolyline
90
2
66
1
70
0
10
114.25216263103492
20
2197.734567127228
10
114.25216263103492
20
2112.2599999999998
0
LWPOLYLINE
5
7c
100
AcDbEntity
8
_ABF_SHEET_MATERIAL
100
AcDbPolyline
90
2
66
1
70
0
10
172.78016112613685
20
2287.8359957313537
10
205.38816350269323
20
2281.579994354248
0
LWPOLYLINE
5
7d
100
AcDbEntity
8
_ABF_SHEET_MATERIAL
100
AcDbPolyline
90
2
66
1
70
0
10
237.38289178180702
20
2258.589634094238
10
251.23732713031777
20
2205.190676937103
0
LWPOLYLINE
5
7e
100
AcDbEntity
8
_ABF_SHEET_MATERIAL
100
AcDbPolyline
90
2
66
1
70
0
10
380.81886044788365
20
2130.0084654664993
10
386.06029197025305
20
2112.3729274620673
0
LWPOLYLINE
5
7f
100
AcDbEntity
8
_ABF_SHEET_MATERIAL
100
AcDbPolyline
90
2
66
1
70
0
10
290.6924485092164
20
2167.5662050819396
10
305.40953711318974
20
2177.7016026592255
0
LWPOLYLINE
5
80
100
AcDbEntity
8
_ABF_SHEET_MATERIAL
100
AcDbPolyline
90
2
66
1
70
0
10
318.3749490861893
20
2112.2599999999998
10
291.988448769331
20
2121.108390984535
0
LWPOLYLINE
5
81
100
AcDbEntity
8
_ABF_SHEET_MATERIAL
100
AcDbPolyline
90
2
66
1
70
0
10
346.20436717319495
20
2241.976634082794
10
369.39769469547275
20
2233.06615568161
0
LWPOLYLINE
5
82
100
AcDbEntity
8
_ABF_SHEET_MATERIAL
100
AcDbPolyline
90
2
66
1
70
0
10
348.70272485065465
20
2121.108390984535
10
380.81886044788365
20
2153.720699057579
0
LWPOLYLINE
5
83
100
AcDbEntity
8
_ABF_SHEET_MATERIAL
100
AcDbPolyline
90
2
66
1
70
0
10
294.64815727519994
20
2230.6501573181154
10
317.83636761951453
20
2241.976634082794
0
LWPOLYLINE
5
84
100
AcDbEntity
8
_ABF_SHEET_MATERIAL
100
AcDbPolyline
90
2
66
1
70
0
10
380.81886044788365
20
2153.720699057579
10
380.81886044788365
20
2130.0084654664993
0
LWPOLYLINE
5
85
100
AcDbEntity
8
_ABF_SHEET_MATERIAL
100
AcDbPolyline
90
2
66
1
70
0
10
285.17934555459027
20
2214.984471092224
10
294.64815727519994
20
2230.6501573181154
0
LWPOLYLINE
5
86
100
AcDbEntity
8
_ABF_SHEET_MATERIAL
100
AcDbPolyline
90
2
66
1
70
0
10
369.39769469547275
20
2233.06615568161
10
380.81886044788365
20
2214.984471092224
0
LWPOLYLINE
5
87
100
AcDbEntity
8
_ABF_SHEET_MATERIAL
100
AcDbPolyline
90
2
66
1
70
0
10
380.81886044788365
20
2214.984471092224
10
380.81886044788365
20
2189.4954745864866
0
LWPOLYLINE
5
88
100
AcDbEntity
8
_ABF_SHEET_MATERIAL
100
AcDbPolyline
90
2
66
1
70
0
10
291.988448769331
20
2121.108390984535
10
281.71732713031776
20
2143.080699286461
0
LWPOLYLINE
5
89
100
AcDbEntity
8
_ABF_SHEET_MATERIAL
100
AcDbPolyline
90
2
66
1
70
0
10
281.71732713031776
20
2143.080699286461
10
290.6924485092164
20
2167.5662050819396
0
LWPOLYLINE
5
8a
100
AcDbEntity
8
_ABF_SHEET_MATERIAL
100
AcDbPolyline
90
2
66
1
70
0
10
380.81886044788365
20
2189.4954745864866
10
380.81886044788365
20
2153.720699057579
0
LWPOLYLINE
5
8b
100
AcDbEntity
8
_ABF_SHEET_MATERIAL
100
AcDbPolyline
90
2
66
1
70
0
10
317.83636761951453
20
2241.976634082794
10
346.20436717319495
20
2241.976634082794
0
LWPOLYLINE
5
8c
100
AcDbEntity
8
_ABF_SHEET_MATERIAL
100
AcDbPolyline
90
2
66
1
70
0
10
305.40953711318974
20
2177.7016026592255
10
380.81886044788365
20
2189.4954745864866
0
LWPOLYLINE
5
8d
100
AcDbEntity
8
_ABF_SHEET_MATERIAL
100
AcDbPolyline
90
2
66
1
70
0
10
348.70272485065465
20
2121.108390984535
10
318.3749490861893
20
2112.2599999999998
0
LWPOLYLINE
5
8e
100
AcDbEntity
8
_ABF_SHEET_MATERIAL
100
AcDbPolyline
90
2
66
1
70
0
10
358.2527112131119
20
2317.43504901886
10
311.13320361423496
20
2293.1235242462158
0
LWPOLYLINE
5
8f
100
AcDbEntity
8
_ABF_SHEET_MATERIAL
100
AcDbPolyline
90
2
66
1
70
0
10
542.375330616951
20
2296.696670970917
10
542.375330616951
20
2112.2599999999998
0
LWPOLYLINE
5
90
100
AcDbEntity
8
_ABF_SHEET_MATERIAL
100
AcDbPolyline
90
2
66
1
70
0
10
520.9144645709991
20
2264.377592334747
10
491.72429197025303
20
2236.054393825531
0
LWPOLYLINE
5
91
100
AcDbEntity
8
_ABF_SHEET_MATERIAL
100
AcDbPolyline
90
2
66
1
70
0
10
542.375330616951
20
2296.696670970917
10
520.9144645709991
20
2264.377592334747
0
LWPOLYLINE
5
92
100
AcDbEntity
8
_ABF_SHEET_MATERIAL
100
AcDbPolyline
90
2
66
1
70
0
10
491.72429197025303
20
2112.2599999999998
10
542.375330616951
20
2112.2599999999998
0
LWPOLYLINE
5
93
100
AcDbEntity
8
_ABF_SHEET_MATERIAL
100
AcDbPolyline
90
2
66
1
70
0
10
542.375330616951
20
2112.2599999999998
10
593.1748461503983
20
2112.2599999999998
0
LWPOLYLINE
5
94
100
AcDbEntity
8
_ABF_SHEET_MATERIAL
100
AcDbPolyline
90
2
66
1
70
0
10
623.6548461503983
20
2112.2599999999998
10
721.2548480577469
20
2112.2599999999998
0
LWPOLYLINE
5
95
100
AcDbEntity
8
_ABF_SHEET_MATERIAL
100
AcDbPolyline
90
2
66
1
70
0
10
712.6146232671738
20
2214.9475668525697
10
638.2186798162461
20
2143.4249612188337
0
LWPOLYLINE
5
96
100
AcDbEntity
8
_ABF_SHEET_MATERIAL
100
AcDbPolyline
90
2
66
1
70
0
10
640.4375517673493
20
2281.0613244628908
10
627.1305798984766
20
2244.677704677582
0
LWPOLYLINE
5
97
100
AcDbEntity
8
_ABF_SHEET_MATERIAL
100
AcDbPolyline
90
2
66
1
70
0
10
638.2186798162461
20
2143.4249612188337
10
623.6548461503983
20
2112.2599999999998
0
LWPOLYLINE
5
98
100
AcDbEntity
8
_ABF_SHEET_MATERIAL
100
AcDbPolyline
90
2
66
1
70
0
10
712.6146232671738
20
2214.9475668525697
10
724.3638092107773
20
2251.415411148071
0
LWPOLYLINE
5
99
100
AcDbEntity
8
_ABF_SHEET_MATERIAL
100
AcDbPolyline
90
2
66
1
70
0
10
675.4736308641434
20
2294.199851474762
10
640.4375517673493
20
2281.0613244628908
0
LWPOLYLINE
5
9a
100
AcDbEntity
8
_ABF_SHEET_MATERIAL
100
AcDbPolyline
90
2
66
1
70
0
10
724.3638092107773
20
2251.415411148071
10
709.0779447622299
20
2281.819308719635
0
LWPOLYLINE
5
9b
100
AcDbEntity
8
_ABF_SHEET_MATERIAL
100
AcDbPolyline
90
2
66
1
70
0
10
709.0779447622299
20
2281.819308719635
10
675.4736308641434
20
2294.199851474762
0
LWPOLYLINE
5
9c
100
AcDbEntity
8
_ABF_SHEET_MATERIAL
100
AcDbPolyline
90
2
66
1
70
0
10
832.5347913618086
20
2233.660317573547
10
842.1291609163284
20
2201.283999214172
0
LWPOLYLINE
5
9d
100
AcDbEntity
8
_ABF_SHEET_MATERIAL
100
AcDbPolyline
90
2
66
1
70
0
10
754.8438092107773
20
2243.6919969177247
10
754.8438092107773
20
2208.083154211044
0
LWPOLYLINE
5
9e
100
AcDbEntity
8
_ABF_SHEET_MATERIAL
100
AcDbPolyline
90
2
66
1
70
0
10
842.1291609163284
20
2112.2599999999998
10
842.1291609163284
20
2201.283999214172
0
LWPOLYLINE
5
9f
100
AcDbEntity
8
_ABF_SHEET_MATERIAL
100
AcDbPolyline
90
2
66
1
70
0
10
808.5793495054245
20
2243.3688698387145
10
784.6257546777725
20
2237.8683213806153
0
LWPOLYLINE
5
a0
100
AcDbEntity
8
_ABF_SHEET_MATERIAL
100
AcDbPolyline
90
2
66
1
70
0
10
928.355807864189
20
2112.2599999999998
10
928.355807864189
20
2201.283999214172
0
LWPOLYLINE
5
a1
100
AcDbEntity
8
_ABF_SHEET_MATERIAL
100
AcDbPolyline
90
2
66
1
70
0
10
754.8438092107773
20
2208.083154211044
10
784.6257546777725
20
2237.8683213806153
0
LWPOLYLINE
5
a2
100
AcDbEntity
8
_ABF_SHEET_MATERIAL
100
AcDbPolyline
90
2
66
1
70
0
10
754.8438092107773
20
2208.083154211044
10
754.8438092107773
20
2112.2599999999998
0
LWPOLYLINE
5
a3
100
AcDbEntity
8
_ABF_SHEET_MATERIAL
100
AcDbPolyline
90
2
66
1
70
0
10
890.482186972618
20
2243.3688940620423
10
919.6156557912825
20
2233.660317573547
0
LWPOLYLINE
5
a4
100
AcDbEntity
8
_ABF_SHEET_MATERIAL
100
AcDbPolyline
90
2
66
1
70
0
10
919.6156557912825
20
2233.660317573547
10
928.355807864189
20
2201.283999214172
0
LWPOLYLINE
5
a5
100
AcDbEntity
8
_ABF_SHEET_MATERIAL
100
AcDbPolyline
90
2
66
1
70
0
10
865.2333526487349
20
2233.944202861786
10
890.482186972618
20
2243.3688940620423
0
LWPOLYLINE
5
a6
100
AcDbEntity
8
_ABF_SHEET_MATERIAL
100
AcDbPolyline
90
2
66
1
70
0
10
832.5347913618086
20
2233.660317573547
10
808.5793495054245
20
2243.3688698387145
0
LWPOLYLINE
5
a7
100
AcDbEntity
8
_ABF_SHEET_MATERIAL
100
AcDbPolyline
90
2
66
1
70
0
10
842.1291609163284
20
2201.283999214172
10
865.2333526487349
20
2233.944202861786
0
LWPOLYLINE
5
a8
100
AcDbEntity
8
_ABF_SHEET_MATERIAL
100
AcDbPolyline
90
2
66
1
70
0
10
1036.5267900152205
20
2233.660317573547
10
1046.1211595697403
20
2201.283999214172
0
LWPOLYLINE
5
a9
100
AcDbEntity
8
_ABF_SHEET_MATERIAL
100
AcDbPolyline
90
2
66
1
70
0
10
958.8358078641891
20
2243.6919969177247
10
958.8358078641891
20
2208.083154211044
0
LWPOLYLINE
5
aa
100
AcDbEntity
8
_ABF_SHEET_MATERIAL
100
AcDbPolyline
90
2
66
1
70
0
10
1046.1211595697403
20
2112.2599999999998
10
1046.1211595697403
20
2201.283999214172
0
LWPOLYLINE
5
ab
100
AcDbEntity
8
_ABF_SHEET_MATERIAL
100
AcDbPolyline
90
2
66
1
70
0
10
1012.5713481588364
20
2243.3688698387145
10
988.6177533311843
20
2237.8683213806153
0
LWPOLYLINE
5
ac
100
AcDbEntity
8
_ABF_SHEET_MATERIAL
100
AcDbPolyline
90
2
66
1
70
0
10
1132.347806517601
20
2112.2599999999998
10
1132.347806517601
20
2201.283999214172
0
LWPOLYLINE
5
ad
100
AcDbEntity
8
_ABF_SHEET_MATERIAL
100
AcDbPolyline
90
2
66
1
70
0
10
958.8358078641891
20
2208.083154211044
10
988.6177533311843
20
2237.8683213806153
0
LWPOLYLINE
5
ae
100
AcDbEntity
8
_ABF_SHEET_MATERIAL
100
AcDbPolyline
90
2
66
1
70
0
10
958.8358078641891
20
2208.083154211044
10
958.8358078641891
20
2112.2599999999998
0
LWPOLYLINE
5
af
100
AcDbEntity
8
_ABF_SHEET_MATERIAL
100
AcDbPolyline
90
2
66
1
70
0
10
1094.47418562603
20
2243.3688940620423
10
1123.6076544446944
20
2233.660317573547
0
LWPOLYLINE
5
b0
100
AcDbEntity
8
_ABF_SHEET_MATERIAL
100
AcDbPolyline
90
2
66
1
70
0
10
1123.6076544446944
20
2233.660317573547
10
1132.347806517601
20
2201.283999214172
0
LWPOLYLINE
5
b1
100
AcDbEntity
8
_ABF_SHEET_MATERIAL
100
AcDbPolyline
90
2
66
1
70
0
10
1069.225351302147
20
2233.944202861786
10
1094.47418562603
20
2243.3688940620423
0
LWPOLYLINE
5
b2
100
AcDbEntity
8
_ABF_SHEET_MATERIAL
100
AcDbPolyline
90
2
66
1
70
0
10
1036.5267900152205
20
2233.660317573547
10
1012.5713481588364
20
2243.3688698387145
0
LWPOLYLINE
5
b3
100
AcDbEntity
8
_ABF_SHEET_MATERIAL
100
AcDbPolyline
90
2
66
1
70
0
10
1046.1211595697403
20
2201.283999214172
10
1069.225351302147
20
2233.944202861786
0
ENDSEC
0
SECTION
2
OBJECTS
0
DICTIONARY
5
C
330
0
100
AcDbDictionary
281
1
3
ACAD_GROUP
350
D
0
DICTIONARY
5
D
330
C
100
AcDbDictionary
281
1
0
ENDSEC
0
EOF
