0
SECTION
2
HEADER
9
$ACADVER
1
AC1015
9
$HANDSEED
5
20000
0
ENDSEC
0
SECTION
2
CLASSES
0
ENDSEC
0
SECTION
2
TABLES
0
TABLE
2
VPORT
5
8
330
0
100
AcDbSymbolTable
70
1
0
VPORT
5
31
330
2
100
AcDbSymbolTableRecord
100
AcDbViewportTableRecord
2
*ACTIVE
70
0
10
0
20
0
11
1
21
1
12
209.475294253
22
86.0026335861
13
0
23
0
14
10
24
10
15
10
25
10
16
0
26
0
36
1
17
0
27
0
37
0
40
319.744231092
41
2.12946428571
42
50
43
0
44
0
50
0
51
0
71
0
72
100
73
1
74
3
75
0
76
0
77
0
78
0
281
0
65
1
110
0
120
0
130
0
111
1
121
0
131
0
112
0
122
1
132
0
79
0
146
0
348
10020
60
7
61
5
292
1
282
1
141
0
142
0
63
250
421
3358443
0
ENDTAB
0
TABLE
2
LTYPE
5
5
330
0
100
AcDbSymbolTable
70
4
0
LTYPE
5
14
330
5
100
AcDbSymbolTableRecord
100
AcDbLinetypeTableRecord
2
ByBlock
70
0
3

72
65
73
0
40
0
0
LTYPE
5
15
330
5
100
AcDbSymbolTableRecord
100
AcDbLinetypeTableRecord
2
ByLayer
70
0
3

72
65
73
0
40
0
0
LTYPE
5
16
330
5
100
AcDbSymbolTableRecord
100
AcDbLinetypeTableRecord
2
Continuous
70
0
3
Solid line
72
65
73
0
40
0
0
ENDTAB
0
TABLE
2
LAYER
5
2
330
0
100
AcDbSymbolTable
70
1
0
LAYER
5
10
330
2
100
AcDbSymbolTableRecord
100
AcDbLayerTableRecord
2
0
70
0
62
7
6
CONTINUOUS
370
-3
390
F
0
LAYER
5
fa
100
AcDbSymbolTableRecord
100
AcDbLayerTableRecord
2
_ABF_SHEET_ID
70
0
62
100
6
Continuous
390
13
0
LAYER
5
fb
100
AcDbSymbolTableRecord
100
AcDbLayerTableRecord
2
_ABF_SHEET_MATERIAL
70
0
62
1
6
Continuous
390
13
0
LAYER
5
fc
100
AcDbSymbolTableRecord
100
AcDbLayerTableRecord
2
_ABF_SHEET_BORDER
70
0
62
30
6
Continuous
390
13
0
LAYER
5
fd
100
AcDbSymbolTableRecord
100
AcDbLayerTableRecord
2
_ABF_CUTTING_LINES
70
0
62
54
6
Continuous
390
13
0
LAYER
5
fe
100
AcDbSymbolTableRecord
100
AcDbLayerTableRecord
2
ABF_D3
70
0
62
190
6
Continuous
390
13
0
LAYER
5
ff
100
AcDbSymbolTableRecord
100
AcDbLayerTableRecord
2
ABF_DSIDE_8
70
0
62
190
6
Continuous
390
13
0
LAYER
5
100
100
AcDbSymbolTableRecord
100
AcDbLayerTableRecord
2
BAO_HAU_AM_8.5MM
70
0
62
1
6
Continuous
390
13
0
ENDTAB
0
TABLE
2
STYLE
5
3
330
0
100
AcDbSymbolTable
70
3
0
STYLE
5
45
330
2
100
AcDbSymbolTableRecord
100
AcDbTextStyleTableRecord
2
Standard
70
0
40
0
41
1
50
0
71
0
42
1
3
txt
4

0
ENDTAB
0
TABLE
2
VIEW
5
6
330
0
100
AcDbSymbolTable
70
0
0
ENDTAB
0
TABLE
2
UCS
5
7
330
0
100
AcDbSymbolTable
70
0
0
ENDTAB
0
TABLE
2
APPID
5
9
330
0
100
AcDbSymbolTable
70
1
0
APPID
5
12
330
9
100
AcDbSymbolTableRecord
100
AcDbRegAppTableRecord
2
ACAD
70
0
0
ENDTAB
0
TABLE
2
DIMSTYLE
5
A
330
0
100
AcDbSymbolTable
70
1
100
AcDbDimStyleTable
71
1
0
DIMSTYLE
105
46
330
A
100
AcDbSymbolTableRecord
100
AcDbDimStyleTableRecord
2
Standard
70
0
40
1
41
0.18
42
0.0625
43
0.38
44
0.18
45
0
46
0
47
0
48
0
140
0.18
141
0.09
142
0
143
25.4
144
1
145
0
146
1
147
0.09
148
0
71
0
72
0
73
0
74
1
75
0
76
0
77
0
78
0
79
0
170
0
171
2
172
0
173
0
174
0
175
0
176
0
177
0
178
0
179
0
271
4
272
4
273
2
274
2
275
0
276
0
277
2
278
46
279
0
280
0
281
0
282
0
283
1
284
0
285
0
286
0
288
0
289
3
340
Standard
341

371
-2
372
-2
0
ENDTAB
0
TABLE
2
BLOCK_RECORD
5
1
330
0
100
AcDbSymbolTable
70
2
0
BLOCK_RECORD
5
1F
330
1
100
AcDbSymbolTableRecord
100
AcDbBlockTableRecord
2
*Model_Space
70
0
280
1
281
0
0
BLOCK_RECORD
5
1E
330
1
100
AcDbSymbolTableRecord
100
AcDbBlockTableRecord
2
*Paper_Space
70
0
280
1
281
0
0
ENDTAB
0
ENDSEC
0
SECTION
2
BLOCKS
0
BLOCK
5
20
330
1F
100
AcDbEntity
8
0
100
AcDbBlockBegin
2
*Model_Space
70
0
10
0
20
0
30
0
3
*Model_Space
1

0
ENDBLK
5
21
330
1F
100
AcDbEntity
8
0
100
AcDbBlockEnd
0
BLOCK
5
1C
330
1B
100
AcDbEntity
8
0
100
AcDbBlockBegin
2
*Paper_Space
70
0
10
0
20
0
30
0
3
*Paper_Space
1

0
ENDBLK
5
1D
330
1E
100
AcDbEntity
8
0
100
AcDbBlockEnd
0
ENDSEC
0
SECTION
2
ENTITIES
0
LWPOLYLINE
5
65
100
AcDbEntity
8
_ABF_SHEET_BORDER
100
AcDbPolyline
90
5
66
1
70
1
10
0.0
20
0.0
10
1220.0
20
0.0
10
1220.0
20
2440.0
10
0.0
20
2440.0
10
0.0
20
0.0
0
LWPOLYLINE
5
66
100
AcDbEntity
8
_ABF_CUTTING_LINES
100
AcDbPolyline
90
5
66
1
70
1
10
1216.4999999999532
20
2436.4999999999995
10
618.4999999999532
20
2436.4999999999995
10
618.499999999954
20
1470.5
10
1216.4999999999536
20
1470.5000000000005
10
1216.4999999999532
20
2436.4999999999995
0
LWPOLYLINE
5
67
100
AcDbEntity
8
ABF_DSIDE_8
100
AcDbPolyline
90
5
66
1
70
1
10
1163.4999999999536
20
1470.5000000000002
10
1163.4999999999536
20
1504.5
10
1171.4999999999536
20
1504.5
10
1171.4999999999536
20
1470.5000000000002
10
1163.4999999999536
20
1470.5000000000002
0
LWPOLYLINE
5
68
100
AcDbEntity
8
ABF_DSIDE_8
100
AcDbPolyline
90
5
66
1
70
1
10
671.499999999953
20
2436.499999999999
10
671.499999999953
20
2402.4999999999995
10
663.499999999953
20
2402.4999999999995
10
663.499999999953
20
2436.499999999999
10
671.499999999953
20
2436.499999999999
0
LWPOLYLINE
5
69
100
AcDbEntity
8
ABF_DSIDE_8
100
AcDbPolyline
90
5
66
1
70
1
10
1163.499999999953
20
2436.4999999999995
10
1163.499999999953
20
2402.4999999999995
10
1171.499999999953
20
2402.4999999999995
10
1171.499999999953
20
2436.4999999999995
10
1163.499999999953
20
2436.4999999999995
0
LWPOLYLINE
5
6a
100
AcDbEntity
8
ABF_DSIDE_8
100
AcDbPolyline
90
5
66
1
70
1
10
671.4999999999536
20
1470.4999999999998
10
671.4999999999536
20
1504.4999999999995
10
663.4999999999536
20
1504.4999999999995
10
663.4999999999536
20
1470.4999999999998
10
671.4999999999536
20
1470.4999999999998
0
LWPOLYLINE
5
6b
100
AcDbEntity
8
ABF_DSIDE_8
100
AcDbPolyline
90
5
66
1
70
1
10
921.4999999999536
20
1470.5
10
921.4999999999536
20
1504.4999999999998
10
913.4999999999536
20
1504.4999999999998
10
913.4999999999536
20
1470.5
10
921.4999999999536
20
1470.5
0
LWPOLYLINE
5
6c
100
AcDbEntity
8
ABF_DSIDE_8
100
AcDbPolyline
90
5
66
1
70
1
10
913.499999999953
20
2436.4999999999995
10
913.499999999953
20
2402.4999999999995
10
921.499999999953
20
2402.4999999999995
10
921.499999999953
20
2436.4999999999995
10
913.499999999953
20
2436.4999999999995
0
LWPOLYLINE
5
6d
100
AcDbEntity
8
BAO_HAU_AM_8.5MM
100
AcDbPolyline
90
4
66
1
70
1
10
643.4999999999536
20
1470.4999999999998
10
643.499999999953
20
2436.499999999999
10
634.4999999999532
20
2436.499999999999
10
634.4999999999537
20
1470.4999999999998
0
LWPOLYLINE
5
6e
100
AcDbEntity
8
ABF_DSIDE_8
100
AcDbPolyline
90
5
66
1
70
1
10
1163.4999999999536
20
1470.5000000000002
10
1163.4999999999536
20
1504.5000000000005
10
1171.4999999999536
20
1504.5000000000005
10
1171.4999999999536
20
1470.5000000000002
10
1163.4999999999536
20
1470.5000000000002
0
LWPOLYLINE
5
6f
100
AcDbEntity
8
ABF_DSIDE_8
100
AcDbPolyline
90
5
66
1
70
1
10
671.4999999999536
20
1470.4999999999998
10
671.4999999999536
20
1504.5
10
663.4999999999536
20
1504.5
10
663.4999999999536
20
1470.4999999999998
10
671.4999999999536
20
1470.4999999999998
0
LWPOLYLINE
5
70
100
AcDbEntity
8
ABF_DSIDE_8
100
AcDbPolyline
90
5
66
1
70
1
10
1163.499999999953
20
2436.5
10
1163.499999999953
20
2402.4999999999995
10
1171.499999999953
20
2402.4999999999995
10
1171.499999999953
20
2436.5
10
1163.499999999953
20
2436.5
0
LWPOLYLINE
5
71
100
AcDbEntity
8
ABF_DSIDE_8
100
AcDbPolyline
90
5
66
1
70
1
10
671.499999999953
20
2436.4999999999995
10
671.499999999953
20
2402.4999999999995
10
663.499999999953
20
2402.4999999999995
10
663.499999999953
20
2436.4999999999995
10
671.499999999953
20
2436.4999999999995
0
LWPOLYLINE
5
72
100
AcDbEntity
8
ABF_DSIDE_8
100
AcDbPolyline
90
5
66
1
70
1
10
921.4999999999536
20
1470.5
10
921.4999999999536
20
1504.5000000000002
10
913.4999999999536
20
1504.5000000000002
10
913.4999999999536
20
1470.5
10
921.4999999999536
20
1470.5
0
LWPOLYLINE
5
73
100
AcDbEntity
8
ABF_DSIDE_8
100
AcDbPolyline
90
5
66
1
70
1
10
913.499999999953
20
2436.4999999999995
10
913.499999999953
20
2402.4999999999995
10
921.499999999953
20
2402.4999999999995
10
921.499999999953
20
2436.4999999999995
10
913.499999999953
20
2436.4999999999995
0
LWPOLYLINE
5
74
100
AcDbEntity
8
_ABF_CUTTING_LINES
100
AcDbPolyline
90
7
66
1
70
1
10
1200.4999999999493
20
777.9999999999999
10
1200.4999999999493
20
846.9999999999998
10
1216.4999999999486
20
846.9999999999998
10
1216.4999999999486
20
1463.9999999999998
10
618.4999999999488
20
1463.9999999999993
10
618.4999999999488
20
777.9999999999994
10
1200.4999999999493
20
777.9999999999999
0
CIRCLE
5
75
100
AcDbEntity
8
ABF_D3
100
AcDbCircle
10
1167.4999999999495
20
1456.4999999999998
40
1.5000000000002003
0
CIRCLE
5
76
100
AcDbEntity
8
ABF_D3
100
AcDbCircle
10
667.4999999999493
20
1456.4999999999993
40
1.5000000000001101
0
CIRCLE
5
77
100
AcDbEntity
8
ABF_D3
100
AcDbCircle
10
917.4999999999491
20
1456.4999999999993
40
1.4999999999998392
0
CIRCLE
5
78
100
AcDbEntity
8
ABF_D3
100
AcDbCircle
10
1164.99999999995
20
826.9999999999816
40
1.5000000000002003
0
CIRCLE
5
79
100
AcDbEntity
8
ABF_D3
100
AcDbCircle
10
1164.9999999999498
20
808.9999999999816
40
1.5000000000000198
0
CIRCLE
5
7a
100
AcDbEntity
8
ABF_D3
100
AcDbCircle
10
625.9999999999499
20
811.9999999999993
40
1.5000000000000198
0
LWPOLYLINE
5
7b
100
AcDbEntity
8
BAO_HAU_AM_8.5MM
100
AcDbPolyline
90
4
66
1
70
1
10
643.4999999999493
20
1455.999999999999
10
634.4999999999494
20
1455.999999999999
10
634.4999999999499
20
776.9999999999993
10
643.4999999999499
20
776.9999999999993
0
CIRCLE
5
7c
100
AcDbEntity
8
ABF_D3
100
AcDbCircle
10
1180.4999999999495
20
946.0000000000018
40
1.5000000000000198
0
CIRCLE
5
7d
100
AcDbEntity
8
ABF_D3
100
AcDbCircle
10
1180.4999999999495
20
914.0000000000018
40
1.4999999999998392
0
CIRCLE
5
7e
100
AcDbEntity
8
ABF_D3
100
AcDbCircle
10
1180.499999999949
20
1349.0
40
1.4999999999998392
0
CIRCLE
5
7f
100
AcDbEntity
8
ABF_D3
100
AcDbCircle
10
1180.4999999999493
20
1381.0000000000002
40
1.5000000000002003
0
CIRCLE
5
80
100
AcDbEntity
8
ABF_D3
100
AcDbCircle
10
667.4999999999493
20
1456.4999999999993
40
1.5000000000001101
0
CIRCLE
5
81
100
AcDbEntity
8
ABF_D3
100
AcDbCircle
10
1167.4999999999495
20
1456.4999999999998
40
1.5000000000002003
0
CIRCLE
5
82
100
AcDbEntity
8
ABF_D3
100
AcDbCircle
10
917.4999999999491
20
1456.4999999999993
40
1.4999999999998392
0
CIRCLE
5
83
100
AcDbEntity
8
ABF_D3
100
AcDbCircle
10
625.9999999999499
20
811.9999999999994
40
1.5000000000000198
0
LWPOLYLINE
5
84
100
AcDbEntity
8
_ABF_CUTTING_LINES
100
AcDbPolyline
90
7
66
1
70
1
10
618.499999999943
20
771.4999999999998
10
618.499999999943
20
154.49999999999977
10
634.4999999999424
20
154.49999999999977
10
634.4999999999424
20
85.49999999999987
10
1216.4999999999427
20
85.50000000000031
10
1216.4999999999427
20
771.5000000000002
10
618.499999999943
20
771.4999999999998
0
CIRCLE
5
85
100
AcDbEntity
8
ABF_D3
100
AcDbCircle
10
1167.4999999999445
20
764.0000000000002
40
1.4999999999998392
0
CIRCLE
5
86
100
AcDbEntity
8
ABF_D3
100
AcDbCircle
10
667.4999999999447
20
763.9999999999999
40
1.5000000000000198
0
CIRCLE
5
87
100
AcDbEntity
8
ABF_D3
100
AcDbCircle
10
917.4999999999447
20
764.0
40
1.5000000000000198
0
CIRCLE
5
88
100
AcDbEntity
8
ABF_D3
100
AcDbCircle
10
669.9999999999453
20
134.49999999998153
40
1.5000000000000198
0
CIRCLE
5
89
100
AcDbEntity
8
ABF_D3
100
AcDbCircle
10
669.9999999999453
20
116.49999999998155
40
1.5000000000000198
0
CIRCLE
5
8a
100
AcDbEntity
8
ABF_D3
100
AcDbCircle
10
1208.9999999999452
20
119.50000000000017
40
1.5000000000000198
0
LWPOLYLINE
5
8b
100
AcDbEntity
8
BAO_HAU_AM_8.5MM
100
AcDbPolyline
90
4
66
1
70
1
10
1191.4999999999447
20
763.5
10
1191.4999999999452
20
84.50000000000018
10
1200.4999999999452
20
84.50000000000018
10
1200.4999999999445
20
763.5
0
CIRCLE
5
8c
100
AcDbEntity
8
ABF_D3
100
AcDbCircle
10
654.4999999999452
20
253.50000000000196
40
1.5000000000000198
0
CIRCLE
5
8d
100
AcDbEntity
8
ABF_D3
100
AcDbCircle
10
654.4999999999452
20
221.50000000000202
40
1.5000000000000198
0
CIRCLE
5
8e
100
AcDbEntity
8
ABF_D3
100
AcDbCircle
10
654.4999999999449
20
656.5000000000001
40
1.5000000000000198
0
CIRCLE
5
8f
100
AcDbEntity
8
ABF_D3
100
AcDbCircle
10
654.4999999999449
20
688.5000000000001
40
1.5000000000000198
0
CIRCLE
5
90
100
AcDbEntity
8
ABF_D3
100
AcDbCircle
10
1167.4999999999445
20
764.0000000000001
40
1.4999999999998392
0
CIRCLE
5
91
100
AcDbEntity
8
ABF_D3
100
AcDbCircle
10
667.4999999999447
20
763.9999999999998
40
1.5000000000000198
0
CIRCLE
5
92
100
AcDbEntity
8
ABF_D3
100
AcDbCircle
10
917.4999999999447
20
764.0
40
1.5000000000000198
0
CIRCLE
5
93
100
AcDbEntity
8
ABF_D3
100
AcDbCircle
10
1208.9999999999452
20
119.50000000000017
40
1.5000000000000198
0
LWPOLYLINE
5
94
100
AcDbEntity
8
_ABF_CUTTING_LINES
100
AcDbPolyline
90
7
66
1
70
1
10
595.9999999999468
20
1750.4999999999995
10
595.9999999999468
20
1819.4999999999995
10
611.9999999999475
20
1819.4999999999995
10
611.9999999999475
20
2436.4999999999995
10
13.999999999947725
20
2436.4999999999986
10
13.999999999947725
20
1750.4999999999989
10
595.9999999999468
20
1750.4999999999995
0
CIRCLE
5
95
100
AcDbEntity
8
ABF_D3
100
AcDbCircle
10
560.4999999999477
20
1799.4999999999814
40
1.4999999999999296
0
CIRCLE
5
96
100
AcDbEntity
8
ABF_D3
100
AcDbCircle
10
560.4999999999478
20
1781.4999999999811
40
1.4999999999999296
0
LWPOLYLINE
5
97
100
AcDbEntity
8
BAO_HAU_AM_8.5MM
100
AcDbPolyline
90
4
66
1
70
1
10
38.999999999947455
20
2428.4999999999986
10
29.999999999947516
20
2428.4999999999986
10
29.99999999994806
20
1749.4999999999989
10
38.999999999947995
20
1749.4999999999989
0
CIRCLE
5
98
100
AcDbEntity
8
ABF_D3
100
AcDbCircle
10
562.9999999999472
20
2428.999999999999
40
1.4999999999998392
0
CIRCLE
5
99
100
AcDbEntity
8
ABF_D3
100
AcDbCircle
10
62.999999999947455
20
2428.999999999999
40
1.5000000000000762
0
CIRCLE
5
9a
100
AcDbEntity
8
ABF_D3
100
AcDbCircle
10
312.99999999994725
20
2428.999999999999
40
1.4999999999998845
0
CIRCLE
5
9b
100
AcDbEntity
8
ABF_D3
100
AcDbCircle
10
21.499999999948056
20
1784.499999999999
40
1.5000000000000706
0
LWPOLYLINE
5
9c
100
AcDbEntity
8
_ABF_CUTTING_LINES
100
AcDbPolyline
90
7
66
1
70
1
10
595.9999999999425
20
1057.9999999999995
10
595.9999999999425
20
1126.9999999999995
10
611.9999999999417
20
1126.9999999999995
10
611.9999999999417
20
1743.9999999999998
10
13.99999999994195
20
1743.9999999999989
10
13.99999999994195
20
1057.999999999999
10
595.9999999999425
20
1057.9999999999995
0
CIRCLE
5
9d
100
AcDbEntity
8
ABF_D3
100
AcDbCircle
10
562.999999999942
20
1736.4999999999993
40
1.4999999999998392
0
CIRCLE
5
9e
100
AcDbEntity
8
ABF_D3
100
AcDbCircle
10
62.99999999994222
20
1736.4999999999993
40
1.5000000000000762
0
CIRCLE
5
9f
100
AcDbEntity
8
ABF_D3
100
AcDbCircle
10
312.999999999942
20
1736.4999999999993
40
1.4999999999998845
0
CIRCLE
5
a0
100
AcDbEntity
8
ABF_D3
100
AcDbCircle
10
560.4999999999425
20
1106.9999999999811
40
1.4999999999999296
0
CIRCLE
5
a1
100
AcDbEntity
8
ABF_D3
100
AcDbCircle
10
560.4999999999426
20
1088.9999999999811
40
1.4999999999999296
0
CIRCLE
5
a2
100
AcDbEntity
8
ABF_D3
100
AcDbCircle
10
21.499999999942666
20
1091.9999999999989
40
1.4999999999999154
0
LWPOLYLINE
5
a3
100
AcDbEntity
8
BAO_HAU_AM_8.5MM
100
AcDbPolyline
90
4
66
1
70
1
10
38.99999999994222
20
1735.9999999999986
10
29.999999999942283
20
1735.9999999999986
10
29.999999999942823
20
1056.9999999999989
10
38.99999999994276
20
1056.9999999999989
0
CIRCLE
5
a4
100
AcDbEntity
8
ABF_D3
100
AcDbCircle
10
562.999999999942
20
1736.4999999999993
40
1.4999999999998392
0
CIRCLE
5
a5
100
AcDbEntity
8
ABF_D3
100
AcDbCircle
10
62.99999999994222
20
1736.4999999999993
40
1.5000000000000762
0
CIRCLE
5
a6
100
AcDbEntity
8
ABF_D3
100
AcDbCircle
10
312.999999999942
20
1736.4999999999993
40
1.4999999999998845
0
CIRCLE
5
a7
100
AcDbEntity
8
ABF_D3
100
AcDbCircle
10
21.499999999942666
20
1091.9999999999989
40
1.4999999999999154
0
LWPOLYLINE
5
a8
100
AcDbEntity
8
_ABF_CUTTING_LINES
100
AcDbPolyline
90
7
66
1
70
1
10
13.999999999950614
20
1051.4999999999989
10
13.999999999950614
20
434.4999999999989
10
29.999999999951307
20
434.4999999999989
10
29.999999999951307
20
365.499999999999
10
611.9999999999503
20
365.49999999999943
10
611.9999999999503
20
1051.4999999999993
10
13.999999999950614
20
1051.4999999999989
0
CIRCLE
5
a9
100
AcDbEntity
8
ABF_D3
100
AcDbCircle
10
65.4999999999512
20
414.4999999999806
40
1.5000000000000424
0
CIRCLE
5
aa
100
AcDbEntity
8
ABF_D3
100
AcDbCircle
10
65.49999999995119
20
396.4999999999807
40
1.5000000000000198
0
LWPOLYLINE
5
ab
100
AcDbEntity
8
BAO_HAU_AM_8.5MM
100
AcDbPolyline
90
4
66
1
70
1
10
586.9999999999505
20
1043.499999999999
10
586.9999999999511
20
364.4999999999993
10
595.9999999999511
20
364.4999999999993
10
595.9999999999505
20
1043.499999999999
0
CIRCLE
5
ac
100
AcDbEntity
8
ABF_D3
100
AcDbCircle
10
49.99999999995106
20
533.500000000001
40
1.5000000000000424
0
CIRCLE
5
ad
100
AcDbEntity
8
ABF_D3
100
AcDbCircle
10
49.99999999995108
20
501.5000000000011
40
1.5000000000000424
0
CIRCLE
5
ae
100
AcDbEntity
8
ABF_D3
100
AcDbCircle
10
49.99999999995078
20
936.4999999999992
40
1.5000000000000706
0
CIRCLE
5
af
100
AcDbEntity
8
ABF_D3
100
AcDbCircle
10
49.999999999950596
20
968.4999999999992
40
1.4999999999999127
0
CIRCLE
5
b0
100
AcDbEntity
8
ABF_D3
100
AcDbCircle
10
62.9999999999507
20
1043.999999999999
40
1.5000000000000648
0
CIRCLE
5
b1
100
AcDbEntity
8
ABF_D3
100
AcDbCircle
10
562.9999999999508
20
1043.9999999999993
40
1.5000000000001101
0
CIRCLE
5
b2
100
AcDbEntity
8
ABF_D3
100
AcDbCircle
10
312.9999999999506
20
1043.999999999999
40
1.4999999999999747
0
CIRCLE
5
b3
100
AcDbEntity
8
ABF_D3
100
AcDbCircle
10
604.499999999951
20
399.4999999999993
40
1.4999999999999296
0
LWPOLYLINE
5
b4
100
AcDbEntity
8
_ABF_SHEET_ID
100
AcDbPolyline
90
2
66
1
70
0
10
609.832963502407
20
1429.2425096845625
10
609.832963502407
20
1014.2599999999999
0
LWPOLYLINE
5
b5
100
AcDbEntity
8
_ABF_SHEET_ID
100
AcDbPolyline
90
2
66
1
70
0
10
561.5460148990154
20
1356.5245827531814
10
495.86812654733654
20
1292.7973861074447
0
LWPOLYLINE
5
b6
100
AcDbEntity
8
_ABF_SHEET_ID
100
AcDbPolyline
90
2
66
1
70
0
10
609.832963502407
20
1429.2425096845625
10
561.5460148990154
20
1356.5245827531814
0
LWPOLYLINE
5
b7
100
AcDbEntity
8
_ABF_SHEET_ID
100
AcDbPolyline
90
2
66
1
70
0
10
495.86812654733654
20
1014.2599999999999
10
609.832963502407
20
1014.2599999999999
0
LWPOLYLINE
5
b8
100
AcDbEntity
8
_ABF_SHEET_ID
100
AcDbPolyline
90
2
66
1
70
0
10
609.832963502407
20
1014.2599999999999
10
724.1318734526634
20
1014.2599999999999
0
LWPOLYLINE
5
b9
100
AcDbEntity
8
_ABF_SHEET_MATERIAL
100
AcDbPolyline
90
2
66
1
70
0
10
120.00738662146675
20
2276.0370849142496
10
120.00738662146675
20
2112.2599999999998
0
LWPOLYLINE
5
ba
100
AcDbEntity
8
_ABF_SHEET_MATERIAL
100
AcDbPolyline
90
2
66
1
70
0
10
100.9504492877007
20
2247.3382125138637
10
75.02999999999996
20
2222.1876236268063
0
LWPOLYLINE
5
bb
100
AcDbEntity
8
_ABF_SHEET_MATERIAL
100
AcDbPolyline
90
2
66
1
70
0
10
120.00738662146675
20
2276.0370849142496
10
100.9504492877007
20
2247.3382125138637
0
LWPOLYLINE
5
bc
100
AcDbEntity
8
_ABF_SHEET_MATERIAL
100
AcDbPolyline
90
2
66
1
70
0
10
75.02999999999996
20
2112.2599999999998
10
120.00738662146675
20
2112.2599999999998
0
LWPOLYLINE
5
bd
100
AcDbEntity
8
_ABF_SHEET_MATERIAL
100
AcDbPolyline
90
2
66
1
70
0
10
120.00738662146675
20
2112.2599999999998
10
165.11661856176804
20
2112.2599999999998
0
LWPOLYLINE
5
be
100
AcDbEntity
8
_ABF_SHEET_MATERIAL
100
AcDbPolyline
90
2
66
1
70
0
10
228.6337747098927
20
2162.672895144977
10
219.56516888854287
20
2112.2599999999998
0
LWPOLYLINE
5
bf
100
AcDbEntity
8
_ABF_SHEET_MATERIAL
100
AcDbPolyline
90
2
66
1
70
0
10
192.18241584550603
20
2276.0370849142496
10
285.70518648295047
20
2276.0370849142496
0
LWPOLYLINE
5
c0
100
AcDbEntity
8
_ABF_SHEET_MATERIAL
100
AcDbPolyline
90
2
66
1
70
0
10
251.17560300697914
20
2221.776869371408
10
228.6337747098927
20
2162.672895144977
0
LWPOLYLINE
5
c1
100
AcDbEntity
8
_ABF_SHEET_MATERIAL
100
AcDbPolyline
90
2
66
1
70
0
10
285.70518648295047
20
2276.0370849142496
10
251.17560300697914
20
2221.776869371408
0
LWPOLYLINE
5
c2
100
AcDbEntity
8
_ABF_SHEET_MATERIAL
100
AcDbPolyline
90
2
66
1
70
0
10
381.75944746991433
20
2220.0617186885515
10
390.27910827791624
20
2191.312018245356
0
LWPOLYLINE
5
c3
100
AcDbEntity
8
_ABF_SHEET_MATERIAL
100
AcDbPolyline
90
2
66
1
70
0
10
312.77098376668846
20
2228.9697042379266
10
312.77098376668846
20
2197.349569126132
0
LWPOLYLINE
5
c4
100
AcDbEntity
8
_ABF_SHEET_MATERIAL
100
AcDbPolyline
90
2
66
1
70
0
10
390.27910827791624
20
2112.2599999999998
10
390.27910827791624
20
2191.312018245356
0
LWPOLYLINE
5
c5
100
AcDbEntity
8
_ABF_SHEET_MATERIAL
100
AcDbPolyline
90
2
66
1
70
0
10
360.48736304972834
20
2228.6827720851256
10
339.21691876422886
20
2223.7983649487646
0
LWPOLYLINE
5
c6
100
AcDbEntity
8
_ABF_SHEET_MATERIAL
100
AcDbPolyline
90
2
66
1
70
0
10
466.84711834180223
20
2112.2599999999998
10
466.84711834180223
20
2191.312018245356
0
LWPOLYLINE
5
c7
100
AcDbEntity
8
_ABF_SHEET_MATERIAL
100
AcDbPolyline
90
2
66
1
70
0
10
312.77098376668846
20
2197.349569126132
10
339.21691876422886
20
2223.7983649487646
0
LWPOLYLINE
5
c8
100
AcDbEntity
8
_ABF_SHEET_MATERIAL
100
AcDbPolyline
90
2
66
1
70
0
10
312.77098376668846
20
2197.349569126132
10
312.77098376668846
20
2112.2599999999998
0
LWPOLYLINE
5
c9
100
AcDbEntity
8
_ABF_SHEET_MATERIAL
100
AcDbPolyline
90
2
66
1
70
0
10
433.2158930973007
20
2228.682793595089
10
459.0859902501248
20
2220.0617186885515
0
LWPOLYLINE
5
ca
100
AcDbEntity
8
_ABF_SHEET_MATERIAL
100
AcDbPolyline
90
2
66
1
70
0
10
459.0859902501248
20
2220.0617186885515
10
466.84711834180223
20
2191.312018245356
0
LWPOLYLINE
5
cb
100
AcDbEntity
8
_ABF_SHEET_MATERIAL
100
AcDbPolyline
90
2
66
1
70
0
10
410.79529495225785
20
2220.313804701127
10
433.2158930973007
20
2228.682793595089
0
LWPOLYLINE
5
cc
100
AcDbEntity
8
_ABF_SHEET_MATERIAL
100
AcDbPolyline
90
2
66
1
70
0
10
381.75944746991433
20
2220.0617186885515
10
360.48736304972834
20
2228.6827720851256
0
LWPOLYLINE
5
cd
100
AcDbEntity
8
_ABF_SHEET_MATERIAL
100
AcDbPolyline
90
2
66
1
70
0
10
390.27910827791624
20
2191.312018245356
10
410.79529495225785
20
2220.313804701127
0
LWPOLYLINE
5
ce
100
AcDbEntity
8
_ABF_SHEET_MATERIAL
100
AcDbPolyline
90
2
66
1
70
0
10
562.9013793287661
20
2220.0617186885515
10
571.4210401367679
20
2191.312018245356
0
LWPOLYLINE
5
cf
100
AcDbEntity
8
_ABF_SHEET_MATERIAL
100
AcDbPolyline
90
2
66
1
70
0
10
493.91291562554017
20
2228.9697042379266
10
493.91291562554017
20
2197.349569126132
0
LWPOLYLINE
5
d0
100
AcDbEntity
8
_ABF_SHEET_MATERIAL
100
AcDbPolyline
90
2
66
1
70
0
10
571.4210401367679
20
2112.2599999999998
10
571.4210401367679
20
2191.312018245356
0
LWPOLYLINE
5
d1
100
AcDbEntity
8
_ABF_SHEET_MATERIAL
100
AcDbPolyline
90
2
66
1
70
0
10
541.6292949085802
20
2228.6827720851256
10
520.3588506230807
20
2223.7983649487646
0
LWPOLYLINE
5
d2
100
AcDbEntity
8
_ABF_SHEET_MATERIAL
100
AcDbPolyline
90
2
66
1
70
0
10
647.989050200654
20
2112.2599999999998
10
647.989050200654
20
2191.312018245356
0
LWPOLYLINE
5
d3
100
AcDbEntity
8
_ABF_SHEET_MATERIAL
100
AcDbPolyline
90
2
66
1
70
0
10
493.91291562554017
20
2197.349569126132
10
520.3588506230807
20
2223.7983649487646
0
LWPOLYLINE
5
d4
100
AcDbEntity
8
_ABF_SHEET_MATERIAL
100
AcDbPolyline
90
2
66
1
70
0
10
493.91291562554017
20
2197.349569126132
10
493.91291562554017
20
2112.2599999999998
0
LWPOLYLINE
5
d5
100
AcDbEntity
8
_ABF_SHEET_MATERIAL
100
AcDbPolyline
90
2
66
1
70
0
10
614.3578249561524
20
2228.682793595089
10
640.2279221089765
20
2220.0617186885515
0
LWPOLYLINE
5
d6
100
AcDbEntity
8
_ABF_SHEET_MATERIAL
100
AcDbPolyline
90
2
66
1
70
0
10
640.2279221089765
20
2220.0617186885515
10
647.989050200654
20
2191.312018245356
0
LWPOLYLINE
5
d7
100
AcDbEntity
8
_ABF_SHEET_MATERIAL
100
AcDbPolyline
90
2
66
1
70
0
10
591.9372268111097
20
2220.313804701127
10
614.3578249561524
20
2228.682793595089
0
LWPOLYLINE
5
d8
100
AcDbEntity
8
_ABF_SHEET_MATERIAL
100
AcDbPolyline
90
2
66
1
70
0
10
562.9013793287661
20
2220.0617186885515
10
541.6292949085802
20
2228.6827720851256
0
LWPOLYLINE
5
d9
100
AcDbEntity
8
_ABF_SHEET_MATERIAL
100
AcDbPolyline
90
2
66
1
70
0
10
571.4210401367679
20
2191.312018245356
10
591.9372268111097
20
2220.313804701127
0
LWPOLYLINE
5
da
100
AcDbEntity
8
_ABF_SHEET_MATERIAL
100
AcDbPolyline
90
2
66
1
70
0
10
675.054847484392
20
2173.648380705294
10
797.0853637450779
20
2173.648380705294
0
LWPOLYLINE
5
db
100
AcDbEntity
8
_ABF_SHEET_MATERIAL
100
AcDbPolyline
90
2
66
1
70
0
10
838.2143130638461
20
2196.1330516529274
10
824.1511610288159
20
2163.545280096001
0
LWPOLYLINE
5
dc
100
AcDbEntity
8
_ABF_SHEET_MATERIAL
100
AcDbPolyline
90
2
66
1
70
0
10
914.2377795905838
20
2163.545280096001
10
901.1598295743029
20
2127.282167018075
0
LWPOLYLINE
5
dd
100
AcDbEntity
8
_ABF_SHEET_MATERIAL
100
AcDbPolyline
90
2
66
1
70
0
10
824.1511610288159
20
2218.492470085417
10
838.7243075671344
20
2261.9502961185153
0
LWPOLYLINE
5
de
100
AcDbEntity
8
_ABF_SHEET_MATERIAL
100
AcDbPolyline
90
2
66
1
70
0
10
900.7970855565485
20
2199.679184169945
10
869.5572842348344
20
2212.2660993710397
0
LWPOLYLINE
5
df
100
AcDbEntity
8
_ABF_SHEET_MATERIAL
100
AcDbPolyline
90
2
66
1
70
0
10
838.7243075671344
20
2261.9502961185153
10
869.5572842348344
20
2276.006110567382
0
LWPOLYLINE
5
e0
100
AcDbEntity
8
_ABF_SHEET_MATERIAL
100
AcDbPolyline
90
2
66
1
70
0
10
914.2377795905838
20
2163.545280096001
10
900.7970855565485
20
2199.679184169945
0
LWPOLYLINE
5
e1
100
AcDbEntity
8
_ABF_SHEET_MATERIAL
100
AcDbPolyline
90
2
66
1
70
0
10
869.5572842348344
20
2276.006110567382
10
897.526791428862
20
2265.01644456389
0
LWPOLYLINE
5
e2
100
AcDbEntity
8
_ABF_SHEET_MATERIAL
100
AcDbPolyline
90
2
66
1
70
0
10
901.1598295743029
20
2127.282167018075
10
869.5572842348344
20
2112.2599999999998
0
LWPOLYLINE
5
e3
100
AcDbEntity
8
_ABF_SHEET_MATERIAL
100
AcDbPolyline
90
2
66
1
70
0
10
869.5572842348344
20
2112.2599999999998
10
836.1384940746749
20
2127.282167018075
0
LWPOLYLINE
5
e4
100
AcDbEntity
8
_ABF_SHEET_MATERIAL
100
AcDbPolyline
90
2
66
1
70
0
10
869.5572842348344
20
2212.2660993710397
10
838.2143130638461
20
2196.1330516529274
0
LWPOLYLINE
5
e5
100
AcDbEntity
8
_ABF_SHEET_MATERIAL
100
AcDbPolyline
90
2
66
1
70
0
10
824.1511610288159
20
2163.545280096001
10
824.1511610288159
20
2218.492470085417
0
LWPOLYLINE
5
e6
100
AcDbEntity
8
_ABF_SHEET_MATERIAL
100
AcDbPolyline
90
2
66
1
70
0
10
836.1384940746749
20
2127.282167018075
10
824.1511610288159
20
2163.545280096001
0
LWPOLYLINE
5
e7
100
AcDbEntity
8
_ABF_SHEET_MATERIAL
100
AcDbPolyline
90
2
66
1
70
0
10
897.526791428862
20
2265.01644456389
10
908.7876711796181
20
2247.435555851883
0
LWPOLYLINE
5
e8
100
AcDbEntity
8
_ABF_SHEET_MATERIAL
100
AcDbPolyline
90
2
66
1
70
0
10
941.3035768743221
20
2112.2599999999998
10
1027.9709609463937
20
2112.2599999999998
0
LWPOLYLINE
5
e9
100
AcDbEntity
8
_ABF_SHEET_MATERIAL
100
AcDbPolyline
90
2
66
1
70
0
10
1020.2985668300032
20
2203.4450678475046
10
954.2360496326525
20
2139.93403289713
0
LWPOLYLINE
5
ea
100
AcDbEntity
8
_ABF_SHEET_MATERIAL
100
AcDbPolyline
90
2
66
1
70
0
10
956.2063756965348
20
2262.1531243155864
10
944.3899779582373
20
2229.8449984114604
0
LWPOLYLINE
5
eb
100
AcDbEntity
8
_ABF_SHEET_MATERIAL
100
AcDbPolyline
90
2
66
1
70
0
10
954.2360496326525
20
2139.93403289713
10
941.3035768743221
20
2112.2599999999998
0
LWPOLYLINE
5
ec
100
AcDbEntity
8
_ABF_SHEET_MATERIAL
100
AcDbPolyline
90
2
66
1
70
0
10
1020.2985668300032
20
2203.4450678475046
10
1030.7316732932093
20
2235.8279838933368
0
LWPOLYLINE
5
ed
100
AcDbEntity
8
_ABF_SHEET_MATERIAL
100
AcDbPolyline
90
2
66
1
70
0
10
987.3179050420348
20
2273.819945467497
10
956.2063756965348
20
2262.1531243155864
0
LWPOLYLINE
5
ee
100
AcDbEntity
8
_ABF_SHEET_MATERIAL
100
AcDbPolyline
90
2
66
1
70
0
10
1030.7316732932093
20
2235.8279838933368
10
1017.1580476872025
20
2262.826203325997
0
LWPOLYLINE
5
ef
100
AcDbEntity
8
_ABF_SHEET_MATERIAL
100
AcDbPolyline
90
2
66
1
70
0
10
1017.1580476872025
20
2262.826203325997
10
987.3179050420348
20
2273.819945467497
0
LWPOLYLINE
5
f0
100
AcDbEntity
8
_ABF_SHEET_MATERIAL
100
AcDbPolyline
90
2
66
1
70
0
10
1130.4842282761751
20
2263.745829533484
10
1144.9699999999998
20
2219.8315190634326
0
LWPOLYLINE
5
f1
100
AcDbEntity
8
_ABF_SHEET_MATERIAL
100
AcDbPolyline
90
2
66
1
70
0
10
1101.7378995196955
20
2112.2599999999998
10
1134.1297314452336
20
2125.7297889478764
0
LWPOLYLINE
5
f2
100
AcDbEntity
8
_ABF_SHEET_MATERIAL
100
AcDbPolyline
90
2
66
1
70
0
10
1071.045529447676
20
2125.6790872760994
10
1101.7378995196955
20
2112.2599999999998
0
LWPOLYLINE
5
f3
100
AcDbEntity
8
_ABF_SHEET_MATERIAL
100
AcDbPolyline
90
2
66
1
70
0
10
1144.9699999999998
20
2219.8315190634326
10
1144.9699999999998
20
2168.784262841629
0
LWPOLYLINE
5
f4
100
AcDbEntity
8
_ABF_SHEET_MATERIAL
100
AcDbPolyline
90
2
66
1
70
0
10
1144.9699999999998
20
2168.784262841629
10
1134.1297314452336
20
2125.7297889478764
0
LWPOLYLINE
5
f5
100
AcDbEntity
8
_ABF_SHEET_MATERIAL
100
AcDbPolyline
90
2
66
1
70
0
10
1072.296777445054
20
2263.745829533484
10
1057.797470576947
20
2219.8315190634326
0
LWPOLYLINE
5
f6
100
AcDbEntity
8
_ABF_SHEET_MATERIAL
100
AcDbPolyline
90
2
66
1
70
0
10
1057.7974705769468
20
2168.784262841629
10
1071.045529447676
20
2125.6790872760994
0
LWPOLYLINE
5
f7
100
AcDbEntity
8
_ABF_SHEET_MATERIAL
100
AcDbPolyline
90
2
66
1
70
0
10
1057.797470576947
20
2219.8315190634326
10
1057.7974705769468
20
2168.784262841629
0
LWPOLYLINE
5
f8
100
AcDbEntity
8
_ABF_SHEET_MATERIAL
100
AcDbPolyline
90
2
66
1
70
0
10
1130.4842282761751
20
2263.745829533484
10
1101.4434872772258
20
2276.0370849142496
0
LWPOLYLINE
5
f9
100
AcDbEntity
8
_ABF_SHEET_MATERIAL
100
AcDbPolyline
90
2
66
1
70
0
10
1101.4434872772258
20
2276.0370849142496
10
1072.296777445054
20
2263.745829533484
0
ENDSEC
0
SECTION
2
OBJECTS
0
DICTIONARY
5
C
330
0
100
AcDbDictionary
281
1
3
ACAD_GROUP
350
D
0
DICTIONARY
5
D
330
C
100
AcDbDictionary
281
1
0
ENDSEC
0
EOF
