0
SECTION
2
HEADER
9
$ACADVER
1
AC1015
9
$HANDSEED
5
20000
0
ENDSEC
0
SECTION
2
CLASSES
0
ENDSEC
0
SECTION
2
TABLES
0
TABLE
2
VPORT
5
8
330
0
100
AcDbSymbolTable
70
1
0
VPORT
5
31
330
2
100
AcDbSymbolTableRecord
100
AcDbViewportTableRecord
2
*ACTIVE
70
0
10
0
20
0
11
1
21
1
12
209.475294253
22
86.0026335861
13
0
23
0
14
10
24
10
15
10
25
10
16
0
26
0
36
1
17
0
27
0
37
0
40
319.744231092
41
2.12946428571
42
50
43
0
44
0
50
0
51
0
71
0
72
100
73
1
74
3
75
0
76
0
77
0
78
0
281
0
65
1
110
0
120
0
130
0
111
1
121
0
131
0
112
0
122
1
132
0
79
0
146
0
348
10020
60
7
61
5
292
1
282
1
141
0
142
0
63
250
421
3358443
0
ENDTAB
0
TABLE
2
LTYPE
5
5
330
0
100
AcDbSymbolTable
70
4
0
LTYPE
5
14
330
5
100
AcDbSymbolTableRecord
100
AcDbLinetypeTableRecord
2
ByBlock
70
0
3

72
65
73
0
40
0
0
LTYPE
5
15
330
5
100
AcDbSymbolTableRecord
100
AcDbLinetypeTableRecord
2
ByLayer
70
0
3

72
65
73
0
40
0
0
LTYPE
5
16
330
5
100
AcDbSymbolTableRecord
100
AcDbLinetypeTableRecord
2
Continuous
70
0
3
Solid line
72
65
73
0
40
0
0
ENDTAB
0
TABLE
2
LAYER
5
2
330
0
100
AcDbSymbolTable
70
1
0
LAYER
5
10
330
2
100
AcDbSymbolTableRecord
100
AcDbLayerTableRecord
2
0
70
0
62
7
6
CONTINUOUS
370
-3
390
F
0
LAYER
5
11b
100
AcDbSymbolTableRecord
100
AcDbLayerTableRecord
2
_ABF_SHEET_ID
70
0
62
100
6
Continuous
390
13
0
LAYER
5
11c
100
AcDbSymbolTableRecord
100
AcDbLayerTableRecord
2
_ABF_SHEET_MATERIAL
70
0
62
1
6
Continuous
390
13
0
LAYER
5
11d
100
AcDbSymbolTableRecord
100
AcDbLayerTableRecord
2
_ABF_SHEET_BORDER
70
0
62
30
6
Continuous
390
13
0
LAYER
5
11e
100
AcDbSymbolTableRecord
100
AcDbLayerTableRecord
2
_ABF_CUTTING_LINES
70
0
62
54
6
Continuous
390
13
0
LAYER
5
11f
100
AcDbSymbolTableRecord
100
AcDbLayerTableRecord
2
ABF_D3
70
0
62
190
6
Continuous
390
13
0
LAYER
5
120
100
AcDbSymbolTableRecord
100
AcDbLayerTableRecord
2
ABF_DSIDE_8
70
0
62
190
6
Continuous
390
13
0
LAYER
5
121
100
AcDbSymbolTableRecord
100
AcDbLayerTableRecord
2
BAO_HAU_AM_8.5MM
70
0
62
1
6
Continuous
390
13
0
ENDTAB
0
TABLE
2
STYLE
5
3
330
0
100
AcDbSymbolTable
70
3
0
STYLE
5
45
330
2
100
AcDbSymbolTableRecord
100
AcDbTextStyleTableRecord
2
Standard
70
0
40
0
41
1
50
0
71
0
42
1
3
txt
4

0
ENDTAB
0
TABLE
2
VIEW
5
6
330
0
100
AcDbSymbolTable
70
0
0
ENDTAB
0
TABLE
2
UCS
5
7
330
0
100
AcDbSymbolTable
70
0
0
ENDTAB
0
TABLE
2
APPID
5
9
330
0
100
AcDbSymbolTable
70
1
0
APPID
5
12
330
9
100
AcDbSymbolTableRecord
100
AcDbRegAppTableRecord
2
ACAD
70
0
0
ENDTAB
0
TABLE
2
DIMSTYLE
5
A
330
0
100
AcDbSymbolTable
70
1
100
AcDbDimStyleTable
71
1
0
DIMSTYLE
105
46
330
A
100
AcDbSymbolTableRecord
100
AcDbDimStyleTableRecord
2
Standard
70
0
40
1
41
0.18
42
0.0625
43
0.38
44
0.18
45
0
46
0
47
0
48
0
140
0.18
141
0.09
142
0
143
25.4
144
1
145
0
146
1
147
0.09
148
0
71
0
72
0
73
0
74
1
75
0
76
0
77
0
78
0
79
0
170
0
171
2
172
0
173
0
174
0
175
0
176
0
177
0
178
0
179
0
271
4
272
4
273
2
274
2
275
0
276
0
277
2
278
46
279
0
280
0
281
0
282
0
283
1
284
0
285
0
286
0
288
0
289
3
340
Standard
341

371
-2
372
-2
0
ENDTAB
0
TABLE
2
BLOCK_RECORD
5
1
330
0
100
AcDbSymbolTable
70
2
0
BLOCK_RECORD
5
1F
330
1
100
AcDbSymbolTableRecord
100
AcDbBlockTableRecord
2
*Model_Space
70
0
280
1
281
0
0
BLOCK_RECORD
5
1E
330
1
100
AcDbSymbolTableRecord
100
AcDbBlockTableRecord
2
*Paper_Space
70
0
280
1
281
0
0
ENDTAB
0
ENDSEC
0
SECTION
2
BLOCKS
0
BLOCK
5
20
330
1F
100
AcDbEntity
8
0
100
AcDbBlockBegin
2
*Model_Space
70
0
10
0
20
0
30
0
3
*Model_Space
1

0
ENDBLK
5
21
330
1F
100
AcDbEntity
8
0
100
AcDbBlockEnd
0
BLOCK
5
1C
330
1B
100
AcDbEntity
8
0
100
AcDbBlockBegin
2
*Paper_Space
70
0
10
0
20
0
30
0
3
*Paper_Space
1

0
ENDBLK
5
1D
330
1E
100
AcDbEntity
8
0
100
AcDbBlockEnd
0
ENDSEC
0
SECTION
2
ENTITIES
0
LWPOLYLINE
5
65
100
AcDbEntity
8
_ABF_SHEET_BORDER
100
AcDbPolyline
90
5
66
1
70
1
10
0.0
20
0.0
10
1220.0
20
0.0
10
1220.0
20
2440.0
10
0.0
20
2440.0
10
0.0
20
0.0
0
LWPOLYLINE
5
66
100
AcDbEntity
8
_ABF_CUTTING_LINES
100
AcDbPolyline
90
15
66
1
70
1
10
1200.4999999999493
20
1750.4999999999995
10
618.4999999999503
20
1750.4999999999993
10
618.4999999999503
20
2436.499999999999
10
1216.49999999995
20
2436.4999999999995
10
1216.49999999995
20
2261.4999999999995
10
1199.4999999999495
20
2261.4999999999995
10
1199.4999999999495
20
2189.5
10
1216.49999999995
20
2189.5
10
1216.49999999995
20
2041.4978660990903
10
1199.4999999999495
20
2041.4978660990903
10
1199.4999999999495
20
1969.4978660990903
10
1216.49999999995
20
1969.4978660990903
10
1216.49999999995
20
1819.4999999999995
10
1200.4999999999493
20
1819.4999999999995
10
1200.4999999999493
20
1750.4999999999995
0
CIRCLE
5
67
100
AcDbEntity
8
ABF_D3
100
AcDbCircle
10
1167.4999999999502
20
2429.0
40
1.5000000000002003
0
CIRCLE
5
68
100
AcDbEntity
8
ABF_D3
100
AcDbCircle
10
667.4999999999498
20
2428.999999999999
40
1.4999999999998392
0
CIRCLE
5
69
100
AcDbEntity
8
ABF_D3
100
AcDbCircle
10
917.49999999995
20
2429.0
40
1.5000000000000198
0
CIRCLE
5
6a
100
AcDbEntity
8
ABF_D3
100
AcDbCircle
10
1164.9999999999504
20
1799.4999999999814
40
1.5000000000000198
0
CIRCLE
5
6b
100
AcDbEntity
8
ABF_D3
100
AcDbCircle
10
1164.9999999999504
20
1781.4999999999811
40
1.5000000000000198
0
CIRCLE
5
6c
100
AcDbEntity
8
ABF_D3
100
AcDbCircle
10
625.9999999999504
20
1784.499999999999
40
1.4999999999999296
0
LWPOLYLINE
5
6d
100
AcDbEntity
8
BAO_HAU_AM_8.5MM
100
AcDbPolyline
90
4
66
1
70
1
10
643.49999999995
20
2428.499999999999
10
634.4999999999501
20
2428.499999999999
10
634.4999999999507
20
1749.499999999999
10
643.4999999999505
20
1749.499999999999
0
CIRCLE
5
6e
100
AcDbEntity
8
ABF_D3
100
AcDbCircle
10
1167.4999999999502
20
2429.0
40
1.5000000000002003
0
CIRCLE
5
6f
100
AcDbEntity
8
ABF_D3
100
AcDbCircle
10
667.4999999999498
20
2428.999999999999
40
1.4999999999998392
0
CIRCLE
5
70
100
AcDbEntity
8
ABF_D3
100
AcDbCircle
10
917.49999999995
20
2429.0
40
1.5000000000000198
0
CIRCLE
5
71
100
AcDbEntity
8
ABF_D3
100
AcDbCircle
10
625.9999999999504
20
1784.499999999999
40
1.4999999999998392
0
LWPOLYLINE
5
72
100
AcDbEntity
8
_ABF_CUTTING_LINES
100
AcDbPolyline
90
5
66
1
70
1
10
1216.49999999994
20
1743.9999999999998
10
618.4999999999402
20
1743.9999999999993
10
618.4999999999402
20
1078.0000000000002
10
1216.49999999994
20
1078.0000000000007
10
1216.49999999994
20
1743.9999999999998
0
LWPOLYLINE
5
73
100
AcDbEntity
8
ABF_DSIDE_8
100
AcDbPolyline
90
5
66
1
70
1
10
1163.4999999999409
20
1078.0000000000005
10
1163.4999999999409
20
1112.0000000000002
10
1171.4999999999409
20
1112.0000000000002
10
1171.4999999999409
20
1078.0000000000005
10
1163.4999999999409
20
1078.0000000000005
0
LWPOLYLINE
5
74
100
AcDbEntity
8
ABF_DSIDE_8
100
AcDbPolyline
90
5
66
1
70
1
10
671.4999999999405
20
1743.9999999999989
10
671.4999999999405
20
1709.999999999999
10
663.4999999999407
20
1709.999999999999
10
663.4999999999407
20
1743.9999999999989
10
671.4999999999405
20
1743.9999999999989
0
LWPOLYLINE
5
75
100
AcDbEntity
8
ABF_DSIDE_8
100
AcDbPolyline
90
5
66
1
70
1
10
1163.4999999999407
20
1743.9999999999998
10
1163.4999999999407
20
1709.9999999999998
10
1171.4999999999407
20
1709.9999999999998
10
1171.4999999999407
20
1743.9999999999998
10
1163.4999999999407
20
1743.9999999999998
0
LWPOLYLINE
5
76
100
AcDbEntity
8
ABF_DSIDE_8
100
AcDbPolyline
90
5
66
1
70
1
10
671.499999999941
20
1078.0
10
671.499999999941
20
1112.0
10
663.499999999941
20
1112.0
10
663.499999999941
20
1078.0
10
671.499999999941
20
1078.0
0
LWPOLYLINE
5
77
100
AcDbEntity
8
ABF_DSIDE_8
100
AcDbPolyline
90
5
66
1
70
1
10
921.499999999941
20
1078.0000000000002
10
921.499999999941
20
1112.0000000000002
10
913.499999999941
20
1112.0000000000002
10
913.499999999941
20
1078.0000000000002
10
921.499999999941
20
1078.0000000000002
0
LWPOLYLINE
5
78
100
AcDbEntity
8
ABF_DSIDE_8
100
AcDbPolyline
90
5
66
1
70
1
10
913.4999999999405
20
1743.9999999999993
10
913.4999999999405
20
1709.9999999999995
10
921.4999999999405
20
1709.9999999999995
10
921.4999999999405
20
1743.9999999999993
10
913.4999999999405
20
1743.9999999999993
0
LWPOLYLINE
5
79
100
AcDbEntity
8
BAO_HAU_AM_8.5MM
100
AcDbPolyline
90
4
66
1
70
1
10
643.499999999941
20
1078.0
10
643.4999999999407
20
1743.9999999999989
10
634.4999999999407
20
1743.9999999999989
10
634.4999999999411
20
1078.0
0
LWPOLYLINE
5
7a
100
AcDbEntity
8
ABF_DSIDE_8
100
AcDbPolyline
90
5
66
1
70
1
10
671.499999999941
20
1078.000000000001
10
671.499999999941
20
1112.0000000000011
10
663.499999999941
20
1112.0000000000011
10
663.499999999941
20
1078.000000000001
10
671.499999999941
20
1078.000000000001
0
LWPOLYLINE
5
7b
100
AcDbEntity
8
ABF_DSIDE_8
100
AcDbPolyline
90
5
66
1
70
1
10
1163.4999999999409
20
1078.0000000000011
10
1163.4999999999409
20
1112.0000000000014
10
1171.4999999999409
20
1112.0000000000014
10
1171.4999999999409
20
1078.0000000000011
10
1163.4999999999409
20
1078.0000000000011
0
LWPOLYLINE
5
7c
100
AcDbEntity
8
ABF_DSIDE_8
100
AcDbPolyline
90
5
66
1
70
1
10
671.4999999999405
20
1744.0000000000011
10
671.4999999999405
20
1710.000000000001
10
663.4999999999407
20
1710.000000000001
10
663.4999999999407
20
1744.0000000000011
10
671.4999999999405
20
1744.0000000000011
0
LWPOLYLINE
5
7d
100
AcDbEntity
8
ABF_DSIDE_8
100
AcDbPolyline
90
5
66
1
70
1
10
1163.4999999999407
20
1744.0000000000011
10
1163.4999999999407
20
1710.000000000001
10
1171.4999999999407
20
1710.000000000001
10
1171.4999999999407
20
1744.0000000000011
10
1163.4999999999407
20
1744.0000000000011
0
LWPOLYLINE
5
7e
100
AcDbEntity
8
ABF_DSIDE_8
100
AcDbPolyline
90
5
66
1
70
1
10
921.499999999941
20
1078.000000000001
10
921.499999999941
20
1112.0000000000011
10
913.499999999941
20
1112.0000000000011
10
913.499999999941
20
1078.000000000001
10
921.499999999941
20
1078.000000000001
0
LWPOLYLINE
5
7f
100
AcDbEntity
8
ABF_DSIDE_8
100
AcDbPolyline
90
5
66
1
70
1
10
913.4999999999405
20
1744.0000000000011
10
913.4999999999405
20
1710.000000000001
10
921.4999999999405
20
1710.000000000001
10
921.4999999999405
20
1744.0000000000011
10
913.4999999999405
20
1744.0000000000011
0
LWPOLYLINE
5
80
100
AcDbEntity
8
_ABF_CUTTING_LINES
100
AcDbPolyline
90
5
66
1
70
1
10
650.4999999999502
20
1071.4999999999993
10
650.4999999999502
20
473.4999999999996
10
1216.4999999999486
20
473.49999999999994
10
1216.4999999999486
20
1071.5
10
650.4999999999502
20
1071.4999999999993
0
LWPOLYLINE
5
81
100
AcDbEntity
8
ABF_DSIDE_8
100
AcDbPolyline
90
5
66
1
70
1
10
1216.4999999999498
20
1018.4999999999999
10
1182.49999999995
20
1018.4999999999999
10
1182.49999999995
20
1026.5
10
1216.4999999999498
20
1026.5
10
1216.4999999999498
20
1018.4999999999999
0
LWPOLYLINE
5
82
100
AcDbEntity
8
ABF_DSIDE_8
100
AcDbPolyline
90
5
66
1
70
1
10
650.4999999999509
20
526.4999999999994
10
684.4999999999507
20
526.4999999999994
10
684.4999999999507
20
518.4999999999994
10
650.4999999999509
20
518.4999999999994
10
650.4999999999509
20
526.4999999999994
0
LWPOLYLINE
5
83
100
AcDbEntity
8
ABF_DSIDE_8
100
AcDbPolyline
90
5
66
1
70
1
10
650.4999999999504
20
1018.4999999999995
10
684.4999999999503
20
1018.4999999999995
10
684.4999999999503
20
1026.4999999999995
10
650.4999999999504
20
1026.4999999999995
10
650.4999999999504
20
1018.4999999999995
0
LWPOLYLINE
5
84
100
AcDbEntity
8
ABF_DSIDE_8
100
AcDbPolyline
90
5
66
1
70
1
10
1216.4999999999502
20
526.4999999999999
10
1182.4999999999504
20
526.4999999999999
10
1182.4999999999504
20
518.4999999999999
10
1216.4999999999502
20
518.4999999999999
10
1216.4999999999502
20
526.4999999999999
0
LWPOLYLINE
5
85
100
AcDbEntity
8
ABF_DSIDE_8
100
AcDbPolyline
90
5
66
1
70
1
10
1216.49999999995
20
776.4999999999999
10
1182.4999999999502
20
776.4999999999999
10
1182.4999999999502
20
768.4999999999999
10
1216.49999999995
20
768.4999999999999
10
1216.49999999995
20
776.4999999999999
0
LWPOLYLINE
5
86
100
AcDbEntity
8
ABF_DSIDE_8
100
AcDbPolyline
90
5
66
1
70
1
10
650.4999999999507
20
768.4999999999994
10
684.4999999999505
20
768.4999999999994
10
684.4999999999505
20
776.4999999999994
10
650.4999999999507
20
776.4999999999994
10
650.4999999999507
20
768.4999999999994
0
LWPOLYLINE
5
87
100
AcDbEntity
8
BAO_HAU_AM_8.5MM
100
AcDbPolyline
90
4
66
1
70
1
10
1216.4999999999502
20
498.49999999999994
10
650.4999999999509
20
498.4999999999995
10
650.4999999999509
20
489.4999999999996
10
1216.4999999999502
20
489.5
0
LWPOLYLINE
5
88
100
AcDbEntity
8
ABF_DSIDE_8
100
AcDbPolyline
90
5
66
1
70
1
10
1216.499999999949
20
1018.4999999999999
10
1182.4999999999488
20
1018.4999999999999
10
1182.4999999999488
20
1026.5
10
1216.499999999949
20
1026.5
10
1216.499999999949
20
1018.4999999999999
0
LWPOLYLINE
5
89
100
AcDbEntity
8
ABF_DSIDE_8
100
AcDbPolyline
90
5
66
1
70
1
10
1216.4999999999495
20
526.4999999999999
10
1182.4999999999493
20
526.4999999999999
10
1182.4999999999493
20
518.4999999999999
10
1216.4999999999495
20
518.4999999999999
10
1216.4999999999495
20
526.4999999999999
0
LWPOLYLINE
5
8a
100
AcDbEntity
8
ABF_DSIDE_8
100
AcDbPolyline
90
5
66
1
70
1
10
650.4999999999493
20
1018.4999999999995
10
684.4999999999495
20
1018.4999999999995
10
684.4999999999495
20
1026.4999999999995
10
650.4999999999493
20
1026.4999999999995
10
650.4999999999493
20
1018.4999999999995
0
LWPOLYLINE
5
8b
100
AcDbEntity
8
ABF_DSIDE_8
100
AcDbPolyline
90
5
66
1
70
1
10
650.4999999999498
20
526.4999999999994
10
684.49999999995
20
526.4999999999994
10
684.49999999995
20
518.4999999999994
10
650.4999999999498
20
518.4999999999994
10
650.4999999999498
20
526.4999999999994
0
LWPOLYLINE
5
8c
100
AcDbEntity
8
ABF_DSIDE_8
100
AcDbPolyline
90
5
66
1
70
1
10
1216.4999999999493
20
776.4999999999999
10
1182.499999999949
20
776.4999999999999
10
1182.499999999949
20
768.4999999999999
10
1216.4999999999493
20
768.4999999999999
10
1216.4999999999493
20
776.4999999999999
0
LWPOLYLINE
5
8d
100
AcDbEntity
8
ABF_DSIDE_8
100
AcDbPolyline
90
5
66
1
70
1
10
650.4999999999496
20
768.4999999999994
10
684.4999999999499
20
768.4999999999994
10
684.4999999999499
20
776.4999999999994
10
650.4999999999496
20
776.4999999999994
10
650.4999999999496
20
768.4999999999994
0
LWPOLYLINE
5
8e
100
AcDbEntity
8
_ABF_CUTTING_LINES
100
AcDbPolyline
90
5
66
1
70
1
10
177.99999999995086
20
1071.4999999999993
10
177.99999999995086
20
473.49999999999926
10
643.9999999999503
20
473.4999999999996
10
643.9999999999503
20
1071.4999999999995
10
177.99999999995086
20
1071.4999999999993
0
LWPOLYLINE
5
8f
100
AcDbEntity
8
BAO_HAU_AM_8.5MM
100
AcDbPolyline
90
4
66
1
70
1
10
643.9999999999491
20
498.4999999999996
10
177.99999999994932
20
498.49999999999926
10
177.99999999994932
20
489.4999999999993
10
643.9999999999491
20
489.49999999999966
0
LWPOLYLINE
5
90
100
AcDbEntity
8
ABF_DSIDE_8
100
AcDbPolyline
90
5
66
1
70
1
10
643.9999999999486
20
1018.4999999999995
10
609.9999999999484
20
1018.4999999999995
10
609.9999999999484
20
1026.4999999999995
10
643.9999999999486
20
1026.4999999999995
10
643.9999999999486
20
1018.4999999999995
0
LWPOLYLINE
5
91
100
AcDbEntity
8
ABF_DSIDE_8
100
AcDbPolyline
90
5
66
1
70
1
10
643.9999999999491
20
526.4999999999995
10
609.9999999999488
20
526.4999999999995
10
609.9999999999488
20
518.4999999999995
10
643.9999999999491
20
518.4999999999995
10
643.9999999999491
20
526.4999999999995
0
LWPOLYLINE
5
92
100
AcDbEntity
8
ABF_DSIDE_8
100
AcDbPolyline
90
5
66
1
70
1
10
177.9999999999485
20
1018.4999999999992
10
211.99999999994873
20
1018.4999999999992
10
211.99999999994873
20
1026.499999999999
10
177.9999999999485
20
1026.499999999999
10
177.9999999999485
20
1018.4999999999992
0
LWPOLYLINE
5
93
100
AcDbEntity
8
ABF_DSIDE_8
100
AcDbPolyline
90
5
66
1
70
1
10
177.99999999994895
20
526.4999999999992
10
211.99999999994918
20
526.4999999999992
10
211.99999999994918
20
518.4999999999992
10
177.99999999994895
20
518.4999999999992
10
177.99999999994895
20
526.4999999999992
0
LWPOLYLINE
5
94
100
AcDbEntity
8
ABF_DSIDE_8
100
AcDbPolyline
90
5
66
1
70
1
10
643.999999999949
20
776.4999999999995
10
609.9999999999487
20
776.4999999999995
10
609.9999999999487
20
768.4999999999995
10
643.999999999949
20
768.4999999999995
10
643.999999999949
20
776.4999999999995
0
LWPOLYLINE
5
95
100
AcDbEntity
8
ABF_DSIDE_8
100
AcDbPolyline
90
5
66
1
70
1
10
177.99999999994878
20
768.4999999999992
10
211.99999999994898
20
768.4999999999992
10
211.99999999994898
20
776.4999999999992
10
177.99999999994878
20
776.4999999999992
10
177.99999999994878
20
768.4999999999992
0
LWPOLYLINE
5
96
100
AcDbEntity
8
_ABF_CUTTING_LINES
100
AcDbPolyline
90
5
66
1
70
1
10
245.99999999993827
20
1675.9999999999993
10
245.99999999993827
20
1077.9999999999993
10
611.9999999999359
20
1077.9999999999995
10
611.9999999999359
20
1675.9999999999995
10
245.99999999993827
20
1675.9999999999993
0
LWPOLYLINE
5
97
100
AcDbEntity
8
ABF_DSIDE_8
100
AcDbPolyline
90
5
66
1
70
1
10
611.9999999999395
20
1622.9999999999995
10
577.9999999999396
20
1622.9999999999995
10
577.9999999999396
20
1630.9999999999993
10
611.9999999999395
20
1630.9999999999993
10
611.9999999999395
20
1622.9999999999995
0
LWPOLYLINE
5
98
100
AcDbEntity
8
ABF_DSIDE_8
100
AcDbPolyline
90
5
66
1
70
1
10
245.99999999994156
20
1130.9999999999993
10
279.9999999999414
20
1130.9999999999993
10
279.9999999999414
20
1122.9999999999993
10
245.99999999994156
20
1122.9999999999993
10
245.99999999994156
20
1130.9999999999993
0
LWPOLYLINE
5
99
100
AcDbEntity
8
ABF_DSIDE_8
100
AcDbPolyline
90
5
66
1
70
1
10
245.99999999994122
20
1622.9999999999993
10
279.99999999994105
20
1622.9999999999993
10
279.99999999994105
20
1630.9999999999993
10
245.99999999994122
20
1630.9999999999993
10
245.99999999994122
20
1622.9999999999993
0
LWPOLYLINE
5
9a
100
AcDbEntity
8
ABF_DSIDE_8
100
AcDbPolyline
90
5
66
1
70
1
10
611.99999999994
20
1130.9999999999993
10
577.9999999999401
20
1130.9999999999993
10
577.9999999999401
20
1122.9999999999993
10
611.99999999994
20
1122.9999999999993
10
611.99999999994
20
1130.9999999999993
0
LWPOLYLINE
5
9b
100
AcDbEntity
8
ABF_DSIDE_8
100
AcDbPolyline
90
5
66
1
70
1
10
611.9999999999397
20
1380.9999999999993
10
577.99999999994
20
1380.9999999999993
10
577.99999999994
20
1372.9999999999993
10
611.9999999999397
20
1372.9999999999993
10
611.9999999999397
20
1380.9999999999993
0
LWPOLYLINE
5
9c
100
AcDbEntity
8
ABF_DSIDE_8
100
AcDbPolyline
90
5
66
1
70
1
10
245.9999999999414
20
1372.999999999999
10
279.9999999999412
20
1372.999999999999
10
279.9999999999412
20
1380.999999999999
10
245.9999999999414
20
1380.999999999999
10
245.9999999999414
20
1372.999999999999
0
LWPOLYLINE
5
9d
100
AcDbEntity
8
BAO_HAU_AM_8.5MM
100
AcDbPolyline
90
4
66
1
70
1
10
611.99999999994
20
1102.9999999999995
10
245.99999999994125
20
1102.9999999999993
10
245.99999999994125
20
1093.999999999999
10
611.99999999994
20
1093.9999999999995
0
LWPOLYLINE
5
9e
100
AcDbEntity
8
ABF_DSIDE_8
100
AcDbPolyline
90
5
66
1
70
1
10
611.9999999999387
20
1622.9999999999995
10
577.9999999999386
20
1622.9999999999995
10
577.9999999999386
20
1630.9999999999993
10
611.9999999999387
20
1630.9999999999993
10
611.9999999999387
20
1622.9999999999995
0
LWPOLYLINE
5
9f
100
AcDbEntity
8
ABF_DSIDE_8
100
AcDbPolyline
90
5
66
1
70
1
10
611.9999999999392
20
1130.9999999999993
10
577.9999999999391
20
1130.9999999999993
10
577.9999999999391
20
1122.9999999999993
10
611.9999999999392
20
1122.9999999999993
10
611.9999999999392
20
1130.9999999999993
0
LWPOLYLINE
5
a0
100
AcDbEntity
8
ABF_DSIDE_8
100
AcDbPolyline
90
5
66
1
70
1
10
245.99999999993832
20
1622.9999999999993
10
279.9999999999378
20
1622.9999999999993
10
279.9999999999378
20
1630.9999999999993
10
245.99999999993832
20
1630.9999999999993
10
245.99999999993832
20
1622.9999999999993
0
LWPOLYLINE
5
a1
100
AcDbEntity
8
ABF_DSIDE_8
100
AcDbPolyline
90
5
66
1
70
1
10
245.9999999999387
20
1130.9999999999993
10
279.99999999993815
20
1130.9999999999993
10
279.99999999993815
20
1122.9999999999993
10
245.9999999999387
20
1122.9999999999993
10
245.9999999999387
20
1130.9999999999993
0
LWPOLYLINE
5
a2
100
AcDbEntity
8
ABF_DSIDE_8
100
AcDbPolyline
90
5
66
1
70
1
10
611.9999999999391
20
1380.9999999999993
10
577.9999999999388
20
1380.9999999999993
10
577.9999999999388
20
1372.9999999999993
10
611.9999999999391
20
1372.9999999999993
10
611.9999999999391
20
1380.9999999999993
0
LWPOLYLINE
5
a3
100
AcDbEntity
8
ABF_DSIDE_8
100
AcDbPolyline
90
5
66
1
70
1
10
245.9999999999385
20
1372.999999999999
10
279.999999999938
20
1372.999999999999
10
279.999999999938
20
1380.999999999999
10
245.9999999999385
20
1380.999999999999
10
245.9999999999385
20
1372.999999999999
0
LWPOLYLINE
5
a4
100
AcDbEntity
8
_ABF_CUTTING_LINES
100
AcDbPolyline
90
5
66
1
70
1
10
245.99999999995129
20
2280.4999999999995
10
245.99999999995129
20
1682.4999999999993
10
611.9999999999503
20
1682.4999999999995
10
611.9999999999503
20
2280.4999999999995
10
245.99999999995129
20
2280.4999999999995
0
LWPOLYLINE
5
a5
100
AcDbEntity
8
ABF_DSIDE_8
100
AcDbPolyline
90
5
66
1
70
1
10
611.9999999999505
20
2227.4999999999995
10
577.9999999999508
20
2227.499999999999
10
577.9999999999508
20
2235.499999999999
10
611.9999999999505
20
2235.499999999999
10
611.9999999999505
20
2227.4999999999995
0
LWPOLYLINE
5
a6
100
AcDbEntity
8
ABF_DSIDE_8
100
AcDbPolyline
90
5
66
1
70
1
10
245.9999999999516
20
1735.4999999999995
10
279.99999999995146
20
1735.4999999999995
10
279.99999999995146
20
1727.4999999999995
10
245.9999999999516
20
1727.499999999999
10
245.9999999999516
20
1735.4999999999995
0
LWPOLYLINE
5
a7
100
AcDbEntity
8
ABF_DSIDE_8
100
AcDbPolyline
90
5
66
1
70
1
10
245.99999999995123
20
2227.4999999999995
10
279.99999999995106
20
2227.4999999999995
10
279.99999999995106
20
2235.4999999999995
10
245.99999999995123
20
2235.499999999999
10
245.99999999995123
20
2227.4999999999995
0
LWPOLYLINE
5
a8
100
AcDbEntity
8
ABF_DSIDE_8
100
AcDbPolyline
90
5
66
1
70
1
10
611.999999999951
20
1735.4999999999995
10
577.9999999999512
20
1735.4999999999995
10
577.9999999999512
20
1727.4999999999995
10
611.999999999951
20
1727.4999999999998
10
611.999999999951
20
1735.4999999999995
0
LWPOLYLINE
5
a9
100
AcDbEntity
8
ABF_DSIDE_8
100
AcDbPolyline
90
5
66
1
70
1
10
611.9999999999509
20
1985.4999999999995
10
577.999999999951
20
1985.4999999999993
10
577.999999999951
20
1977.4999999999993
10
611.9999999999509
20
1977.4999999999993
10
611.9999999999509
20
1985.4999999999995
0
LWPOLYLINE
5
aa
100
AcDbEntity
8
ABF_DSIDE_8
100
AcDbPolyline
90
5
66
1
70
1
10
245.9999999999514
20
1977.4999999999993
10
279.9999999999512
20
1977.4999999999993
10
279.9999999999512
20
1985.4999999999993
10
245.9999999999514
20
1985.4999999999989
10
245.9999999999514
20
1977.4999999999993
0
LWPOLYLINE
5
ab
100
AcDbEntity
8
BAO_HAU_AM_8.5MM
100
AcDbPolyline
90
4
66
1
70
1
10
611.999999999951
20
1707.4999999999993
10
245.99999999995163
20
1707.4999999999993
10
245.99999999995163
20
1698.4999999999993
10
611.999999999951
20
1698.4999999999995
0
LWPOLYLINE
5
ac
100
AcDbEntity
8
ABF_DSIDE_8
100
AcDbPolyline
90
5
66
1
70
1
10
611.9999999999508
20
2027.4999999999995
10
577.9999999999509
20
2027.499999999999
10
577.9999999999509
20
2035.499999999999
10
611.9999999999508
20
2035.499999999999
10
611.9999999999508
20
2027.4999999999995
0
LWPOLYLINE
5
ad
100
AcDbEntity
8
ABF_DSIDE_8
100
AcDbPolyline
90
5
66
1
70
1
10
245.99999999995137
20
2027.4999999999995
10
279.99999999995157
20
2027.4999999999995
10
279.99999999995157
20
2035.4999999999995
10
245.99999999995137
20
2035.499999999999
10
245.99999999995137
20
2027.4999999999995
0
LWPOLYLINE
5
ae
100
AcDbEntity
8
ABF_DSIDE_8
100
AcDbPolyline
90
5
66
1
70
1
10
611.9999999999505
20
2227.4999999999995
10
577.9999999999508
20
2227.499999999999
10
577.9999999999508
20
2235.499999999999
10
611.9999999999505
20
2235.499999999999
10
611.9999999999505
20
2227.4999999999995
0
LWPOLYLINE
5
af
100
AcDbEntity
8
ABF_DSIDE_8
100
AcDbPolyline
90
5
66
1
70
1
10
611.999999999951
20
1735.4999999999995
10
577.9999999999512
20
1735.4999999999995
10
577.9999999999512
20
1727.4999999999995
10
611.999999999951
20
1727.4999999999998
10
611.999999999951
20
1735.4999999999995
0
LWPOLYLINE
5
b0
100
AcDbEntity
8
ABF_DSIDE_8
100
AcDbPolyline
90
5
66
1
70
1
10
245.99999999995123
20
2227.4999999999995
10
279.99999999995146
20
2227.4999999999995
10
279.99999999995146
20
2235.4999999999995
10
245.99999999995123
20
2235.499999999999
10
245.99999999995123
20
2227.4999999999995
0
LWPOLYLINE
5
b1
100
AcDbEntity
8
ABF_DSIDE_8
100
AcDbPolyline
90
5
66
1
70
1
10
245.9999999999516
20
1735.4999999999995
10
279.9999999999518
20
1735.4999999999995
10
279.9999999999518
20
1727.4999999999995
10
245.9999999999516
20
1727.499999999999
10
245.9999999999516
20
1735.4999999999995
0
LWPOLYLINE
5
b2
100
AcDbEntity
8
ABF_DSIDE_8
100
AcDbPolyline
90
5
66
1
70
1
10
611.9999999999509
20
1985.4999999999995
10
577.999999999951
20
1985.4999999999993
10
577.999999999951
20
1977.4999999999993
10
611.9999999999509
20
1977.4999999999993
10
611.9999999999509
20
1985.4999999999995
0
LWPOLYLINE
5
b3
100
AcDbEntity
8
ABF_DSIDE_8
100
AcDbPolyline
90
5
66
1
70
1
10
245.9999999999514
20
1977.4999999999993
10
279.9999999999516
20
1977.4999999999993
10
279.9999999999516
20
1985.4999999999993
10
245.9999999999514
20
1985.4999999999989
10
245.9999999999514
20
1977.4999999999993
0
LWPOLYLINE
5
b4
100
AcDbEntity
8
_ABF_CUTTING_LINES
100
AcDbPolyline
90
5
66
1
70
1
10
171.50000000000063
20
2436.4999999999995
10
71.50000000000064
20
2436.499999999999
10
71.50000000000196
20
536.4999999999997
10
171.50000000000193
20
536.5
10
171.50000000000063
20
2436.4999999999995
0
LWPOLYLINE
5
b5
100
AcDbEntity
8
_ABF_CUTTING_LINES
100
AcDbPolyline
90
5
66
1
70
1
10
61.49999999993981
20
23.999999999999684
10
171.49999999994077
20
23.999999999999776
10
171.49999999994077
20
529.9999999999994
10
61.49999999993981
20
529.9999999999993
10
61.49999999993981
20
23.999999999999684
0
LWPOLYLINE
5
b6
100
AcDbEntity
8
_ABF_CUTTING_LINES
100
AcDbPolyline
90
5
66
1
70
1
10
1216.49999999994
20
100.99999999999869
10
1216.49999999994
20
467.0
10
1148.4999999999409
20
466.9999999999999
10
1148.4999999999409
20
100.99999999999864
10
1216.49999999994
20
100.99999999999869
0
LWPOLYLINE
5
b7
100
AcDbEntity
8
ABF_DSIDE_8
100
AcDbPolyline
90
5
66
1
70
1
10
1178.4999999999427
20
467.0000000000003
10
1178.4999999999427
20
433.0000000000004
10
1186.4999999999427
20
433.0000000000004
10
1186.4999999999427
20
467.0000000000003
10
1178.4999999999427
20
467.0000000000003
0
LWPOLYLINE
5
b8
100
AcDbEntity
8
ABF_DSIDE_8
100
AcDbPolyline
90
5
66
1
70
1
10
1186.4999999999432
20
100.99999999999872
10
1186.4999999999432
20
134.99999999999858
10
1178.4999999999432
20
134.99999999999855
10
1178.4999999999432
20
100.99999999999872
10
1186.4999999999432
20
100.99999999999872
0
LWPOLYLINE
5
b9
100
AcDbEntity
8
ABF_DSIDE_8
100
AcDbPolyline
90
5
66
1
70
1
10
1186.4999999999432
20
101.00000000000007
10
1186.4999999999432
20
135.00000000000028
10
1178.4999999999432
20
135.00000000000028
10
1178.4999999999432
20
101.00000000000007
10
1186.4999999999432
20
101.00000000000007
0
LWPOLYLINE
5
ba
100
AcDbEntity
8
ABF_DSIDE_8
100
AcDbPolyline
90
5
66
1
70
1
10
1178.4999999999427
20
467.0000000000006
10
1178.4999999999427
20
433.00000000000114
10
1186.4999999999427
20
433.00000000000114
10
1186.4999999999427
20
467.0000000000006
10
1178.4999999999427
20
467.0000000000006
0
LWPOLYLINE
5
bb
100
AcDbEntity
8
_ABF_CUTTING_LINES
100
AcDbPolyline
90
5
66
1
70
1
10
1141.9999999999518
20
101.00000000000013
10
1141.9999999999518
20
467.0000000000001
10
1073.9999999999513
20
467.0
10
1073.9999999999513
20
101.00000000000009
10
1141.9999999999518
20
101.00000000000013
0
LWPOLYLINE
5
bc
100
AcDbEntity
8
ABF_DSIDE_8
100
AcDbPolyline
90
5
66
1
70
1
10
1103.9999999999525
20
467.0000000000001
10
1103.9999999999525
20
433.0000000000002
10
1111.9999999999525
20
433.0000000000002
10
1111.9999999999525
20
467.0000000000001
10
1103.9999999999525
20
467.0000000000001
0
LWPOLYLINE
5
bd
100
AcDbEntity
8
ABF_DSIDE_8
100
AcDbPolyline
90
5
66
1
70
1
10
1111.999999999953
20
100.9999999999998
10
1111.999999999953
20
134.99999999999966
10
1103.999999999953
20
134.99999999999963
10
1103.999999999953
20
100.9999999999998
10
1111.999999999953
20
100.9999999999998
0
LWPOLYLINE
5
be
100
AcDbEntity
8
ABF_DSIDE_8
100
AcDbPolyline
90
5
66
1
70
1
10
1111.999999999953
20
100.9999999999998
10
1111.999999999953
20
134.99999999999966
10
1103.999999999953
20
134.99999999999963
10
1103.999999999953
20
100.9999999999998
10
1111.999999999953
20
100.9999999999998
0
LWPOLYLINE
5
bf
100
AcDbEntity
8
ABF_DSIDE_8
100
AcDbPolyline
90
5
66
1
70
1
10
1103.9999999999525
20
466.99999999999903
10
1103.9999999999525
20
432.9999999999988
10
1111.9999999999525
20
432.9999999999988
10
1111.9999999999525
20
466.99999999999903
10
1103.9999999999525
20
466.99999999999903
0
LWPOLYLINE
5
c0
100
AcDbEntity
8
_ABF_CUTTING_LINES
100
AcDbPolyline
90
5
66
1
70
1
10
1067.499999999942
20
100.99999999999874
10
1067.499999999942
20
467.0
10
999.499999999943
20
467.0
10
999.499999999943
20
100.99999999999869
10
1067.499999999942
20
100.99999999999874
0
CIRCLE
5
c1
100
AcDbEntity
8
ABF_D3
100
AcDbCircle
10
1018.499999999942
20
448.50000000000085
40
1.5000000000000198
0
CIRCLE
5
c2
100
AcDbEntity
8
ABF_D3
100
AcDbCircle
10
1036.4999999999418
20
448.50000000000085
40
1.5000000000000198
0
CIRCLE
5
c3
100
AcDbEntity
8
ABF_D3
100
AcDbCircle
10
1018.4999999999424
20
119.49999999999935
40
1.4999999999998619
0
CIRCLE
5
c4
100
AcDbEntity
8
ABF_D3
100
AcDbCircle
10
1036.4999999999422
20
119.49999999999953
40
1.5000000000000198
0
LWPOLYLINE
5
c5
100
AcDbEntity
8
_ABF_CUTTING_LINES
100
AcDbPolyline
90
5
66
1
70
1
10
992.9999999999525
20
100.99999999999973
10
992.9999999999525
20
466.99999999999966
10
924.999999999952
20
466.99999999999955
10
924.999999999952
20
100.99999999999963
10
992.9999999999525
20
100.99999999999973
0
CIRCLE
5
c6
100
AcDbEntity
8
ABF_D3
100
AcDbCircle
10
943.9999999999517
20
448.5000000000005
40
1.5000000000000198
0
CIRCLE
5
c7
100
AcDbEntity
8
ABF_D3
100
AcDbCircle
10
961.9999999999516
20
448.5000000000005
40
1.5000000000000198
0
CIRCLE
5
c8
100
AcDbEntity
8
ABF_D3
100
AcDbCircle
10
943.999999999952
20
119.50000000000044
40
1.4999999999998619
0
CIRCLE
5
c9
100
AcDbEntity
8
ABF_D3
100
AcDbCircle
10
961.9999999999519
20
119.50000000000061
40
1.5000000000000198
0
CIRCLE
5
ca
100
AcDbEntity
8
ABF_D3
100
AcDbCircle
10
943.9999999999517
20
448.4999999999997
40
1.499999999999749
0
CIRCLE
5
cb
100
AcDbEntity
8
ABF_D3
100
AcDbCircle
10
961.9999999999518
20
448.4999999999998
40
1.4999999999998392
0
CIRCLE
5
cc
100
AcDbEntity
8
ABF_D3
100
AcDbCircle
10
943.999999999952
20
119.50000000000044
40
1.4999999999998619
0
CIRCLE
5
cd
100
AcDbEntity
8
ABF_D3
100
AcDbCircle
10
961.9999999999521
20
119.50000000000055
40
1.499999999999952
0
LWPOLYLINE
5
ce
100
AcDbEntity
8
_ABF_SHEET_ID
100
AcDbPolyline
90
2
66
1
70
0
10
610.62131472826
20
1238.7755699849129
10
679.7043481588363
20
1214.6925832247732
0
LWPOLYLINE
5
cf
100
AcDbEntity
8
_ABF_SHEET_ID
100
AcDbPolyline
90
2
66
1
70
0
10
610.62131472826
20
1427.846210465431
10
683.3043464422226
20
1402.9658795690536
0
LWPOLYLINE
5
d0
100
AcDbEntity
8
_ABF_SHEET_ID
100
AcDbPolyline
90
2
66
1
70
0
10
724.7471792817115
20
1134.7027028179168
10
679.7043481588363
20
1041.450466505289
0
LWPOLYLINE
5
d1
100
AcDbEntity
8
_ABF_SHEET_ID
100
AcDbPolyline
90
2
66
1
70
0
10
713.1097673416137
20
1329.6403316593169
10
679.7043481588363
20
1261.304813466072
0
LWPOLYLINE
5
d2
100
AcDbEntity
8
_ABF_SHEET_ID
100
AcDbPolyline
90
2
66
1
70
0
10
679.7043481588363
20
1261.304813466072
10
610.62131472826
20
1238.7755699849129
0
LWPOLYLINE
5
d3
100
AcDbEntity
8
_ABF_SHEET_ID
100
AcDbPolyline
90
2
66
1
70
0
10
539.2327375233173
20
1402.9658795690536
10
610.62131472826
20
1427.846210465431
0
LWPOLYLINE
5
d4
100
AcDbEntity
8
_ABF_SHEET_ID
100
AcDbPolyline
90
2
66
1
70
0
10
683.3043464422226
20
1402.9658795690536
10
713.1097673416137
20
1329.6403316593169
0
LWPOLYLINE
5
d5
100
AcDbEntity
8
_ABF_SHEET_ID
100
AcDbPolyline
90
2
66
1
70
0
10
500.7723378397524
20
1329.6403316593169
10
539.2327375233173
20
1402.9658795690536
0
LWPOLYLINE
5
d6
100
AcDbEntity
8
_ABF_SHEET_ID
100
AcDbPolyline
90
2
66
1
70
0
10
610.62131472826
20
1014.2599999999999
10
533.6526911318302
20
1041.450466505289
0
LWPOLYLINE
5
d7
100
AcDbEntity
8
_ABF_SHEET_ID
100
AcDbPolyline
90
2
66
1
70
0
10
679.7043481588363
20
1041.450466505289
10
610.62131472826
20
1014.2599999999999
0
LWPOLYLINE
5
d8
100
AcDbEntity
8
_ABF_SHEET_ID
100
AcDbPolyline
90
2
66
1
70
0
10
679.7043481588363
20
1214.6925832247732
10
724.7471792817115
20
1134.7027028179168
0
LWPOLYLINE
5
d9
100
AcDbEntity
8
_ABF_SHEET_ID
100
AcDbPolyline
90
2
66
1
70
0
10
533.6526911318302
20
1041.450466505289
10
495.2528207182884
20
1122.0451473867893
0
LWPOLYLINE
5
da
100
AcDbEntity
8
_ABF_SHEET_MATERIAL
100
AcDbPolyline
90
2
66
1
70
0
10
120.00738662146675
20
2276.0370849142496
10
120.00738662146675
20
2112.2599999999998
0
LWPOLYLINE
5
db
100
AcDbEntity
8
_ABF_SHEET_MATERIAL
100
AcDbPolyline
90
2
66
1
70
0
10
100.9504492877007
20
2247.3382125138637
10
75.02999999999996
20
2222.1876236268063
0
LWPOLYLINE
5
dc
100
AcDbEntity
8
_ABF_SHEET_MATERIAL
100
AcDbPolyline
90
2
66
1
70
0
10
120.00738662146675
20
2276.0370849142496
10
100.9504492877007
20
2247.3382125138637
0
LWPOLYLINE
5
dd
100
AcDbEntity
8
_ABF_SHEET_MATERIAL
100
AcDbPolyline
90
2
66
1
70
0
10
75.02999999999996
20
2112.2599999999998
10
120.00738662146675
20
2112.2599999999998
0
LWPOLYLINE
5
de
100
AcDbEntity
8
_ABF_SHEET_MATERIAL
100
AcDbPolyline
90
2
66
1
70
0
10
120.00738662146675
20
2112.2599999999998
10
165.11661856176804
20
2112.2599999999998
0
LWPOLYLINE
5
df
100
AcDbEntity
8
_ABF_SHEET_MATERIAL
100
AcDbPolyline
90
2
66
1
70
0
10
228.6337747098927
20
2162.672895144977
10
219.56516888854287
20
2112.2599999999998
0
LWPOLYLINE
5
e0
100
AcDbEntity
8
_ABF_SHEET_MATERIAL
100
AcDbPolyline
90
2
66
1
70
0
10
192.18241584550603
20
2276.0370849142496
10
285.70518648295047
20
2276.0370849142496
0
LWPOLYLINE
5
e1
100
AcDbEntity
8
_ABF_SHEET_MATERIAL
100
AcDbPolyline
90
2
66
1
70
0
10
251.17560300697914
20
2221.776869371408
10
228.6337747098927
20
2162.672895144977
0
LWPOLYLINE
5
e2
100
AcDbEntity
8
_ABF_SHEET_MATERIAL
100
AcDbPolyline
90
2
66
1
70
0
10
285.70518648295047
20
2276.0370849142496
10
251.17560300697914
20
2221.776869371408
0
LWPOLYLINE
5
e3
100
AcDbEntity
8
_ABF_SHEET_MATERIAL
100
AcDbPolyline
90
2
66
1
70
0
10
381.75944746991433
20
2220.0617186885515
10
390.27910827791624
20
2191.312018245356
0
LWPOLYLINE
5
e4
100
AcDbEntity
8
_ABF_SHEET_MATERIAL
100
AcDbPolyline
90
2
66
1
70
0
10
312.77098376668846
20
2228.9697042379266
10
312.77098376668846
20
2197.349569126132
0
LWPOLYLINE
5
e5
100
AcDbEntity
8
_ABF_SHEET_MATERIAL
100
AcDbPolyline
90
2
66
1
70
0
10
390.27910827791624
20
2112.2599999999998
10
390.27910827791624
20
2191.312018245356
0
LWPOLYLINE
5
e6
100
AcDbEntity
8
_ABF_SHEET_MATERIAL
100
AcDbPolyline
90
2
66
1
70
0
10
360.48736304972834
20
2228.6827720851256
10
339.21691876422886
20
2223.7983649487646
0
LWPOLYLINE
5
e7
100
AcDbEntity
8
_ABF_SHEET_MATERIAL
100
AcDbPolyline
90
2
66
1
70
0
10
466.84711834180223
20
2112.2599999999998
10
466.84711834180223
20
2191.312018245356
0
LWPOLYLINE
5
e8
100
AcDbEntity
8
_ABF_SHEET_MATERIAL
100
AcDbPolyline
90
2
66
1
70
0
10
312.77098376668846
20
2197.349569126132
10
339.21691876422886
20
2223.7983649487646
0
LWPOLYLINE
5
e9
100
AcDbEntity
8
_ABF_SHEET_MATERIAL
100
AcDbPolyline
90
2
66
1
70
0
10
312.77098376668846
20
2197.349569126132
10
312.77098376668846
20
2112.2599999999998
0
LWPOLYLINE
5
ea
100
AcDbEntity
8
_ABF_SHEET_MATERIAL
100
AcDbPolyline
90
2
66
1
70
0
10
433.2158930973007
20
2228.682793595089
10
459.0859902501248
20
2220.0617186885515
0
LWPOLYLINE
5
eb
100
AcDbEntity
8
_ABF_SHEET_MATERIAL
100
AcDbPolyline
90
2
66
1
70
0
10
459.0859902501248
20
2220.0617186885515
10
466.84711834180223
20
2191.312018245356
0
LWPOLYLINE
5
ec
100
AcDbEntity
8
_ABF_SHEET_MATERIAL
100
AcDbPolyline
90
2
66
1
70
0
10
410.79529495225785
20
2220.313804701127
10
433.2158930973007
20
2228.682793595089
0
LWPOLYLINE
5
ed
100
AcDbEntity
8
_ABF_SHEET_MATERIAL
100
AcDbPolyline
90
2
66
1
70
0
10
381.75944746991433
20
2220.0617186885515
10
360.48736304972834
20
2228.6827720851256
0
LWPOLYLINE
5
ee
100
AcDbEntity
8
_ABF_SHEET_MATERIAL
100
AcDbPolyline
90
2
66
1
70
0
10
390.27910827791624
20
2191.312018245356
10
410.79529495225785
20
2220.313804701127
0
LWPOLYLINE
5
ef
100
AcDbEntity
8
_ABF_SHEET_MATERIAL
100
AcDbPolyline
90
2
66
1
70
0
10
562.9013793287661
20
2220.0617186885515
10
571.4210401367679
20
2191.312018245356
0
LWPOLYLINE
5
f0
100
AcDbEntity
8
_ABF_SHEET_MATERIAL
100
AcDbPolyline
90
2
66
1
70
0
10
493.91291562554017
20
2228.9697042379266
10
493.91291562554017
20
2197.349569126132
0
LWPOLYLINE
5
f1
100
AcDbEntity
8
_ABF_SHEET_MATERIAL
100
AcDbPolyline
90
2
66
1
70
0
10
571.4210401367679
20
2112.2599999999998
10
571.4210401367679
20
2191.312018245356
0
LWPOLYLINE
5
f2
100
AcDbEntity
8
_ABF_SHEET_MATERIAL
100
AcDbPolyline
90
2
66
1
70
0
10
541.6292949085802
20
2228.6827720851256
10
520.3588506230807
20
2223.7983649487646
0
LWPOLYLINE
5
f3
100
AcDbEntity
8
_ABF_SHEET_MATERIAL
100
AcDbPolyline
90
2
66
1
70
0
10
647.989050200654
20
2112.2599999999998
10
647.989050200654
20
2191.312018245356
0
LWPOLYLINE
5
f4
100
AcDbEntity
8
_ABF_SHEET_MATERIAL
100
AcDbPolyline
90
2
66
1
70
0
10
493.91291562554017
20
2197.349569126132
10
520.3588506230807
20
2223.7983649487646
0
LWPOLYLINE
5
f5
100
AcDbEntity
8
_ABF_SHEET_MATERIAL
100
AcDbPolyline
90
2
66
1
70
0
10
493.91291562554017
20
2197.349569126132
10
493.91291562554017
20
2112.2599999999998
0
LWPOLYLINE
5
f6
100
AcDbEntity
8
_ABF_SHEET_MATERIAL
100
AcDbPolyline
90
2
66
1
70
0
10
614.3578249561524
20
2228.682793595089
10
640.2279221089765
20
2220.0617186885515
0
LWPOLYLINE
5
f7
100
AcDbEntity
8
_ABF_SHEET_MATERIAL
100
AcDbPolyline
90
2
66
1
70
0
10
640.2279221089765
20
2220.0617186885515
10
647.989050200654
20
2191.312018245356
0
LWPOLYLINE
5
f8
100
AcDbEntity
8
_ABF_SHEET_MATERIAL
100
AcDbPolyline
90
2
66
1
70
0
10
591.9372268111097
20
2220.313804701127
10
614.3578249561524
20
2228.682793595089
0
LWPOLYLINE
5
f9
100
AcDbEntity
8
_ABF_SHEET_MATERIAL
100
AcDbPolyline
90
2
66
1
70
0
10
562.9013793287661
20
2220.0617186885515
10
541.6292949085802
20
2228.6827720851256
0
LWPOLYLINE
5
fa
100
AcDbEntity
8
_ABF_SHEET_MATERIAL
100
AcDbPolyline
90
2
66
1
70
0
10
571.4210401367679
20
2191.312018245356
10
591.9372268111097
20
2220.313804701127
0
LWPOLYLINE
5
fb
100
AcDbEntity
8
_ABF_SHEET_MATERIAL
100
AcDbPolyline
90
2
66
1
70
0
10
675.054847484392
20
2173.648380705294
10
797.0853637450779
20
2173.648380705294
0
LWPOLYLINE
5
fc
100
AcDbEntity
8
_ABF_SHEET_MATERIAL
100
AcDbPolyline
90
2
66
1
70
0
10
838.2143130638461
20
2196.1330516529274
10
824.1511610288159
20
2163.545280096001
0
LWPOLYLINE
5
fd
100
AcDbEntity
8
_ABF_SHEET_MATERIAL
100
AcDbPolyline
90
2
66
1
70
0
10
914.2377795905838
20
2163.545280096001
10
901.1598295743029
20
2127.282167018075
0
LWPOLYLINE
5
fe
100
AcDbEntity
8
_ABF_SHEET_MATERIAL
100
AcDbPolyline
90
2
66
1
70
0
10
824.1511610288159
20
2218.492470085417
10
838.7243075671344
20
2261.9502961185153
0
LWPOLYLINE
5
ff
100
AcDbEntity
8
_ABF_SHEET_MATERIAL
100
AcDbPolyline
90
2
66
1
70
0
10
900.7970855565485
20
2199.679184169945
10
869.5572842348344
20
2212.2660993710397
0
LWPOLYLINE
5
100
100
AcDbEntity
8
_ABF_SHEET_MATERIAL
100
AcDbPolyline
90
2
66
1
70
0
10
838.7243075671344
20
2261.9502961185153
10
869.5572842348344
20
2276.006110567382
0
LWPOLYLINE
5
101
100
AcDbEntity
8
_ABF_SHEET_MATERIAL
100
AcDbPolyline
90
2
66
1
70
0
10
914.2377795905838
20
2163.545280096001
10
900.7970855565485
20
2199.679184169945
0
LWPOLYLINE
5
102
100
AcDbEntity
8
_ABF_SHEET_MATERIAL
100
AcDbPolyline
90
2
66
1
70
0
10
869.5572842348344
20
2276.006110567382
10
897.526791428862
20
2265.01644456389
0
LWPOLYLINE
5
103
100
AcDbEntity
8
_ABF_SHEET_MATERIAL
100
AcDbPolyline
90
2
66
1
70
0
10
901.1598295743029
20
2127.282167018075
10
869.5572842348344
20
2112.2599999999998
0
LWPOLYLINE
5
104
100
AcDbEntity
8
_ABF_SHEET_MATERIAL
100
AcDbPolyline
90
2
66
1
70
0
10
869.5572842348344
20
2112.2599999999998
10
836.1384940746749
20
2127.282167018075
0
LWPOLYLINE
5
105
100
AcDbEntity
8
_ABF_SHEET_MATERIAL
100
AcDbPolyline
90
2
66
1
70
0
10
869.5572842348344
20
2212.2660993710397
10
838.2143130638461
20
2196.1330516529274
0
LWPOLYLINE
5
106
100
AcDbEntity
8
_ABF_SHEET_MATERIAL
100
AcDbPolyline
90
2
66
1
70
0
10
824.1511610288159
20
2163.545280096001
10
824.1511610288159
20
2218.492470085417
0
LWPOLYLINE
5
107
100
AcDbEntity
8
_ABF_SHEET_MATERIAL
100
AcDbPolyline
90
2
66
1
70
0
10
836.1384940746749
20
2127.282167018075
10
824.1511610288159
20
2163.545280096001
0
LWPOLYLINE
5
108
100
AcDbEntity
8
_ABF_SHEET_MATERIAL
100
AcDbPolyline
90
2
66
1
70
0
10
897.526791428862
20
2265.01644456389
10
908.7876711796181
20
2247.435555851883
0
LWPOLYLINE
5
109
100
AcDbEntity
8
_ABF_SHEET_MATERIAL
100
AcDbPolyline
90
2
66
1
70
0
10
941.3035768743221
20
2112.2599999999998
10
1027.9709609463937
20
2112.2599999999998
0
LWPOLYLINE
5
10a
100
AcDbEntity
8
_ABF_SHEET_MATERIAL
100
AcDbPolyline
90
2
66
1
70
0
10
1020.2985668300032
20
2203.4450678475046
10
954.2360496326525
20
2139.93403289713
0
LWPOLYLINE
5
10b
100
AcDbEntity
8
_ABF_SHEET_MATERIAL
100
AcDbPolyline
90
2
66
1
70
0
10
956.2063756965348
20
2262.1531243155864
10
944.3899779582373
20
2229.8449984114604
0
LWPOLYLINE
5
10c
100
AcDbEntity
8
_ABF_SHEET_MATERIAL
100
AcDbPolyline
90
2
66
1
70
0
10
954.2360496326525
20
2139.93403289713
10
941.3035768743221
20
2112.2599999999998
0
LWPOLYLINE
5
10d
100
AcDbEntity
8
_ABF_SHEET_MATERIAL
100
AcDbPolyline
90
2
66
1
70
0
10
1020.2985668300032
20
2203.4450678475046
10
1030.7316732932093
20
2235.8279838933368
0
LWPOLYLINE
5
10e
100
AcDbEntity
8
_ABF_SHEET_MATERIAL
100
AcDbPolyline
90
2
66
1
70
0
10
987.3179050420348
20
2273.819945467497
10
956.2063756965348
20
2262.1531243155864
0
LWPOLYLINE
5
10f
100
AcDbEntity
8
_ABF_SHEET_MATERIAL
100
AcDbPolyline
90
2
66
1
70
0
10
1030.7316732932093
20
2235.8279838933368
10
1017.1580476872025
20
2262.826203325997
0
LWPOLYLINE
5
110
100
AcDbEntity
8
_ABF_SHEET_MATERIAL
100
AcDbPolyline
90
2
66
1
70
0
10
1017.1580476872025
20
2262.826203325997
10
987.3179050420348
20
2273.819945467497
0
LWPOLYLINE
5
111
100
AcDbEntity
8
_ABF_SHEET_MATERIAL
100
AcDbPolyline
90
2
66
1
70
0
10
1130.4842282761751
20
2263.745829533484
10
1144.9699999999998
20
2219.8315190634326
0
LWPOLYLINE
5
112
100
AcDbEntity
8
_ABF_SHEET_MATERIAL
100
AcDbPolyline
90
2
66
1
70
0
10
1101.7378995196955
20
2112.2599999999998
10
1134.1297314452336
20
2125.7297889478764
0
LWPOLYLINE
5
113
100
AcDbEntity
8
_ABF_SHEET_MATERIAL
100
AcDbPolyline
90
2
66
1
70
0
10
1071.045529447676
20
2125.6790872760994
10
1101.7378995196955
20
2112.2599999999998
0
LWPOLYLINE
5
114
100
AcDbEntity
8
_ABF_SHEET_MATERIAL
100
AcDbPolyline
90
2
66
1
70
0
10
1144.9699999999998
20
2219.8315190634326
10
1144.9699999999998
20
2168.784262841629
0
LWPOLYLINE
5
115
100
AcDbEntity
8
_ABF_SHEET_MATERIAL
100
AcDbPolyline
90
2
66
1
70
0
10
1144.9699999999998
20
2168.784262841629
10
1134.1297314452336
20
2125.7297889478764
0
LWPOLYLINE
5
116
100
AcDbEntity
8
_ABF_SHEET_MATERIAL
100
AcDbPolyline
90
2
66
1
70
0
10
1072.296777445054
20
2263.745829533484
10
1057.797470576947
20
2219.8315190634326
0
LWPOLYLINE
5
117
100
AcDbEntity
8
_ABF_SHEET_MATERIAL
100
AcDbPolyline
90
2
66
1
70
0
10
1057.7974705769468
20
2168.784262841629
10
1071.045529447676
20
2125.6790872760994
0
LWPOLYLINE
5
118
100
AcDbEntity
8
_ABF_SHEET_MATERIAL
100
AcDbPolyline
90
2
66
1
70
0
10
1057.797470576947
20
2219.8315190634326
10
1057.7974705769468
20
2168.784262841629
0
LWPOLYLINE
5
119
100
AcDbEntity
8
_ABF_SHEET_MATERIAL
100
AcDbPolyline
90
2
66
1
70
0
10
1130.4842282761751
20
2263.745829533484
10
1101.4434872772258
20
2276.0370849142496
0
LWPOLYLINE
5
11a
100
AcDbEntity
8
_ABF_SHEET_MATERIAL
100
AcDbPolyline
90
2
66
1
70
0
10
1101.4434872772258
20
2276.0370849142496
10
1072.296777445054
20
2263.745829533484
0
ENDSEC
0
SECTION
2
OBJECTS
0
DICTIONARY
5
C
330
0
100
AcDbDictionary
281
1
3
ACAD_GROUP
350
D
0
DICTIONARY
5
D
330
C
100
AcDbDictionary
281
1
0
ENDSEC
0
EOF
