0
SECTION
2
HEADER
9
$ACADVER
1
AC1015
9
$HANDSEED
5
20000
0
ENDSEC
0
SECTION
2
CLASSES
0
ENDSEC
0
SECTION
2
TABLES
0
TABLE
2
VPORT
5
8
330
0
100
AcDbSymbolTable
70
1
0
VPORT
5
31
330
2
100
AcDbSymbolTableRecord
100
AcDbViewportTableRecord
2
*ACTIVE
70
0
10
0
20
0
11
1
21
1
12
209.475294253
22
86.0026335861
13
0
23
0
14
10
24
10
15
10
25
10
16
0
26
0
36
1
17
0
27
0
37
0
40
319.744231092
41
2.12946428571
42
50
43
0
44
0
50
0
51
0
71
0
72
100
73
1
74
3
75
0
76
0
77
0
78
0
281
0
65
1
110
0
120
0
130
0
111
1
121
0
131
0
112
0
122
1
132
0
79
0
146
0
348
10020
60
7
61
5
292
1
282
1
141
0
142
0
63
250
421
3358443
0
ENDTAB
0
TABLE
2
LTYPE
5
5
330
0
100
AcDbSymbolTable
70
4
0
LTYPE
5
14
330
5
100
AcDbSymbolTableRecord
100
AcDbLinetypeTableRecord
2
ByBlock
70
0
3

72
65
73
0
40
0
0
LTYPE
5
15
330
5
100
AcDbSymbolTableRecord
100
AcDbLinetypeTableRecord
2
ByLayer
70
0
3

72
65
73
0
40
0
0
LTYPE
5
16
330
5
100
AcDbSymbolTableRecord
100
AcDbLinetypeTableRecord
2
Continuous
70
0
3
Solid line
72
65
73
0
40
0
0
ENDTAB
0
TABLE
2
LAYER
5
2
330
0
100
AcDbSymbolTable
70
1
0
LAYER
5
10
330
2
100
AcDbSymbolTableRecord
100
AcDbLayerTableRecord
2
0
70
0
62
7
6
CONTINUOUS
370
-3
390
F
0
LAYER
5
e0
100
AcDbSymbolTableRecord
100
AcDbLayerTableRecord
2
_ABF_SHEET_ID
70
0
62
100
6
Continuous
390
13
0
LAYER
5
e1
100
AcDbSymbolTableRecord
100
AcDbLayerTableRecord
2
_ABF_SHEET_MATERIAL
70
0
62
1
6
Continuous
390
13
0
LAYER
5
e2
100
AcDbSymbolTableRecord
100
AcDbLayerTableRecord
2
_ABF_SHEET_BORDER
70
0
62
30
6
Continuous
390
13
0
LAYER
5
e3
100
AcDbSymbolTableRecord
100
AcDbLayerTableRecord
2
_ABF_CUTTING_LINES
70
0
62
54
6
Continuous
390
13
0
LAYER
5
e4
100
AcDbSymbolTableRecord
100
AcDbLayerTableRecord
2
ABF_D3
70
0
62
190
6
Continuous
390
13
0
LAYER
5
e5
100
AcDbSymbolTableRecord
100
AcDbLayerTableRecord
2
ABF_DSIDE_8
70
0
62
190
6
Continuous
390
13
0
ENDTAB
0
TABLE
2
STYLE
5
3
330
0
100
AcDbSymbolTable
70
3
0
STYLE
5
45
330
2
100
AcDbSymbolTableRecord
100
AcDbTextStyleTableRecord
2
Standard
70
0
40
0
41
1
50
0
71
0
42
1
3
txt
4

0
ENDTAB
0
TABLE
2
VIEW
5
6
330
0
100
AcDbSymbolTable
70
0
0
ENDTAB
0
TABLE
2
UCS
5
7
330
0
100
AcDbSymbolTable
70
0
0
ENDTAB
0
TABLE
2
APPID
5
9
330
0
100
AcDbSymbolTable
70
1
0
APPID
5
12
330
9
100
AcDbSymbolTableRecord
100
AcDbRegAppTableRecord
2
ACAD
70
0
0
ENDTAB
0
TABLE
2
DIMSTYLE
5
A
330
0
100
AcDbSymbolTable
70
1
100
AcDbDimStyleTable
71
1
0
DIMSTYLE
105
46
330
A
100
AcDbSymbolTableRecord
100
AcDbDimStyleTableRecord
2
Standard
70
0
40
1
41
0.18
42
0.0625
43
0.38
44
0.18
45
0
46
0
47
0
48
0
140
0.18
141
0.09
142
0
143
25.4
144
1
145
0
146
1
147
0.09
148
0
71
0
72
0
73
0
74
1
75
0
76
0
77
0
78
0
79
0
170
0
171
2
172
0
173
0
174
0
175
0
176
0
177
0
178
0
179
0
271
4
272
4
273
2
274
2
275
0
276
0
277
2
278
46
279
0
280
0
281
0
282
0
283
1
284
0
285
0
286
0
288
0
289
3
340
Standard
341

371
-2
372
-2
0
ENDTAB
0
TABLE
2
BLOCK_RECORD
5
1
330
0
100
AcDbSymbolTable
70
2
0
BLOCK_RECORD
5
1F
330
1
100
AcDbSymbolTableRecord
100
AcDbBlockTableRecord
2
*Model_Space
70
0
280
1
281
0
0
BLOCK_RECORD
5
1E
330
1
100
AcDbSymbolTableRecord
100
AcDbBlockTableRecord
2
*Paper_Space
70
0
280
1
281
0
0
ENDTAB
0
ENDSEC
0
SECTION
2
BLOCKS
0
BLOCK
5
20
330
1F
100
AcDbEntity
8
0
100
AcDbBlockBegin
2
*Model_Space
70
0
10
0
20
0
30
0
3
*Model_Space
1

0
ENDBLK
5
21
330
1F
100
AcDbEntity
8
0
100
AcDbBlockEnd
0
BLOCK
5
1C
330
1B
100
AcDbEntity
8
0
100
AcDbBlockBegin
2
*Paper_Space
70
0
10
0
20
0
30
0
3
*Paper_Space
1

0
ENDBLK
5
1D
330
1E
100
AcDbEntity
8
0
100
AcDbBlockEnd
0
ENDSEC
0
SECTION
2
ENTITIES
0
LWPOLYLINE
5
65
100
AcDbEntity
8
_ABF_SHEET_BORDER
100
AcDbPolyline
90
5
66
1
70
1
10
0.0
20
0.0
10
1220.0
20
0.0
10
1220.0
20
2440.0
10
0.0
20
2440.0
10
0.0
20
0.0
0
LWPOLYLINE
5
66
100
AcDbEntity
8
_ABF_CUTTING_LINES
100
AcDbPolyline
90
5
66
1
70
1
10
1216.5000000000016
20
736.4999999999967
10
1216.5000000000005
20
2436.5
10
1116.5000000000005
20
2436.5
10
1116.5000000000016
20
736.4999999999967
10
1216.5000000000016
20
736.4999999999967
0
LWPOLYLINE
5
67
100
AcDbEntity
8
_ABF_CUTTING_LINES
100
AcDbPolyline
90
5
66
1
70
1
10
1040.0
20
2436.5
10
1040.0000000000016
20
536.5000000000003
10
1110.0000000000016
20
536.5000000000003
10
1109.9999999999998
20
2436.5
10
1040.0
20
2436.5
0
LWPOLYLINE
5
68
100
AcDbEntity
8
_ABF_CUTTING_LINES
100
AcDbPolyline
90
5
66
1
70
1
10
963.5000000000003
20
2436.4999999999995
10
963.5000000000018
20
736.4999999999964
10
1033.5000000000018
20
736.4999999999964
10
1033.5000000000002
20
2436.4999999999995
10
963.5000000000003
20
2436.4999999999995
0
LWPOLYLINE
5
69
100
AcDbEntity
8
_ABF_CUTTING_LINES
100
AcDbPolyline
90
5
66
1
70
1
10
956.999999999953
20
1470.4999999999998
10
956.9999999999524
20
2436.5
10
888.9999999999523
20
2436.4999999999995
10
888.9999999999534
20
1470.4999999999998
10
956.999999999953
20
1470.4999999999998
0
LWPOLYLINE
5
6a
100
AcDbEntity
8
ABF_DSIDE_8
100
AcDbPolyline
90
5
66
1
70
1
10
918.9999999999525
20
2436.5000000000005
10
918.9999999999525
20
2402.5000000000005
10
926.9999999999525
20
2402.5000000000005
10
926.9999999999525
20
2436.5000000000005
10
918.9999999999525
20
2436.5000000000005
0
LWPOLYLINE
5
6b
100
AcDbEntity
8
ABF_DSIDE_8
100
AcDbPolyline
90
5
66
1
70
1
10
926.9999999999534
20
1470.5
10
926.9999999999534
20
1504.4999999999998
10
918.9999999999534
20
1504.4999999999998
10
918.9999999999534
20
1470.5
10
926.9999999999534
20
1470.5
0
LWPOLYLINE
5
6c
100
AcDbEntity
8
ABF_DSIDE_8
100
AcDbPolyline
90
5
66
1
70
1
10
926.9999999999534
20
1470.5
10
926.9999999999534
20
1504.5000000000002
10
918.9999999999534
20
1504.5000000000002
10
918.9999999999534
20
1470.5
10
926.9999999999534
20
1470.5
0
LWPOLYLINE
5
6d
100
AcDbEntity
8
ABF_DSIDE_8
100
AcDbPolyline
90
5
66
1
70
1
10
918.9999999999525
20
2436.5
10
918.9999999999525
20
2402.4999999999995
10
926.9999999999525
20
2402.4999999999995
10
926.9999999999525
20
2436.5
10
918.9999999999525
20
2436.5
0
LWPOLYLINE
5
6e
100
AcDbEntity
8
_ABF_CUTTING_LINES
100
AcDbPolyline
90
5
66
1
70
1
10
956.9999999999542
20
497.99999999999955
10
956.9999999999527
20
1463.9999999999995
10
888.999999999953
20
1463.9999999999993
10
888.9999999999537
20
497.9999999999994
10
956.9999999999542
20
497.99999999999955
0
CIRCLE
5
6f
100
AcDbEntity
8
ABF_D3
100
AcDbCircle
10
907.9999999999534
20
1445.5000000000005
40
1.4999999999998392
0
CIRCLE
5
70
100
AcDbEntity
8
ABF_D3
100
AcDbCircle
10
925.9999999999533
20
1445.5000000000005
40
1.4999999999998392
0
CIRCLE
5
71
100
AcDbEntity
8
ABF_D3
100
AcDbCircle
10
907.9999999999541
20
516.5000000000003
40
1.4999999999998392
0
CIRCLE
5
72
100
AcDbEntity
8
ABF_D3
100
AcDbCircle
10
925.999999999954
20
516.5000000000006
40
1.5000000000000198
0
LWPOLYLINE
5
73
100
AcDbEntity
8
_ABF_CUTTING_LINES
100
AcDbPolyline
90
5
66
1
70
1
10
882.4999999999379
20
2436.4999999999995
10
772.4999999999369
20
2436.4999999999995
10
772.4999999999369
20
1930.4999999999998
10
882.4999999999379
20
1930.4999999999998
10
882.4999999999379
20
2436.4999999999995
0
LWPOLYLINE
5
74
100
AcDbEntity
8
_ABF_CUTTING_LINES
100
AcDbPolyline
90
5
66
1
70
1
10
772.4999999999369
20
1417.9999999999998
10
882.4999999999379
20
1418.0
10
882.4999999999379
20
1923.9999999999995
10
772.4999999999369
20
1923.9999999999995
10
772.4999999999369
20
1417.9999999999998
0
LWPOLYLINE
5
75
100
AcDbEntity
8
_ABF_CUTTING_LINES
100
AcDbPolyline
90
5
66
1
70
1
10
882.4999999999408
20
1411.4999999999995
10
772.4999999999399
20
1411.4999999999993
10
772.4999999999399
20
905.4999999999998
10
882.4999999999408
20
905.4999999999998
10
882.4999999999408
20
1411.4999999999995
0
LWPOLYLINE
5
76
100
AcDbEntity
8
_ABF_CUTTING_LINES
100
AcDbPolyline
90
5
66
1
70
1
10
772.4999999999311
20
398.9999999999995
10
882.4999999999321
20
398.9999999999996
10
882.4999999999321
20
898.9999999999997
10
772.4999999999311
20
898.9999999999994
10
772.4999999999311
20
398.9999999999995
0
LWPOLYLINE
5
77
100
AcDbEntity
8
_ABF_CUTTING_LINES
100
AcDbPolyline
90
5
66
1
70
1
10
765.9999999999355
20
2436.499999999999
10
655.9999999999345
20
2436.4999999999986
10
655.9999999999345
20
1936.4999999999989
10
765.9999999999355
20
1936.4999999999993
10
765.9999999999355
20
2436.499999999999
0
LWPOLYLINE
5
78
100
AcDbEntity
8
_ABF_CUTTING_LINES
100
AcDbPolyline
90
5
66
1
70
1
10
765.9999999999384
20
1929.9999999999995
10
655.9999999999375
20
1929.9999999999995
10
655.9999999999375
20
1429.9999999999995
10
765.9999999999384
20
1429.9999999999995
10
765.9999999999384
20
1929.9999999999995
0
LWPOLYLINE
5
79
100
AcDbEntity
8
_ABF_CUTTING_LINES
100
AcDbPolyline
90
5
66
1
70
1
10
655.9999999999345
20
923.4999999999993
10
765.9999999999355
20
923.4999999999995
10
765.9999999999355
20
1423.4999999999995
10
655.9999999999345
20
1423.4999999999995
10
655.9999999999345
20
923.4999999999993
0
LWPOLYLINE
5
7a
100
AcDbEntity
8
_ABF_CUTTING_LINES
100
AcDbPolyline
90
5
66
1
70
1
10
765.9999999999528
20
250.99999999999878
10
765.9999999999528
20
916.9999999999993
10
697.9999999999538
20
916.9999999999993
10
697.9999999999538
20
250.9999999999987
10
765.9999999999528
20
250.99999999999878
0
LWPOLYLINE
5
7b
100
AcDbEntity
8
ABF_DSIDE_8
100
AcDbPolyline
90
5
66
1
70
1
10
727.9999999999525
20
916.9999999999993
10
727.9999999999525
20
882.9999999999995
10
735.9999999999525
20
882.9999999999995
10
735.9999999999525
20
916.9999999999993
10
727.9999999999525
20
916.9999999999993
0
LWPOLYLINE
5
7c
100
AcDbEntity
8
ABF_DSIDE_8
100
AcDbPolyline
90
5
66
1
70
1
10
735.999999999953
20
250.99999999999855
10
735.999999999953
20
284.9999999999984
10
727.999999999953
20
284.9999999999984
10
727.999999999953
20
250.99999999999855
10
735.999999999953
20
250.99999999999855
0
LWPOLYLINE
5
7d
100
AcDbEntity
8
ABF_DSIDE_8
100
AcDbPolyline
90
5
66
1
70
1
10
735.999999999953
20
250.99999999999923
10
735.999999999953
20
284.99999999999943
10
727.999999999953
20
284.99999999999943
10
727.999999999953
20
250.99999999999923
10
735.999999999953
20
250.99999999999923
0
LWPOLYLINE
5
7e
100
AcDbEntity
8
ABF_DSIDE_8
100
AcDbPolyline
90
5
66
1
70
1
10
727.9999999999525
20
916.9999999999992
10
727.9999999999525
20
882.999999999999
10
735.9999999999525
20
882.999999999999
10
735.9999999999525
20
916.9999999999992
10
727.9999999999525
20
916.9999999999992
0
LWPOLYLINE
5
7f
100
AcDbEntity
8
_ABF_CUTTING_LINES
100
AcDbPolyline
90
5
66
1
70
1
10
691.4999999999495
20
250.99999999999878
10
691.4999999999495
20
916.9999999999995
10
623.4999999999505
20
916.9999999999993
10
623.4999999999505
20
250.99999999999878
10
691.4999999999495
20
250.99999999999878
0
CIRCLE
5
80
100
AcDbEntity
8
ABF_D3
100
AcDbCircle
10
642.4999999999492
20
898.5
40
1.5000000000000198
0
CIRCLE
5
81
100
AcDbEntity
8
ABF_D3
100
AcDbCircle
10
660.4999999999492
20
898.5
40
1.5000000000000198
0
CIRCLE
5
82
100
AcDbEntity
8
ABF_D3
100
AcDbCircle
10
642.4999999999498
20
269.4999999999992
40
1.4999999999999296
0
CIRCLE
5
83
100
AcDbEntity
8
ABF_D3
100
AcDbCircle
10
660.4999999999498
20
269.49999999999926
40
1.4999999999999747
0
LWPOLYLINE
5
84
100
AcDbEntity
8
_ABF_CUTTING_LINES
100
AcDbPolyline
90
5
66
1
70
1
10
1126.4999999999343
20
224.00000000000048
10
1216.499999999934
20
224.00000000000057
10
1216.499999999934
20
730.0000000000002
10
1126.4999999999343
20
730.0000000000001
10
1126.4999999999343
20
224.00000000000048
0
LWPOLYLINE
5
85
100
AcDbEntity
8
_ABF_CUTTING_LINES
100
AcDbPolyline
90
5
66
1
70
1
10
649.499999999936
20
1429.4999999999995
10
559.4999999999363
20
1429.4999999999993
10
559.4999999999363
20
923.4999999999997
10
649.499999999936
20
923.4999999999999
10
649.499999999936
20
1429.4999999999995
0
LWPOLYLINE
5
86
100
AcDbEntity
8
_ABF_CUTTING_LINES
100
AcDbPolyline
90
5
66
1
70
1
10
559.4999999999334
20
1435.9999999999993
10
649.4999999999332
20
1435.9999999999993
10
649.4999999999332
20
1935.9999999999993
10
559.4999999999334
20
1935.9999999999993
10
559.4999999999334
20
1435.9999999999993
0
LWPOLYLINE
5
87
100
AcDbEntity
8
_ABF_CUTTING_LINES
100
AcDbPolyline
90
5
66
1
70
1
10
616.9999999999376
20
916.9999999999995
10
526.9999999999379
20
916.9999999999995
10
526.9999999999379
20
416.9999999999995
10
616.9999999999376
20
416.99999999999955
10
616.9999999999376
20
916.9999999999995
0
LWPOLYLINE
5
88
100
AcDbEntity
8
_ABF_CUTTING_LINES
100
AcDbPolyline
90
5
66
1
70
1
10
1033.4999999999498
20
163.99999999999926
10
1033.4999999999498
20
729.9999999999997
10
965.4999999999493
20
729.9999999999997
10
965.4999999999493
20
163.99999999999926
10
1033.4999999999498
20
163.99999999999926
0
LWPOLYLINE
5
89
100
AcDbEntity
8
ABF_DSIDE_8
100
AcDbPolyline
90
5
66
1
70
1
10
995.499999999951
20
729.9999999999999
10
995.499999999951
20
696.0000000000001
10
1003.499999999951
20
696.0000000000001
10
1003.499999999951
20
729.9999999999999
10
995.499999999951
20
729.9999999999999
0
LWPOLYLINE
5
8a
100
AcDbEntity
8
ABF_DSIDE_8
100
AcDbPolyline
90
5
66
1
70
1
10
1003.4999999999516
20
163.99999999999918
10
1003.4999999999516
20
197.99999999999903
10
995.4999999999516
20
197.99999999999903
10
995.4999999999516
20
163.99999999999918
10
1003.4999999999516
20
163.99999999999918
0
LWPOLYLINE
5
8b
100
AcDbEntity
8
ABF_DSIDE_8
100
AcDbPolyline
90
5
66
1
70
1
10
1003.4999999999516
20
163.99999999999986
10
1003.4999999999516
20
198.00000000000006
10
995.4999999999516
20
198.00000000000006
10
995.4999999999516
20
163.99999999999986
10
1003.4999999999516
20
163.99999999999986
0
LWPOLYLINE
5
8c
100
AcDbEntity
8
ABF_DSIDE_8
100
AcDbPolyline
90
5
66
1
70
1
10
995.499999999951
20
729.9999999999995
10
995.499999999951
20
695.9999999999993
10
1003.499999999951
20
695.9999999999993
10
1003.499999999951
20
729.9999999999995
10
995.499999999951
20
729.9999999999995
0
LWPOLYLINE
5
8d
100
AcDbEntity
8
_ABF_CUTTING_LINES
100
AcDbPolyline
90
5
66
1
70
1
10
552.9999999999508
20
923.499999999999
10
552.9999999999508
20
1489.4999999999993
10
484.9999999999503
20
1489.4999999999993
10
484.9999999999503
20
923.499999999999
10
552.9999999999508
20
923.499999999999
0
CIRCLE
5
8e
100
AcDbEntity
8
ABF_D3
100
AcDbCircle
10
503.9999999999499
20
1470.9999999999998
40
1.5000000000000198
0
CIRCLE
5
8f
100
AcDbEntity
8
ABF_D3
100
AcDbCircle
10
521.9999999999499
20
1470.9999999999998
40
1.5000000000000198
0
CIRCLE
5
90
100
AcDbEntity
8
ABF_D3
100
AcDbCircle
10
503.99999999995043
20
941.9999999999997
40
1.5000000000000198
0
CIRCLE
5
91
100
AcDbEntity
8
ABF_D3
100
AcDbCircle
10
521.9999999999504
20
941.9999999999997
40
1.5000000000000198
0
LWPOLYLINE
5
92
100
AcDbEntity
8
_ABF_CUTTING_LINES
100
AcDbPolyline
90
5
66
1
70
1
10
649.4999999999476
20
1942.4999999999993
10
649.4999999999476
20
2408.4999999999995
10
581.4999999999471
20
2408.4999999999995
10
581.4999999999471
20
1942.4999999999993
10
649.4999999999476
20
1942.4999999999993
0
CIRCLE
5
93
100
AcDbEntity
8
ABF_D3
100
AcDbCircle
10
600.499999999949
20
2390.0
40
1.499999999999659
0
CIRCLE
5
94
100
AcDbEntity
8
ABF_D3
100
AcDbCircle
10
618.499999999949
20
2390.0
40
1.499999999999659
0
CIRCLE
5
95
100
AcDbEntity
8
ABF_D3
100
AcDbCircle
10
600.4999999999493
20
1961.0000000000002
40
1.5000000000000198
0
CIRCLE
5
96
100
AcDbEntity
8
ABF_D3
100
AcDbCircle
10
618.4999999999493
20
1961.0000000000002
40
1.5000000000000198
0
LWPOLYLINE
5
97
100
AcDbEntity
8
_ABF_CUTTING_LINES
100
AcDbPolyline
90
5
66
1
70
1
10
574.9999999999458
20
1942.4999999999993
10
574.9999999999458
20
2408.4999999999995
10
506.9999999999453
20
2408.4999999999995
10
506.9999999999453
20
1942.4999999999993
10
574.9999999999458
20
1942.4999999999993
0
LWPOLYLINE
5
98
100
AcDbEntity
8
ABF_DSIDE_8
100
AcDbPolyline
90
5
66
1
70
1
10
544.9999999999475
20
1942.4999999999993
10
544.9999999999475
20
1976.4999999999995
10
536.9999999999476
20
1976.4999999999995
10
536.9999999999476
20
1942.4999999999993
10
544.9999999999475
20
1942.4999999999993
0
LWPOLYLINE
5
99
100
AcDbEntity
8
ABF_DSIDE_8
100
AcDbPolyline
90
5
66
1
70
1
10
536.9999999999471
20
2408.4999999999995
10
536.9999999999471
20
2374.499999999999
10
544.999999999947
20
2374.499999999999
10
544.999999999947
20
2408.4999999999995
10
536.9999999999471
20
2408.4999999999995
0
LWPOLYLINE
5
9a
100
AcDbEntity
8
_ABF_SHEET_ID
100
AcDbPolyline
90
2
66
1
70
0
10
475.3239999055862
20
1134.3406427955626
10
677.9520114421844
20
1429.2425096845625
0
LWPOLYLINE
5
9b
100
AcDbEntity
8
_ABF_SHEET_ID
100
AcDbPolyline
90
2
66
1
70
0
10
475.3239999055862
20
1134.3406427955626
10
677.9520114421844
20
1134.3406427955626
0
LWPOLYLINE
5
9c
100
AcDbEntity
8
_ABF_SHEET_ID
100
AcDbPolyline
90
2
66
1
70
0
10
677.9520114421844
20
1429.2425096845625
10
677.9520114421844
20
1134.3406427955626
0
LWPOLYLINE
5
9d
100
AcDbEntity
8
_ABF_SHEET_ID
100
AcDbPolyline
90
2
66
1
70
0
10
677.9520114421844
20
1134.3406427955626
10
744.6760000944137
20
1134.3406427955626
0
LWPOLYLINE
5
9e
100
AcDbEntity
8
_ABF_SHEET_ID
100
AcDbPolyline
90
2
66
1
70
0
10
677.9520114421844
20
1134.3406427955626
10
677.9520114421844
20
1014.2599999999999
0
LWPOLYLINE
5
9f
100
AcDbEntity
8
_ABF_SHEET_MATERIAL
100
AcDbPolyline
90
2
66
1
70
0
10
120.00738662146675
20
2276.0370849142496
10
120.00738662146675
20
2112.2599999999998
0
LWPOLYLINE
5
a0
100
AcDbEntity
8
_ABF_SHEET_MATERIAL
100
AcDbPolyline
90
2
66
1
70
0
10
100.9504492877007
20
2247.3382125138637
10
75.02999999999996
20
2222.1876236268063
0
LWPOLYLINE
5
a1
100
AcDbEntity
8
_ABF_SHEET_MATERIAL
100
AcDbPolyline
90
2
66
1
70
0
10
120.00738662146675
20
2276.0370849142496
10
100.9504492877007
20
2247.3382125138637
0
LWPOLYLINE
5
a2
100
AcDbEntity
8
_ABF_SHEET_MATERIAL
100
AcDbPolyline
90
2
66
1
70
0
10
75.02999999999996
20
2112.2599999999998
10
120.00738662146675
20
2112.2599999999998
0
LWPOLYLINE
5
a3
100
AcDbEntity
8
_ABF_SHEET_MATERIAL
100
AcDbPolyline
90
2
66
1
70
0
10
120.00738662146675
20
2112.2599999999998
10
165.11661856176804
20
2112.2599999999998
0
LWPOLYLINE
5
a4
100
AcDbEntity
8
_ABF_SHEET_MATERIAL
100
AcDbPolyline
90
2
66
1
70
0
10
228.6337747098927
20
2162.672895144977
10
219.56516888854287
20
2112.2599999999998
0
LWPOLYLINE
5
a5
100
AcDbEntity
8
_ABF_SHEET_MATERIAL
100
AcDbPolyline
90
2
66
1
70
0
10
192.18241584550603
20
2276.0370849142496
10
285.70518648295047
20
2276.0370849142496
0
LWPOLYLINE
5
a6
100
AcDbEntity
8
_ABF_SHEET_MATERIAL
100
AcDbPolyline
90
2
66
1
70
0
10
251.17560300697914
20
2221.776869371408
10
228.6337747098927
20
2162.672895144977
0
LWPOLYLINE
5
a7
100
AcDbEntity
8
_ABF_SHEET_MATERIAL
100
AcDbPolyline
90
2
66
1
70
0
10
285.70518648295047
20
2276.0370849142496
10
251.17560300697914
20
2221.776869371408
0
LWPOLYLINE
5
a8
100
AcDbEntity
8
_ABF_SHEET_MATERIAL
100
AcDbPolyline
90
2
66
1
70
0
10
381.75944746991433
20
2220.0617186885515
10
390.27910827791624
20
2191.312018245356
0
LWPOLYLINE
5
a9
100
AcDbEntity
8
_ABF_SHEET_MATERIAL
100
AcDbPolyline
90
2
66
1
70
0
10
312.77098376668846
20
2228.9697042379266
10
312.77098376668846
20
2197.349569126132
0
LWPOLYLINE
5
aa
100
AcDbEntity
8
_ABF_SHEET_MATERIAL
100
AcDbPolyline
90
2
66
1
70
0
10
390.27910827791624
20
2112.2599999999998
10
390.27910827791624
20
2191.312018245356
0
LWPOLYLINE
5
ab
100
AcDbEntity
8
_ABF_SHEET_MATERIAL
100
AcDbPolyline
90
2
66
1
70
0
10
360.48736304972834
20
2228.6827720851256
10
339.21691876422886
20
2223.7983649487646
0
LWPOLYLINE
5
ac
100
AcDbEntity
8
_ABF_SHEET_MATERIAL
100
AcDbPolyline
90
2
66
1
70
0
10
466.84711834180223
20
2112.2599999999998
10
466.84711834180223
20
2191.312018245356
0
LWPOLYLINE
5
ad
100
AcDbEntity
8
_ABF_SHEET_MATERIAL
100
AcDbPolyline
90
2
66
1
70
0
10
312.77098376668846
20
2197.349569126132
10
339.21691876422886
20
2223.7983649487646
0
LWPOLYLINE
5
ae
100
AcDbEntity
8
_ABF_SHEET_MATERIAL
100
AcDbPolyline
90
2
66
1
70
0
10
312.77098376668846
20
2197.349569126132
10
312.77098376668846
20
2112.2599999999998
0
LWPOLYLINE
5
af
100
AcDbEntity
8
_ABF_SHEET_MATERIAL
100
AcDbPolyline
90
2
66
1
70
0
10
433.2158930973007
20
2228.682793595089
10
459.0859902501248
20
2220.0617186885515
0
LWPOLYLINE
5
b0
100
AcDbEntity
8
_ABF_SHEET_MATERIAL
100
AcDbPolyline
90
2
66
1
70
0
10
459.0859902501248
20
2220.0617186885515
10
466.84711834180223
20
2191.312018245356
0
LWPOLYLINE
5
b1
100
AcDbEntity
8
_ABF_SHEET_MATERIAL
100
AcDbPolyline
90
2
66
1
70
0
10
410.79529495225785
20
2220.313804701127
10
433.2158930973007
20
2228.682793595089
0
LWPOLYLINE
5
b2
100
AcDbEntity
8
_ABF_SHEET_MATERIAL
100
AcDbPolyline
90
2
66
1
70
0
10
381.75944746991433
20
2220.0617186885515
10
360.48736304972834
20
2228.6827720851256
0
LWPOLYLINE
5
b3
100
AcDbEntity
8
_ABF_SHEET_MATERIAL
100
AcDbPolyline
90
2
66
1
70
0
10
390.27910827791624
20
2191.312018245356
10
410.79529495225785
20
2220.313804701127
0
LWPOLYLINE
5
b4
100
AcDbEntity
8
_ABF_SHEET_MATERIAL
100
AcDbPolyline
90
2
66
1
70
0
10
562.9013793287661
20
2220.0617186885515
10
571.4210401367679
20
2191.312018245356
0
LWPOLYLINE
5
b5
100
AcDbEntity
8
_ABF_SHEET_MATERIAL
100
AcDbPolyline
90
2
66
1
70
0
10
493.91291562554017
20
2228.9697042379266
10
493.91291562554017
20
2197.349569126132
0
LWPOLYLINE
5
b6
100
AcDbEntity
8
_ABF_SHEET_MATERIAL
100
AcDbPolyline
90
2
66
1
70
0
10
571.4210401367679
20
2112.2599999999998
10
571.4210401367679
20
2191.312018245356
0
LWPOLYLINE
5
b7
100
AcDbEntity
8
_ABF_SHEET_MATERIAL
100
AcDbPolyline
90
2
66
1
70
0
10
541.6292949085802
20
2228.6827720851256
10
520.3588506230807
20
2223.7983649487646
0
LWPOLYLINE
5
b8
100
AcDbEntity
8
_ABF_SHEET_MATERIAL
100
AcDbPolyline
90
2
66
1
70
0
10
647.989050200654
20
2112.2599999999998
10
647.989050200654
20
2191.312018245356
0
LWPOLYLINE
5
b9
100
AcDbEntity
8
_ABF_SHEET_MATERIAL
100
AcDbPolyline
90
2
66
1
70
0
10
493.91291562554017
20
2197.349569126132
10
520.3588506230807
20
2223.7983649487646
0
LWPOLYLINE
5
ba
100
AcDbEntity
8
_ABF_SHEET_MATERIAL
100
AcDbPolyline
90
2
66
1
70
0
10
493.91291562554017
20
2197.349569126132
10
493.91291562554017
20
2112.2599999999998
0
LWPOLYLINE
5
bb
100
AcDbEntity
8
_ABF_SHEET_MATERIAL
100
AcDbPolyline
90
2
66
1
70
0
10
614.3578249561524
20
2228.682793595089
10
640.2279221089765
20
2220.0617186885515
0
LWPOLYLINE
5
bc
100
AcDbEntity
8
_ABF_SHEET_MATERIAL
100
AcDbPolyline
90
2
66
1
70
0
10
640.2279221089765
20
2220.0617186885515
10
647.989050200654
20
2191.312018245356
0
LWPOLYLINE
5
bd
100
AcDbEntity
8
_ABF_SHEET_MATERIAL
100
AcDbPolyline
90
2
66
1
70
0
10
591.9372268111097
20
2220.313804701127
10
614.3578249561524
20
2228.682793595089
0
LWPOLYLINE
5
be
100
AcDbEntity
8
_ABF_SHEET_MATERIAL
100
AcDbPolyline
90
2
66
1
70
0
10
562.9013793287661
20
2220.0617186885515
10
541.6292949085802
20
2228.6827720851256
0
LWPOLYLINE
5
bf
100
AcDbEntity
8
_ABF_SHEET_MATERIAL
100
AcDbPolyline
90
2
66
1
70
0
10
571.4210401367679
20
2191.312018245356
10
591.9372268111097
20
2220.313804701127
0
LWPOLYLINE
5
c0
100
AcDbEntity
8
_ABF_SHEET_MATERIAL
100
AcDbPolyline
90
2
66
1
70
0
10
675.054847484392
20
2173.648380705294
10
797.0853637450779
20
2173.648380705294
0
LWPOLYLINE
5
c1
100
AcDbEntity
8
_ABF_SHEET_MATERIAL
100
AcDbPolyline
90
2
66
1
70
0
10
838.2143130638461
20
2196.1330516529274
10
824.1511610288159
20
2163.545280096001
0
LWPOLYLINE
5
c2
100
AcDbEntity
8
_ABF_SHEET_MATERIAL
100
AcDbPolyline
90
2
66
1
70
0
10
914.2377795905838
20
2163.545280096001
10
901.1598295743029
20
2127.282167018075
0
LWPOLYLINE
5
c3
100
AcDbEntity
8
_ABF_SHEET_MATERIAL
100
AcDbPolyline
90
2
66
1
70
0
10
824.1511610288159
20
2218.492470085417
10
838.7243075671344
20
2261.9502961185153
0
LWPOLYLINE
5
c4
100
AcDbEntity
8
_ABF_SHEET_MATERIAL
100
AcDbPolyline
90
2
66
1
70
0
10
900.7970855565485
20
2199.679184169945
10
869.5572842348344
20
2212.2660993710397
0
LWPOLYLINE
5
c5
100
AcDbEntity
8
_ABF_SHEET_MATERIAL
100
AcDbPolyline
90
2
66
1
70
0
10
838.7243075671344
20
2261.9502961185153
10
869.5572842348344
20
2276.006110567382
0
LWPOLYLINE
5
c6
100
AcDbEntity
8
_ABF_SHEET_MATERIAL
100
AcDbPolyline
90
2
66
1
70
0
10
914.2377795905838
20
2163.545280096001
10
900.7970855565485
20
2199.679184169945
0
LWPOLYLINE
5
c7
100
AcDbEntity
8
_ABF_SHEET_MATERIAL
100
AcDbPolyline
90
2
66
1
70
0
10
869.5572842348344
20
2276.006110567382
10
897.526791428862
20
2265.01644456389
0
LWPOLYLINE
5
c8
100
AcDbEntity
8
_ABF_SHEET_MATERIAL
100
AcDbPolyline
90
2
66
1
70
0
10
901.1598295743029
20
2127.282167018075
10
869.5572842348344
20
2112.2599999999998
0
LWPOLYLINE
5
c9
100
AcDbEntity
8
_ABF_SHEET_MATERIAL
100
AcDbPolyline
90
2
66
1
70
0
10
869.5572842348344
20
2112.2599999999998
10
836.1384940746749
20
2127.282167018075
0
LWPOLYLINE
5
ca
100
AcDbEntity
8
_ABF_SHEET_MATERIAL
100
AcDbPolyline
90
2
66
1
70
0
10
869.5572842348344
20
2212.2660993710397
10
838.2143130638461
20
2196.1330516529274
0
LWPOLYLINE
5
cb
100
AcDbEntity
8
_ABF_SHEET_MATERIAL
100
AcDbPolyline
90
2
66
1
70
0
10
824.1511610288159
20
2163.545280096001
10
824.1511610288159
20
2218.492470085417
0
LWPOLYLINE
5
cc
100
AcDbEntity
8
_ABF_SHEET_MATERIAL
100
AcDbPolyline
90
2
66
1
70
0
10
836.1384940746749
20
2127.282167018075
10
824.1511610288159
20
2163.545280096001
0
LWPOLYLINE
5
cd
100
AcDbEntity
8
_ABF_SHEET_MATERIAL
100
AcDbPolyline
90
2
66
1
70
0
10
897.526791428862
20
2265.01644456389
10
908.7876711796181
20
2247.435555851883
0
LWPOLYLINE
5
ce
100
AcDbEntity
8
_ABF_SHEET_MATERIAL
100
AcDbPolyline
90
2
66
1
70
0
10
941.3035768743221
20
2112.2599999999998
10
1027.9709609463937
20
2112.2599999999998
0
LWPOLYLINE
5
cf
100
AcDbEntity
8
_ABF_SHEET_MATERIAL
100
AcDbPolyline
90
2
66
1
70
0
10
1020.2985668300032
20
2203.4450678475046
10
954.2360496326525
20
2139.93403289713
0
LWPOLYLINE
5
d0
100
AcDbEntity
8
_ABF_SHEET_MATERIAL
100
AcDbPolyline
90
2
66
1
70
0
10
956.2063756965348
20
2262.1531243155864
10
944.3899779582373
20
2229.8449984114604
0
LWPOLYLINE
5
d1
100
AcDbEntity
8
_ABF_SHEET_MATERIAL
100
AcDbPolyline
90
2
66
1
70
0
10
954.2360496326525
20
2139.93403289713
10
941.3035768743221
20
2112.2599999999998
0
LWPOLYLINE
5
d2
100
AcDbEntity
8
_ABF_SHEET_MATERIAL
100
AcDbPolyline
90
2
66
1
70
0
10
1020.2985668300032
20
2203.4450678475046
10
1030.7316732932093
20
2235.8279838933368
0
LWPOLYLINE
5
d3
100
AcDbEntity
8
_ABF_SHEET_MATERIAL
100
AcDbPolyline
90
2
66
1
70
0
10
987.3179050420348
20
2273.819945467497
10
956.2063756965348
20
2262.1531243155864
0
LWPOLYLINE
5
d4
100
AcDbEntity
8
_ABF_SHEET_MATERIAL
100
AcDbPolyline
90
2
66
1
70
0
10
1030.7316732932093
20
2235.8279838933368
10
1017.1580476872025
20
2262.826203325997
0
LWPOLYLINE
5
d5
100
AcDbEntity
8
_ABF_SHEET_MATERIAL
100
AcDbPolyline
90
2
66
1
70
0
10
1017.1580476872025
20
2262.826203325997
10
987.3179050420348
20
2273.819945467497
0
LWPOLYLINE
5
d6
100
AcDbEntity
8
_ABF_SHEET_MATERIAL
100
AcDbPolyline
90
2
66
1
70
0
10
1130.4842282761751
20
2263.745829533484
10
1144.9699999999998
20
2219.8315190634326
0
LWPOLYLINE
5
d7
100
AcDbEntity
8
_ABF_SHEET_MATERIAL
100
AcDbPolyline
90
2
66
1
70
0
10
1101.7378995196955
20
2112.2599999999998
10
1134.1297314452336
20
2125.7297889478764
0
LWPOLYLINE
5
d8
100
AcDbEntity
8
_ABF_SHEET_MATERIAL
100
AcDbPolyline
90
2
66
1
70
0
10
1071.045529447676
20
2125.6790872760994
10
1101.7378995196955
20
2112.2599999999998
0
LWPOLYLINE
5
d9
100
AcDbEntity
8
_ABF_SHEET_MATERIAL
100
AcDbPolyline
90
2
66
1
70
0
10
1144.9699999999998
20
2219.8315190634326
10
1144.9699999999998
20
2168.784262841629
0
LWPOLYLINE
5
da
100
AcDbEntity
8
_ABF_SHEET_MATERIAL
100
AcDbPolyline
90
2
66
1
70
0
10
1144.9699999999998
20
2168.784262841629
10
1134.1297314452336
20
2125.7297889478764
0
LWPOLYLINE
5
db
100
AcDbEntity
8
_ABF_SHEET_MATERIAL
100
AcDbPolyline
90
2
66
1
70
0
10
1072.296777445054
20
2263.745829533484
10
1057.797470576947
20
2219.8315190634326
0
LWPOLYLINE
5
dc
100
AcDbEntity
8
_ABF_SHEET_MATERIAL
100
AcDbPolyline
90
2
66
1
70
0
10
1057.7974705769468
20
2168.784262841629
10
1071.045529447676
20
2125.6790872760994
0
LWPOLYLINE
5
dd
100
AcDbEntity
8
_ABF_SHEET_MATERIAL
100
AcDbPolyline
90
2
66
1
70
0
10
1057.797470576947
20
2219.8315190634326
10
1057.7974705769468
20
2168.784262841629
0
LWPOLYLINE
5
de
100
AcDbEntity
8
_ABF_SHEET_MATERIAL
100
AcDbPolyline
90
2
66
1
70
0
10
1130.4842282761751
20
2263.745829533484
10
1101.4434872772258
20
2276.0370849142496
0
LWPOLYLINE
5
df
100
AcDbEntity
8
_ABF_SHEET_MATERIAL
100
AcDbPolyline
90
2
66
1
70
0
10
1101.4434872772258
20
2276.0370849142496
10
1072.296777445054
20
2263.745829533484
0
ENDSEC
0
SECTION
2
OBJECTS
0
DICTIONARY
5
C
330
0
100
AcDbDictionary
281
1
3
ACAD_GROUP
350
D
0
DICTIONARY
5
D
330
C
100
AcDbDictionary
281
1
0
ENDSEC
0
EOF
