0
SECTION
2
HEADER
9
$ACADVER
1
AC1015
9
$HANDSEED
5
20000
0
ENDSEC
0
SECTION
2
CLASSES
0
ENDSEC
0
SECTION
2
TABLES
0
TABLE
2
VPORT
5
8
330
0
100
AcDbSymbolTable
70
1
0
VPORT
5
31
330
2
100
AcDbSymbolTableRecord
100
AcDbViewportTableRecord
2
*ACTIVE
70
0
10
0
20
0
11
1
21
1
12
209.475294253
22
86.0026335861
13
0
23
0
14
10
24
10
15
10
25
10
16
0
26
0
36
1
17
0
27
0
37
0
40
319.744231092
41
2.12946428571
42
50
43
0
44
0
50
0
51
0
71
0
72
100
73
1
74
3
75
0
76
0
77
0
78
0
281
0
65
1
110
0
120
0
130
0
111
1
121
0
131
0
112
0
122
1
132
0
79
0
146
0
348
10020
60
7
61
5
292
1
282
1
141
0
142
0
63
250
421
3358443
0
ENDTAB
0
TABLE
2
LTYPE
5
5
330
0
100
AcDbSymbolTable
70
4
0
LTYPE
5
14
330
5
100
AcDbSymbolTableRecord
100
AcDbLinetypeTableRecord
2
ByBlock
70
0
3

72
65
73
0
40
0
0
LTYPE
5
15
330
5
100
AcDbSymbolTableRecord
100
AcDbLinetypeTableRecord
2
ByLayer
70
0
3

72
65
73
0
40
0
0
LTYPE
5
16
330
5
100
AcDbSymbolTableRecord
100
AcDbLinetypeTableRecord
2
Continuous
70
0
3
Solid line
72
65
73
0
40
0
0
ENDTAB
0
TABLE
2
LAYER
5
2
330
0
100
AcDbSymbolTable
70
1
0
LAYER
5
10
330
2
100
AcDbSymbolTableRecord
100
AcDbLayerTableRecord
2
0
70
0
62
7
6
CONTINUOUS
370
-3
390
F
0
LAYER
5
c3
100
AcDbSymbolTableRecord
100
AcDbLayerTableRecord
2
_ABF_SHEET_ID
70
0
62
100
6
Continuous
390
13
0
LAYER
5
c4
100
AcDbSymbolTableRecord
100
AcDbLayerTableRecord
2
_ABF_SHEET_MATERIAL
70
0
62
1
6
Continuous
390
13
0
LAYER
5
c5
100
AcDbSymbolTableRecord
100
AcDbLayerTableRecord
2
_ABF_SHEET_BORDER
70
0
62
30
6
Continuous
390
13
0
LAYER
5
c6
100
AcDbSymbolTableRecord
100
AcDbLayerTableRecord
2
_ABF_CUTTING_LINES
70
0
62
54
6
Continuous
390
13
0
ENDTAB
0
TABLE
2
STYLE
5
3
330
0
100
AcDbSymbolTable
70
3
0
STYLE
5
45
330
2
100
AcDbSymbolTableRecord
100
AcDbTextStyleTableRecord
2
Standard
70
0
40
0
41
1
50
0
71
0
42
1
3
txt
4

0
ENDTAB
0
TABLE
2
VIEW
5
6
330
0
100
AcDbSymbolTable
70
0
0
ENDTAB
0
TABLE
2
UCS
5
7
330
0
100
AcDbSymbolTable
70
0
0
ENDTAB
0
TABLE
2
APPID
5
9
330
0
100
AcDbSymbolTable
70
1
0
APPID
5
12
330
9
100
AcDbSymbolTableRecord
100
AcDbRegAppTableRecord
2
ACAD
70
0
0
ENDTAB
0
TABLE
2
DIMSTYLE
5
A
330
0
100
AcDbSymbolTable
70
1
100
AcDbDimStyleTable
71
1
0
DIMSTYLE
105
46
330
A
100
AcDbSymbolTableRecord
100
AcDbDimStyleTableRecord
2
Standard
70
0
40
1
41
0.18
42
0.0625
43
0.38
44
0.18
45
0
46
0
47
0
48
0
140
0.18
141
0.09
142
0
143
25.4
144
1
145
0
146
1
147
0.09
148
0
71
0
72
0
73
0
74
1
75
0
76
0
77
0
78
0
79
0
170
0
171
2
172
0
173
0
174
0
175
0
176
0
177
0
178
0
179
0
271
4
272
4
273
2
274
2
275
0
276
0
277
2
278
46
279
0
280
0
281
0
282
0
283
1
284
0
285
0
286
0
288
0
289
3
340
Standard
341

371
-2
372
-2
0
ENDTAB
0
TABLE
2
BLOCK_RECORD
5
1
330
0
100
AcDbSymbolTable
70
2
0
BLOCK_RECORD
5
1F
330
1
100
AcDbSymbolTableRecord
100
AcDbBlockTableRecord
2
*Model_Space
70
0
280
1
281
0
0
BLOCK_RECORD
5
1E
330
1
100
AcDbSymbolTableRecord
100
AcDbBlockTableRecord
2
*Paper_Space
70
0
280
1
281
0
0
ENDTAB
0
ENDSEC
0
SECTION
2
BLOCKS
0
BLOCK
5
20
330
1F
100
AcDbEntity
8
0
100
AcDbBlockBegin
2
*Model_Space
70
0
10
0
20
0
30
0
3
*Model_Space
1

0
ENDBLK
5
21
330
1F
100
AcDbEntity
8
0
100
AcDbBlockEnd
0
BLOCK
5
1C
330
1B
100
AcDbEntity
8
0
100
AcDbBlockBegin
2
*Paper_Space
70
0
10
0
20
0
30
0
3
*Paper_Space
1

0
ENDBLK
5
1D
330
1E
100
AcDbEntity
8
0
100
AcDbBlockEnd
0
ENDSEC
0
SECTION
2
ENTITIES
0
LWPOLYLINE
5
65
100
AcDbEntity
8
_ABF_SHEET_BORDER
100
AcDbPolyline
90
5
66
1
70
1
10
0.0
20
0.0
10
1220.0
20
0.0
10
1220.0
20
2440.0
10
0.0
20
2440.0
10
0.0
20
0.0
0
LWPOLYLINE
5
66
100
AcDbEntity
8
_ABF_CUTTING_LINES
100
AcDbPolyline
90
5
66
1
70
1
10
1216.49999999995
20
2436.4999999999995
10
1068.499999999949
20
2436.4999999999995
10
1068.499999999949
20
1840.4999999999993
10
1216.49999999995
20
1840.4999999999993
10
1216.49999999995
20
2436.4999999999995
0
LWPOLYLINE
5
67
100
AcDbEntity
8
_ABF_SHEET_ID
100
AcDbPolyline
90
2
66
1
70
0
10
506.55570661127564
20
1341.443690047264
10
532.0877544045449
20
1405.4612486934661
0
LWPOLYLINE
5
68
100
AcDbEntity
8
_ABF_SHEET_ID
100
AcDbPolyline
90
2
66
1
70
0
10
606.0307473659515
20
1014.2599999999999
10
517.120141711831
20
1055.1579612559078
0
LWPOLYLINE
5
69
100
AcDbEntity
8
_ABF_SHEET_ID
100
AcDbPolyline
90
2
66
1
70
0
10
606.0307473659515
20
1437.4620842790603
10
681.7492542266846
20
1405.4612486934661
0
LWPOLYLINE
5
6a
100
AcDbEntity
8
_ABF_SHEET_ID
100
AcDbPolyline
90
2
66
1
70
0
10
708.1603419780731
20
1341.443690047264
10
681.7492542266846
20
1281.8749241685866
0
LWPOLYLINE
5
6b
100
AcDbEntity
8
_ABF_SHEET_ID
100
AcDbPolyline
90
2
66
1
70
0
10
731.0516863584518
20
1126.280433473587
10
703.3689602017403
20
1055.1579612559078
0
LWPOLYLINE
5
6c
100
AcDbEntity
8
_ABF_SHEET_ID
100
AcDbPolyline
90
2
66
1
70
0
10
532.0877544045449
20
1405.4612486934661
10
606.0307473659515
20
1437.4620842790603
0
LWPOLYLINE
5
6d
100
AcDbEntity
8
_ABF_SHEET_ID
100
AcDbPolyline
90
2
66
1
70
0
10
703.3689602017403
20
1197.4364553785324
10
731.0516863584518
20
1126.280433473587
0
LWPOLYLINE
5
6e
100
AcDbEntity
8
_ABF_SHEET_ID
100
AcDbPolyline
90
2
66
1
70
0
10
681.7492542266846
20
1405.4612486934661
10
708.1603419780731
20
1341.443690047264
0
LWPOLYLINE
5
6f
100
AcDbEntity
8
_ABF_SHEET_ID
100
AcDbPolyline
90
2
66
1
70
0
10
488.9483136415481
20
1126.280433473587
10
517.120141711831
20
1197.4364553785324
0
LWPOLYLINE
5
70
100
AcDbEntity
8
_ABF_SHEET_ID
100
AcDbPolyline
90
2
66
1
70
0
10
532.0877544045449
20
1281.8749241685866
10
606.0307473659515
20
1245.422407183647
0
LWPOLYLINE
5
71
100
AcDbEntity
8
_ABF_SHEET_ID
100
AcDbPolyline
90
2
66
1
70
0
10
517.120141711831
20
1055.1579612559078
10
488.9483136415481
20
1126.280433473587
0
LWPOLYLINE
5
72
100
AcDbEntity
8
_ABF_SHEET_ID
100
AcDbPolyline
90
2
66
1
70
0
10
532.0877544045449
20
1281.8749241685866
10
506.55570661127564
20
1341.443690047264
0
LWPOLYLINE
5
73
100
AcDbEntity
8
_ABF_SHEET_ID
100
AcDbPolyline
90
2
66
1
70
0
10
517.120141711831
20
1197.4364553785324
10
606.0307473659515
20
1245.422407183647
0
LWPOLYLINE
5
74
100
AcDbEntity
8
_ABF_SHEET_ID
100
AcDbPolyline
90
2
66
1
70
0
10
606.0307473659515
20
1245.422407183647
10
703.3689602017403
20
1197.4364553785324
0
LWPOLYLINE
5
75
100
AcDbEntity
8
_ABF_SHEET_ID
100
AcDbPolyline
90
2
66
1
70
0
10
703.3689602017403
20
1055.1579612559078
10
606.0307473659515
20
1014.2599999999999
0
LWPOLYLINE
5
76
100
AcDbEntity
8
_ABF_SHEET_ID
100
AcDbPolyline
90
2
66
1
70
0
10
681.7492542266846
20
1281.8749241685866
10
606.0307473659515
20
1245.422407183647
0
LWPOLYLINE
5
77
100
AcDbEntity
8
_ABF_SHEET_MATERIAL
100
AcDbPolyline
90
2
66
1
70
0
10
110.51569939721205
20
2241.474808595502
10
110.51569939721205
20
2112.2599999999998
0
LWPOLYLINE
5
78
100
AcDbEntity
8
_ABF_SHEET_MATERIAL
100
AcDbPolyline
90
2
66
1
70
0
10
95.48039387026152
20
2218.8323289954765
10
75.02999999999996
20
2198.989330014228
0
LWPOLYLINE
5
79
100
AcDbEntity
8
_ABF_SHEET_MATERIAL
100
AcDbPolyline
90
2
66
1
70
0
10
110.51569939721205
20
2241.474808595502
10
95.48039387026152
20
2218.8323289954765
0
LWPOLYLINE
5
7a
100
AcDbEntity
8
_ABF_SHEET_MATERIAL
100
AcDbPolyline
90
2
66
1
70
0
10
75.02999999999996
20
2112.2599999999998
10
110.51569939721205
20
2112.2599999999998
0
LWPOLYLINE
5
7b
100
AcDbEntity
8
_ABF_SHEET_MATERIAL
100
AcDbPolyline
90
2
66
1
70
0
10
110.51569939721205
20
2112.2599999999998
10
146.10542047515153
20
2112.2599999999998
0
LWPOLYLINE
5
7c
100
AcDbEntity
8
_ABF_SHEET_MATERIAL
100
AcDbPolyline
90
2
66
1
70
0
10
196.21839677160824
20
2152.034139345037
10
189.06356087959497
20
2112.2599999999998
0
LWPOLYLINE
5
7d
100
AcDbEntity
8
_ABF_SHEET_MATERIAL
100
AcDbPolyline
90
2
66
1
70
0
10
167.45945676987486
20
2241.474808595502
10
241.2458897959949
20
2241.474808595502
0
LWPOLYLINE
5
7e
100
AcDbEntity
8
_ABF_SHEET_MATERIAL
100
AcDbPolyline
90
2
66
1
70
0
10
214.00316825124324
20
2198.6652582277575
10
196.21839677160824
20
2152.034139345037
0
LWPOLYLINE
5
7f
100
AcDbEntity
8
_ABF_SHEET_MATERIAL
100
AcDbPolyline
90
2
66
1
70
0
10
241.2458897959949
20
2241.474808595502
10
214.00316825124324
20
2198.6652582277575
0
LWPOLYLINE
5
80
100
AcDbEntity
8
_ABF_SHEET_MATERIAL
100
AcDbPolyline
90
2
66
1
70
0
10
317.02958660993846
20
2197.3120599624826
10
323.7513226890789
20
2174.6294786850676
0
LWPOLYLINE
5
81
100
AcDbEntity
8
_ABF_SHEET_MATERIAL
100
AcDbPolyline
90
2
66
1
70
0
10
262.59992609071827
20
2204.3401716689323
10
262.59992609071827
20
2179.3929105281336
0
LWPOLYLINE
5
82
100
AcDbEntity
8
_ABF_SHEET_MATERIAL
100
AcDbPolyline
90
2
66
1
70
0
10
323.7513226890789
20
2112.2599999999998
10
323.7513226890789
20
2174.6294786850676
0
LWPOLYLINE
5
83
100
AcDbEntity
8
_ABF_SHEET_MATERIAL
100
AcDbPolyline
90
2
66
1
70
0
10
300.2466018705236
20
2204.1137915057766
10
283.46491114418575
20
2200.2601526798207
0
LWPOLYLINE
5
84
100
AcDbEntity
8
_ABF_SHEET_MATERIAL
100
AcDbPolyline
90
2
66
1
70
0
10
384.16099947703543
20
2112.2599999999998
10
384.16099947703543
20
2174.6294786850676
0
LWPOLYLINE
5
85
100
AcDbEntity
8
_ABF_SHEET_MATERIAL
100
AcDbPolyline
90
2
66
1
70
0
10
262.59992609071827
20
2179.3929105281336
10
283.46491114418575
20
2200.2601526798207
0
LWPOLYLINE
5
86
100
AcDbEntity
8
_ABF_SHEET_MATERIAL
100
AcDbPolyline
90
2
66
1
70
0
10
262.59992609071827
20
2179.3929105281336
10
262.59992609071827
20
2112.2599999999998
0
LWPOLYLINE
5
87
100
AcDbEntity
8
_ABF_SHEET_MATERIAL
100
AcDbPolyline
90
2
66
1
70
0
10
357.6270534425472
20
2204.11380847644
10
378.0377211113449
20
2197.3120599624826
0
LWPOLYLINE
5
88
100
AcDbEntity
8
_ABF_SHEET_MATERIAL
100
AcDbPolyline
90
2
66
1
70
0
10
378.0377211113449
20
2197.3120599624826
10
384.16099947703543
20
2174.6294786850676
0
LWPOLYLINE
5
89
100
AcDbEntity
8
_ABF_SHEET_MATERIAL
100
AcDbPolyline
90
2
66
1
70
0
10
339.9379286212986
20
2197.5109476510843
10
357.6270534425472
20
2204.11380847644
0
LWPOLYLINE
5
8a
100
AcDbEntity
8
_ABF_SHEET_MATERIAL
100
AcDbPolyline
90
2
66
1
70
0
10
317.02958660993846
20
2197.3120599624826
10
300.2466018705236
20
2204.1137915057766
0
LWPOLYLINE
5
8b
100
AcDbEntity
8
_ABF_SHEET_MATERIAL
100
AcDbPolyline
90
2
66
1
70
0
10
323.7513226890789
20
2174.6294786850676
10
339.9379286212986
20
2197.5109476510843
0
LWPOLYLINE
5
8c
100
AcDbEntity
8
_ABF_SHEET_MATERIAL
100
AcDbPolyline
90
2
66
1
70
0
10
459.9446962909789
20
2197.3120599624826
10
466.6664323701194
20
2174.6294786850676
0
LWPOLYLINE
5
8d
100
AcDbEntity
8
_ABF_SHEET_MATERIAL
100
AcDbPolyline
90
2
66
1
70
0
10
405.5150357717588
20
2204.3401716689323
10
405.5150357717588
20
2179.3929105281336
0
LWPOLYLINE
5
8e
100
AcDbEntity
8
_ABF_SHEET_MATERIAL
100
AcDbPolyline
90
2
66
1
70
0
10
466.6664323701194
20
2112.2599999999998
10
466.6664323701194
20
2174.6294786850676
0
LWPOLYLINE
5
8f
100
AcDbEntity
8
_ABF_SHEET_MATERIAL
100
AcDbPolyline
90
2
66
1
70
0
10
443.1617115515641
20
2204.1137915057766
10
426.38002082522627
20
2200.2601526798207
0
LWPOLYLINE
5
90
100
AcDbEntity
8
_ABF_SHEET_MATERIAL
100
AcDbPolyline
90
2
66
1
70
0
10
527.076109158076
20
2112.2599999999998
10
527.076109158076
20
2174.6294786850676
0
LWPOLYLINE
5
91
100
AcDbEntity
8
_ABF_SHEET_MATERIAL
100
AcDbPolyline
90
2
66
1
70
0
10
405.5150357717588
20
2179.3929105281336
10
426.38002082522627
20
2200.2601526798207
0
LWPOLYLINE
5
92
100
AcDbEntity
8
_ABF_SHEET_MATERIAL
100
AcDbPolyline
90
2
66
1
70
0
10
405.5150357717588
20
2179.3929105281336
10
405.5150357717588
20
2112.2599999999998
0
LWPOLYLINE
5
93
100
AcDbEntity
8
_ABF_SHEET_MATERIAL
100
AcDbPolyline
90
2
66
1
70
0
10
500.5421631235877
20
2204.11380847644
10
520.9528307923854
20
2197.3120599624826
0
LWPOLYLINE
5
94
100
AcDbEntity
8
_ABF_SHEET_MATERIAL
100
AcDbPolyline
90
2
66
1
70
0
10
520.9528307923854
20
2197.3120599624826
10
527.076109158076
20
2174.6294786850676
0
LWPOLYLINE
5
95
100
AcDbEntity
8
_ABF_SHEET_MATERIAL
100
AcDbPolyline
90
2
66
1
70
0
10
482.8530383023392
20
2197.5109476510843
10
500.5421631235877
20
2204.11380847644
0
LWPOLYLINE
5
96
100
AcDbEntity
8
_ABF_SHEET_MATERIAL
100
AcDbPolyline
90
2
66
1
70
0
10
459.9446962909789
20
2197.3120599624826
10
443.1617115515641
20
2204.1137915057766
0
LWPOLYLINE
5
97
100
AcDbEntity
8
_ABF_SHEET_MATERIAL
100
AcDbPolyline
90
2
66
1
70
0
10
466.6664323701194
20
2174.6294786850676
10
482.8530383023392
20
2197.5109476510843
0
LWPOLYLINE
5
98
100
AcDbEntity
8
_ABF_SHEET_MATERIAL
100
AcDbPolyline
90
2
66
1
70
0
10
548.4301454527993
20
2160.6934415096935
10
644.7082652501492
20
2160.6934415096935
0
LWPOLYLINE
5
99
100
AcDbEntity
8
_ABF_SHEET_MATERIAL
100
AcDbPolyline
90
2
66
1
70
0
10
701.5480009420846
20
2241.474808595502
10
701.5480009420846
20
2112.2599999999998
0
LWPOLYLINE
5
9a
100
AcDbEntity
8
_ABF_SHEET_MATERIAL
100
AcDbPolyline
90
2
66
1
70
0
10
686.5126954151341
20
2218.8323289954765
10
666.0623015448725
20
2198.989330014228
0
LWPOLYLINE
5
9b
100
AcDbEntity
8
_ABF_SHEET_MATERIAL
100
AcDbPolyline
90
2
66
1
70
0
10
701.5480009420846
20
2241.474808595502
10
686.5126954151341
20
2218.8323289954765
0
LWPOLYLINE
5
9c
100
AcDbEntity
8
_ABF_SHEET_MATERIAL
100
AcDbPolyline
90
2
66
1
70
0
10
666.0623015448725
20
2112.2599999999998
10
701.5480009420846
20
2112.2599999999998
0
LWPOLYLINE
5
9d
100
AcDbEntity
8
_ABF_SHEET_MATERIAL
100
AcDbPolyline
90
2
66
1
70
0
10
701.5480009420846
20
2112.2599999999998
10
737.1377220200241
20
2112.2599999999998
0
LWPOLYLINE
5
9e
100
AcDbEntity
8
_ABF_SHEET_MATERIAL
100
AcDbPolyline
90
2
66
1
70
0
10
815.8392528586329
20
2231.7774067138193
10
827.268056965338
20
2197.130439923794
0
LWPOLYLINE
5
9f
100
AcDbEntity
8
_ABF_SHEET_MATERIAL
100
AcDbPolyline
90
2
66
1
70
0
10
793.1593317326909
20
2112.2599999999998
10
818.7154366328823
20
2122.887226645492
0
LWPOLYLINE
5
a0
100
AcDbEntity
8
_ABF_SHEET_MATERIAL
100
AcDbPolyline
90
2
66
1
70
0
10
768.9440471202263
20
2122.8472246707493
10
793.1593317326909
20
2112.2599999999998
0
LWPOLYLINE
5
a1
100
AcDbEntity
8
_ABF_SHEET_MATERIAL
100
AcDbPolyline
90
2
66
1
70
0
10
827.268056965338
20
2197.130439923794
10
827.268056965338
20
2156.8558102619
0
LWPOLYLINE
5
a2
100
AcDbEntity
8
_ABF_SHEET_MATERIAL
100
AcDbPolyline
90
2
66
1
70
0
10
827.268056965338
20
2156.8558102619
10
818.7154366328823
20
2122.887226645492
0
LWPOLYLINE
5
a3
100
AcDbEntity
8
_ABF_SHEET_MATERIAL
100
AcDbPolyline
90
2
66
1
70
0
10
769.9312412113371
20
2231.7774067138193
10
758.4917583147474
20
2197.130439923794
0
LWPOLYLINE
5
a4
100
AcDbEntity
8
_ABF_SHEET_MATERIAL
100
AcDbPolyline
90
2
66
1
70
0
10
758.4917583147472
20
2156.8558102619
10
768.9440471202263
20
2122.8472246707493
0
LWPOLYLINE
5
a5
100
AcDbEntity
8
_ABF_SHEET_MATERIAL
100
AcDbPolyline
90
2
66
1
70
0
10
758.4917583147474
20
2197.130439923794
10
758.4917583147472
20
2156.8558102619
0
LWPOLYLINE
5
a6
100
AcDbEntity
8
_ABF_SHEET_MATERIAL
100
AcDbPolyline
90
2
66
1
70
0
10
815.8392528586329
20
2231.7774067138193
10
792.9270500213709
20
2241.474808595502
0
LWPOLYLINE
5
a7
100
AcDbEntity
8
_ABF_SHEET_MATERIAL
100
AcDbPolyline
90
2
66
1
70
0
10
792.9270500213709
20
2241.474808595502
10
769.9312412113371
20
2231.7774067138193
0
LWPOLYLINE
5
a8
100
AcDbEntity
8
_ABF_SHEET_MATERIAL
100
AcDbPolyline
90
2
66
1
70
0
10
884.1077926572734
20
2241.474808595502
10
884.1077926572734
20
2112.2599999999998
0
LWPOLYLINE
5
a9
100
AcDbEntity
8
_ABF_SHEET_MATERIAL
100
AcDbPolyline
90
2
66
1
70
0
10
869.072487130323
20
2218.8323289954765
10
848.6220932600613
20
2198.989330014228
0
LWPOLYLINE
5
aa
100
AcDbEntity
8
_ABF_SHEET_MATERIAL
100
AcDbPolyline
90
2
66
1
70
0
10
884.1077926572734
20
2241.474808595502
10
869.072487130323
20
2218.8323289954765
0
LWPOLYLINE
5
ab
100
AcDbEntity
8
_ABF_SHEET_MATERIAL
100
AcDbPolyline
90
2
66
1
70
0
10
848.6220932600613
20
2112.2599999999998
10
884.1077926572734
20
2112.2599999999998
0
LWPOLYLINE
5
ac
100
AcDbEntity
8
_ABF_SHEET_MATERIAL
100
AcDbPolyline
90
2
66
1
70
0
10
884.1077926572734
20
2112.2599999999998
10
919.697513735213
20
2112.2599999999998
0
LWPOLYLINE
5
ad
100
AcDbEntity
8
_ABF_SHEET_MATERIAL
100
AcDbPolyline
90
2
66
1
70
0
10
964.9833609252216
20
2116.8222536452513
10
947.9764244185033
20
2130.081896926947
0
LWPOLYLINE
5
ae
100
AcDbEntity
8
_ABF_SHEET_MATERIAL
100
AcDbPolyline
90
2
66
1
70
0
10
1013.9209053817226
20
2170.2513063550177
10
1027.5620348555158
20
2159.6576795015367
0
LWPOLYLINE
5
af
100
AcDbEntity
8
_ABF_SHEET_MATERIAL
100
AcDbPolyline
90
2
66
1
70
0
10
950.8637234468839
20
2228.604410281033
10
945.5672504940761
20
2211.8095291066415
0
LWPOLYLINE
5
b0
100
AcDbEntity
8
_ABF_SHEET_MATERIAL
100
AcDbPolyline
90
2
66
1
70
0
10
984.5863713926769
20
2242.4554583745758
10
962.5752619862482
20
2238.2799284923844
0
LWPOLYLINE
5
b1
100
AcDbEntity
8
_ABF_SHEET_MATERIAL
100
AcDbPolyline
90
2
66
1
70
0
10
945.5672504940761
20
2211.8095291066415
10
949.899709690848
20
2196.018606917373
0
LWPOLYLINE
5
b2
100
AcDbEntity
8
_ABF_SHEET_MATERIAL
100
AcDbPolyline
90
2
66
1
70
0
10
1004.4435493631167
20
2238.2799284923844
10
984.5863713926769
20
2242.4554583745758
0
LWPOLYLINE
5
b3
100
AcDbEntity
8
_ABF_SHEET_MATERIAL
100
AcDbPolyline
90
2
66
1
70
0
10
962.5752619862482
20
2238.2799284923844
10
950.8637234468839
20
2228.604410281033
0
LWPOLYLINE
5
b4
100
AcDbEntity
8
_ABF_SHEET_MATERIAL
100
AcDbPolyline
90
2
66
1
70
0
10
988.8905219320565
20
2112.2599999999998
10
964.9833609252216
20
2116.8222536452513
0
LWPOLYLINE
5
b5
100
AcDbEntity
8
_ABF_SHEET_MATERIAL
100
AcDbPolyline
90
2
66
1
70
0
10
1026.3382463832725
20
2213.5849489896104
10
1019.3761505570789
20
2228.604410281033
0
LWPOLYLINE
5
b6
100
AcDbEntity
8
_ABF_SHEET_MATERIAL
100
AcDbPolyline
90
2
66
1
70
0
10
1019.3761505570789
20
2228.604410281033
10
1004.4435493631167
20
2238.2799284923844
0
LWPOLYLINE
5
b7
100
AcDbEntity
8
_ABF_SHEET_MATERIAL
100
AcDbPolyline
90
2
66
1
70
0
10
963.8637765683362
20
2187.580436738245
10
1013.9209053817226
20
2170.2513063550177
0
LWPOLYLINE
5
b8
100
AcDbEntity
8
_ABF_SHEET_MATERIAL
100
AcDbPolyline
90
2
66
1
70
0
10
1027.5620348555158
20
2159.6576795015367
10
1031.7319559334853
20
2144.3399418318677
0
LWPOLYLINE
5
b9
100
AcDbEntity
8
_ABF_SHEET_MATERIAL
100
AcDbPolyline
90
2
66
1
70
0
10
949.899709690848
20
2196.018606917373
10
963.8637765683362
20
2187.580436738245
0
LWPOLYLINE
5
ba
100
AcDbEntity
8
_ABF_SHEET_MATERIAL
100
AcDbPolyline
90
2
66
1
70
0
10
1031.7319559334853
20
2144.3399418318677
10
1026.7576508708582
20
2130.081896926947
0
LWPOLYLINE
5
bb
100
AcDbEntity
8
_ABF_SHEET_MATERIAL
100
AcDbPolyline
90
2
66
1
70
0
10
1026.7576508708582
20
2130.081896926947
10
1013.7627048583944
20
2118.624900305827
0
LWPOLYLINE
5
bc
100
AcDbEntity
8
_ABF_SHEET_MATERIAL
100
AcDbPolyline
90
2
66
1
70
0
10
1013.7627048583944
20
2118.624900305827
10
988.8905219320565
20
2112.2599999999998
0
LWPOLYLINE
5
bd
100
AcDbEntity
8
_ABF_SHEET_MATERIAL
100
AcDbPolyline
90
2
66
1
70
0
10
947.9764244185033
20
2130.081896926947
10
941.0515500299364
20
2147.4393598325623
0
LWPOLYLINE
5
be
100
AcDbEntity
8
_ABF_SHEET_MATERIAL
100
AcDbPolyline
90
2
66
1
70
0
10
1053.0859922282086
20
2239.5042769965166
10
1053.0859922282086
20
2180.301748945433
0
LWPOLYLINE
5
bf
100
AcDbEntity
8
_ABF_SHEET_MATERIAL
100
AcDbPolyline
90
2
66
1
70
0
10
1144.9699999999998
20
2239.5042769965166
10
1144.9699999999998
20
2180.301748945433
0
LWPOLYLINE
5
c0
100
AcDbEntity
8
_ABF_SHEET_MATERIAL
100
AcDbPolyline
90
2
66
1
70
0
10
1053.0859922282086
20
2180.301748945433
10
1053.0859922282086
20
2112.2599999999998
0
LWPOLYLINE
5
c1
100
AcDbEntity
8
_ABF_SHEET_MATERIAL
100
AcDbPolyline
90
2
66
1
70
0
10
1053.0859922282086
20
2180.301748945433
10
1144.9699999999998
20
2180.301748945433
0
LWPOLYLINE
5
c2
100
AcDbEntity
8
_ABF_SHEET_MATERIAL
100
AcDbPolyline
90
2
66
1
70
0
10
1144.9699999999998
20
2180.301748945433
10
1144.9699999999998
20
2112.2599999999998
0
ENDSEC
0
SECTION
2
OBJECTS
0
DICTIONARY
5
C
330
0
100
AcDbDictionary
281
1
3
ACAD_GROUP
350
D
0
DICTIONARY
5
D
330
C
100
AcDbDictionary
281
1
0
ENDSEC
0
EOF
